<svg width="258" height="36" viewBox="0 0 258 36" fill="none" xmlns="http://www.w3.org/2000/svg">
<g clip-path="url(#clip0_152_176)">
<path d="M175.258 7.08679C175.258 7.08679 175.275 7.09789 175.286 7.08957C175.286 7.08957 175.275 7.08957 175.258 7.08679ZM167.341 13.0891H167.347C167.347 13.0891 167.347 13.0836 167.347 13.078C167.347 13.0836 167.347 13.0863 167.338 13.0891H167.341ZM139.129 35.9889C139.129 35.9889 139.135 35.9889 139.138 35.9861C139.138 35.9861 139.138 35.9805 139.143 35.9805C139.143 35.9805 139.143 35.9787 139.143 35.975C139.143 35.975 139.129 35.9833 139.127 35.9889H139.129ZM139.124 35.9944C139.124 35.9944 139.124 35.9944 139.129 35.9916C139.129 35.9889 139.124 35.9916 139.124 35.9944Z" fill="#D9D9D9"/>
<path d="M146.313 10.0103V10.2766C146.316 10.21 146.316 10.1157 146.313 10.0103ZM175.144 31.5149C175.149 31.8172 175.158 32.2416 175.163 32.7076C175.169 32.4136 175.163 31.9864 175.144 31.5149ZM162.779 28.8549C162.779 28.8549 162.785 28.8715 162.785 28.8743H162.801C162.801 28.8743 162.782 28.8632 162.779 28.8549ZM139.283 27.0908C139.288 27.6871 139.291 28.2114 139.297 28.5553C139.3 27.934 139.297 27.4153 139.283 27.0908Z" fill="#D9D9D9"/>
<path d="M118.458 7.15613H118.433C118.41 7.15891 118.388 7.15891 118.369 7.16168C118.422 7.15891 118.475 7.15613 118.525 7.15336C118.502 7.15336 118.48 7.15613 118.458 7.15613ZM91.9694 0.887546C91.9694 0.854262 91.961 0.820977 91.9582 0.790466C91.9582 0.837619 91.9666 0.887546 91.9722 0.94302C91.9722 0.923605 91.9722 0.904189 91.9722 0.887546H91.9694ZM129.199 7.07015V7.07292V7.07847C129.199 7.07847 129.211 7.0757 129.213 7.07847V7.07292C129.213 7.07292 129.216 7.05905 129.213 7.05905C129.213 7.05351 129.208 7.05905 129.202 7.07015H129.199ZM110.273 13.5856V13.5911C110.273 13.5911 110.273 13.5884 110.273 13.5856Z" fill="#D9D9D9"/>
<path d="M110.173 9.4528C110.173 9.4528 110.179 9.47233 110.179 9.48349V9.45001C110.179 9.45001 110.176 9.45001 110.173 9.45001V9.4528Z" fill="#D9D9D9"/>
<path d="M129.199 7.07022H129.205L129.211 7.05912C129.211 7.05357 129.205 7.05912 129.199 7.07022ZM110.273 13.5912V13.594V13.5884C110.273 13.5884 110.273 13.5884 110.273 13.5857V13.5912ZM93.6537 7.15065C93.6537 7.15065 93.6592 7.1562 93.6648 7.1562C93.662 7.1562 93.6592 7.15343 93.6592 7.15065C93.6564 7.14788 93.6564 7.15065 93.6537 7.15065Z" fill="#D9D9D9"/>
<path d="M92.1144 5.70563C92.1144 5.70563 92.0949 5.69726 92.0865 5.69726C92.0865 5.69726 92.1032 5.68889 92.1116 5.6861C92.1116 5.69168 92.1116 5.70005 92.1144 5.70563Z" fill="#D9D9D9"/>
<path d="M93.7429 7.12842C93.7095 7.15353 93.6816 7.16469 93.6648 7.15632C93.6592 7.15632 93.6564 7.15353 93.6537 7.15074C93.6537 7.15074 93.6537 7.14795 93.6592 7.15074C93.6676 7.14516 93.676 7.14237 93.6843 7.13958C93.7011 7.13679 93.7206 7.13121 93.7429 7.12842Z" fill="#D9D9D9"/>
<path d="M82.887 0.285731C82.887 0.285731 82.901 0.288521 82.9149 0.288521V0.280151C82.9149 0.280151 82.8982 0.285731 82.887 0.285731Z" fill="#D9D9D9"/>
<path d="M87.9287 5.76653H87.9315C87.9092 6.11047 87.8813 6.43222 87.8534 6.65412C87.8534 6.67076 87.8534 6.69018 87.8479 6.70682C87.8479 6.74288 87.8367 6.77616 87.8339 6.80667C87.8283 6.84273 87.8228 6.87324 87.8172 6.89543C87.8116 6.91762 87.806 6.93427 87.8032 6.94536L87.6778 6.962L87.516 6.98697L87.4268 7.00083L87.3069 7.01748H87.279C86.0938 7.20331 70.0597 7.17003 70.0597 7.08405C69.7669 7.40302 69.8868 35.9001 69.9174 35.8696C69.7306 35.7698 62.9154 35.7781 63.0576 35.6782C62.9349 35.7698 62.8066 29.4818 62.7508 27.2905V27.2794C62.7508 27.1935 62.7508 27.113 62.7453 27.0409C62.7536 26.9771 62.762 26.8024 62.7704 26.5389C62.8484 24.2949 62.9349 15.5522 62.9433 14.9947V14.9669C62.9321 10.8896 62.9516 7.21164 63.0492 7.13952C62.9684 7.05076 53.0048 7.03412 51.9591 7.07572C51.7807 7.0674 51.5604 7.05631 51.368 7.03689C51.368 7.03689 51.354 7.03412 51.3484 7.03412C51.262 7.0258 51.1811 7.01193 51.1142 7.00083H51.1086C50.4171 7.01193 44.9208 7.21164 44.8037 7.19222C44.6866 7.0785 44.8846 0.188599 45.0686 0.138672C45.0686 0.17473 46.5298 0.202467 48.8694 0.227431H49.0228C58.727 0.321737 82.9205 0.313416 82.8117 0.280131C82.8285 0.285679 82.8452 0.288452 82.8619 0.288452H82.887V0.285679C82.8926 0.285679 82.901 0.288452 82.9149 0.288452C82.9762 0.294 83.1185 0.302321 83.3081 0.307868C83.6678 0.321737 84.2004 0.324511 84.7052 0.285679C84.7107 0.282905 84.7191 0.282905 84.7247 0.282905C84.7247 0.280131 84.733 0.280131 84.7386 0.280131C84.7498 0.280131 84.7581 0.280131 84.7693 0.277357C84.7888 0.277357 84.8055 0.274584 84.8251 0.27181C84.8529 0.269036 84.8808 0.266263 84.9115 0.263489C85.6086 0.202467 87.8283 0.0499131 87.7893 0.296773C87.8283 0.208015 87.8311 1.23151 87.82 2.08582C87.82 2.09691 87.8981 2.87632 87.9482 3.54756C87.9482 3.56975 87.9482 3.58917 87.9538 3.60858C87.9538 3.65574 87.9594 3.70289 87.9622 3.74727C87.9706 3.88318 87.9789 4.01077 87.9845 4.11895V4.19384C87.9929 4.55165 87.9678 5.19237 87.9287 5.76653Z" fill="#D9D9D9"/>
<path d="M36.7476 4.45176C36.7504 4.39906 36.7308 4.41293 36.7197 4.43789C36.7308 4.44621 36.742 4.45731 36.7531 4.46563C36.7531 4.46563 36.7559 4.46563 36.7587 4.46286C36.7559 4.46286 36.7504 4.46008 36.7448 4.45454L36.7476 4.45176ZM11.0733 34.6603C11.0733 34.6603 11.0733 34.6603 11.0789 34.6603C11.0789 34.6603 11.0789 34.6603 11.0733 34.6603ZM6.92395 3.9941C6.92395 3.9941 6.93511 3.98578 6.94347 3.983C6.97972 3.96359 7.02155 3.9414 7.06617 3.91089C7.03271 3.92476 6.9853 3.95527 6.92395 3.9941ZM6.80126 4.06622C6.80126 4.06622 6.80126 4.06899 6.80126 4.07176C6.82078 4.0579 6.83751 4.0468 6.85424 4.03571C6.83751 4.04403 6.81799 4.05512 6.79847 4.06622H6.80126ZM3.17334 28.3417C3.17334 28.3417 3.16498 28.3417 3.1594 28.3445C3.21517 28.4111 3.27373 28.4777 3.3295 28.5414C3.27931 28.4832 3.22633 28.4166 3.17056 28.3417H3.17334ZM1.49463 10.676C1.72329 10.2239 1.96311 9.7967 2.18898 9.42503C1.93523 9.82721 1.69541 10.246 1.49463 10.676ZM0.540947 13.1668C0.540947 13.2084 0.538158 13.25 0.53537 13.2916C0.543736 13.25 0.552101 13.2028 0.563255 13.1584C0.557678 13.1584 0.549313 13.1612 0.540947 13.1668Z" fill="#D9D9D9"/>
<path d="M42.4948 21.7043C42.5115 21.6322 42.5282 21.5545 42.5422 21.4796C42.5478 21.4491 42.5561 21.413 42.5589 21.3798C42.5394 21.4879 42.5171 21.5961 42.4948 21.7043ZM13.7364 7.95499C13.7643 7.95499 13.7894 7.94944 13.8005 7.93557C13.8089 7.93002 13.8173 7.9217 13.8256 7.90783C13.795 7.9217 13.7671 7.93834 13.7364 7.95499ZM4.36406 6.39061C4.36406 6.39061 4.36964 6.38784 4.37243 6.38784C4.36406 6.38229 4.35848 6.38229 4.36406 6.39061Z" fill="#D9D9D9"/>
<path d="M35.292 21.3049C35.292 21.3383 35.292 21.3718 35.292 21.4053C35.2864 21.3635 35.2864 21.33 35.292 21.3049Z" fill="#D9D9D9"/>
<path d="M42.7681 18.7142C42.7681 18.6781 42.7681 18.6448 42.7681 18.6088C42.7681 18.5755 42.7681 18.5422 42.7681 18.5117C42.7681 18.4895 42.7681 18.4701 42.7681 18.4507C42.7681 18.4285 42.7681 18.4035 42.7681 18.3813V18.3397C42.7681 18.3203 42.7681 18.2981 42.7681 18.2815V18.2704C42.7681 18.2704 42.7681 18.2482 42.7681 18.2399C42.7681 18.2316 42.7681 18.2232 42.7681 18.2121C42.7681 18.19 42.7681 18.1678 42.7653 18.1511C42.7653 18.1095 42.7625 18.0873 42.7625 18.0873V18.079C42.7597 18.0263 42.7513 17.9764 42.7486 17.9264C43.0553 15.48 42.2801 13.0308 41.6527 10.9284C41.6527 10.9284 40.8774 9.61086 40.5149 9.20313C40.501 9.16984 40.487 9.13933 40.4731 9.10882C40.0492 8.19627 39.472 7.30313 38.7637 6.48489H38.7609C38.2422 5.81088 37.5925 5.10636 36.781 4.4684C36.7699 4.46008 36.756 4.44899 36.7476 4.44066C35.5513 3.51147 34.7064 2.92622 34.157 2.57118C34.1152 2.53512 34.0761 2.49907 34.0343 2.46023C33.8531 2.35761 33.6718 2.25775 33.4933 2.16622C33.393 2.11352 33.3455 2.08856 33.3455 2.08856H33.34C30.7271 0.73776 28.1505 0.185791 25.1751 0.19966C25.0133 0.271776 21.8762 0.29674 19.8545 0.246813C19.8545 0.246813 19.8517 0.246813 19.8489 0.246813C19.6788 0.235718 18.3041 0.144185 18.1591 0.124769C18.0336 0.113675 17.9193 0.110901 17.8161 0.110901H17.791C17.6125 0.113675 17.4619 0.124769 17.3337 0.144185C17.25 0.15528 17.1719 0.169149 17.1022 0.183017C17.1022 0.183017 17.0883 0.183017 17.0604 0.188565C17.0492 0.188565 17.0381 0.191339 17.0241 0.194112C17.013 0.194112 17.0018 0.196886 16.9851 0.19966C16.9711 0.19966 16.9572 0.205207 16.9405 0.207981C16.7899 0.232944 16.578 0.269002 16.4887 0.288418C16.4636 0.293966 16.433 0.29674 16.3967 0.29674C16.3326 0.29674 16.2545 0.291192 16.1848 0.282871C16.1653 0.280097 16.1485 0.277324 16.1318 0.27455C16.0677 0.266229 16.0119 0.257908 15.9896 0.255134C15.9226 0.249586 15.4597 0.32725 15.3064 0.316156H15.2841C15.1223 0.305061 14.9188 0.330024 14.7403 0.374403C14.7319 0.374403 14.7208 0.377177 14.7096 0.379951C14.704 0.379951 14.6957 0.385498 14.6873 0.385498C13.9902 0.535279 12.7325 0.893087 12.7325 0.893087C12.0577 1.0179 11.5112 1.27031 11.1096 1.37571C9.82686 1.88053 8.73654 2.52126 7.88603 3.27848C7.88603 3.27848 7.82468 3.33395 7.73266 3.41716C7.56813 3.55862 7.30322 3.78052 7.09687 3.91089C7.05225 3.93862 7.01042 3.96359 6.97417 3.983C6.96859 3.983 6.96023 3.98855 6.95465 3.9941C6.93513 4.00242 6.91282 4.01629 6.88772 4.0357C6.87099 4.0468 6.85426 4.06067 6.83474 4.07176C6.75109 4.13278 6.64791 4.21322 6.53916 4.3103C6.52242 4.32417 6.50569 4.33804 6.48617 4.35468C6.40809 4.42125 6.32722 4.49337 6.24636 4.56271C6.05673 4.7319 5.8699 4.90387 5.7249 5.03701C5.67749 5.07862 5.6273 5.12854 5.57989 5.1757C5.50739 5.24227 5.46835 5.28387 5.46835 5.28387C5.46835 5.28387 5.46277 5.28942 5.45719 5.29497C5.3819 5.35599 5.00266 5.67774 4.55649 6.1465C4.29716 6.42109 4.00993 6.74562 3.74223 7.10343C3.05904 8.01875 3.15942 7.98269 2.71604 8.67335C2.7021 8.69554 2.68537 8.71773 2.67143 8.74269C2.63796 8.79262 2.60171 8.84809 2.56267 8.90634C2.54315 8.93685 2.52085 8.97013 2.50133 9.00065C2.45671 9.06721 2.41209 9.13656 2.36747 9.2059C2.32286 9.27802 2.27545 9.35291 2.22805 9.4278C2.00217 9.79947 1.76236 10.2266 1.5337 10.6787C1.12936 11.4887 0.766843 12.379 0.602319 13.1612C0.591164 13.2056 0.582799 13.2527 0.574433 13.2944V13.2999C0.493565 13.7437 0.443371 14.4732 0.415485 15.2637C0.323463 16.1624 0.220286 17.0888 0.15615 17.8737C0.186824 18.6421 -0.0223179 19.244 0.0641273 19.6572C0.0641273 19.6572 0.0641273 19.6767 0.0585502 19.7099C0.0529731 19.7904 0.047396 19.9596 0.0780701 20.1537C0.395965 22.3838 1.3385 24.6832 2.36747 26.8495C2.37026 26.8495 2.37026 26.855 2.37026 26.855C2.39536 26.9133 2.82759 27.8009 3.2152 28.3417C3.26818 28.4166 3.32395 28.4832 3.37414 28.5414C3.37693 28.547 3.38251 28.5525 3.38809 28.5553C3.39924 28.5692 3.41597 28.5858 3.42991 28.6025C4.02667 29.282 4.63736 29.9172 5.26757 30.5191C5.32056 30.5718 5.37633 30.6245 5.42652 30.6744C5.45998 30.7049 5.49066 30.7354 5.52133 30.766C5.58826 30.827 5.65518 30.888 5.72211 30.9546C5.74163 30.9712 5.76394 30.9879 5.78346 31.0073C5.80576 31.0267 5.82807 31.0461 5.85317 31.0683C6.77339 31.9032 7.74939 32.6715 8.82019 33.3982C9.51454 33.7671 9.70695 33.8392 10.1671 34.1111C10.181 34.1194 10.1894 34.1249 10.1894 34.1249C10.1894 34.1249 10.4682 34.3746 11.1096 34.6575C11.1096 34.6575 11.1096 34.6575 11.1124 34.6575C11.5586 34.8544 12.1832 35.068 13.0114 35.2233C14.5953 35.5645 16.1764 35.8696 18.1423 35.7586C17.9165 35.803 24.8879 35.6893 25.1862 35.6671C26.8761 35.7115 28.3066 35.7475 29.9519 35.1734C29.9519 35.1734 30.3534 35.0624 30.7801 34.9765C30.7801 34.9765 30.7857 34.9765 30.7884 34.9765C30.8442 34.9654 30.9028 34.9543 30.9613 34.9432C30.9641 34.9432 30.9725 34.9432 30.9753 34.9432C31.4577 34.8572 32.1074 34.6103 32.1074 34.6103C34.1542 33.3927 35.8636 32.3109 37.5089 30.5191C37.8379 30.128 38.3426 29.9006 38.4793 29.7036C38.5016 29.6842 38.5211 29.6648 38.5378 29.6482H38.5434L38.5964 29.5927L38.6577 29.5289L38.878 29.3014L39.0732 29.099C39.4107 28.6774 39.7118 28.3556 39.9237 27.9978H39.9293C39.9293 27.9978 39.9293 27.9895 39.9321 27.9867C39.96 27.9479 40.1217 27.7204 40.4145 27.1962C40.4201 27.1823 40.4285 27.1712 40.4368 27.1574C40.6069 26.8467 40.8245 26.4362 41.0838 25.9064C41.82 24.4031 42.1992 23.2769 42.5283 21.6959C42.5534 21.5877 42.5729 21.4796 42.5924 21.3742C42.6091 21.291 42.6259 21.2078 42.637 21.1245C42.6454 21.0718 42.651 21.0219 42.6621 20.9748C42.6677 20.9276 42.6733 20.8805 42.6816 20.8333C42.6872 20.7806 42.6928 20.7307 42.7012 20.678C42.7067 20.6364 42.7123 20.5948 42.7151 20.5532C42.7179 20.5143 42.7235 20.4755 42.7262 20.4339C42.7988 19.8403 42.8211 19.2384 42.7988 18.6365V18.7086L42.7681 18.7142ZM4.36408 6.39336C4.36408 6.39336 4.36408 6.38226 4.37245 6.38781C4.37245 6.38781 4.36687 6.38781 4.36408 6.39336ZM35.6879 20.6863C35.6879 20.6863 35.3533 21.058 35.292 21.3048C35.292 21.3381 35.292 21.3714 35.292 21.4047C35.2864 21.7403 35.1721 21.94 34.949 22.259C34.553 23.4655 33.8475 24.7359 32.6819 25.5958C31.7059 26.7635 30.649 27.4625 29.2324 27.9728C27.827 28.5387 26.6084 28.927 24.913 28.9492C24.8488 28.8687 18.1395 28.8077 17.9527 28.952C15.8557 28.8271 14.0878 28.4444 12.423 27.5152C10.9283 26.475 9.51733 25.2518 8.53297 23.4434C8.53018 23.4434 8.52461 23.4461 8.51903 23.4489C8.51345 23.4406 8.50788 23.4323 8.5023 23.4212C8.49393 23.4073 8.48557 23.3934 8.4772 23.3796C8.44374 23.3269 8.41028 23.2714 8.3796 23.2187C8.34893 23.1688 8.32104 23.1188 8.29595 23.0772C8.26527 23.0245 8.23739 22.9829 8.21508 22.9469C8.20671 22.9302 8.19835 22.9136 8.18998 22.9025C7.62669 21.8679 7.34784 20.6724 7.17495 19.4991V19.4908C7.1136 18.5505 7.14148 17.7628 7.14706 17.5908V17.5575C7.161 17.3773 7.14985 17.2136 7.19168 17.0389C7.22514 16.731 7.25581 15.8406 7.25581 15.7879C7.42313 15.1056 7.64063 14.4732 8.05613 13.7298C8.24575 13.0392 8.59711 12.4456 9.05443 12.06C9.05443 12.06 10.3037 10.5456 10.5491 10.246C10.5519 10.246 10.5519 10.2433 10.5547 10.2405C11.4442 9.30853 12.621 8.48474 13.6305 8.01598C13.6639 7.99379 13.703 7.9716 13.7392 7.95218C13.7699 7.93554 13.7978 7.9189 13.8284 7.90503C14.1826 7.73029 14.5814 7.6554 14.9801 7.58051C14.9801 7.58051 15.0024 7.57773 15.047 7.56664C15.0582 7.56664 15.0721 7.56109 15.0889 7.55832C15.1028 7.55832 15.1112 7.55277 15.1279 7.54999C15.1669 7.5389 15.2144 7.52781 15.2673 7.51671C15.5183 7.46124 15.9031 7.3697 16.2656 7.28094C16.2684 7.28094 16.2712 7.28094 16.2768 7.28094C16.3995 7.25043 16.5891 7.23102 16.8094 7.21715C17.1217 7.19496 17.501 7.18664 17.8663 7.18664C18.5495 7.18387 19.1713 7.19773 19.1713 7.19773H19.1936C19.3554 7.19773 20.2979 7.19773 21.101 7.19773C21.1484 7.19773 21.1958 7.19773 21.2404 7.19773C21.5081 7.19773 21.7535 7.19496 21.9376 7.18941V7.19496C21.8874 7.20883 24.8739 7.06737 25.0468 7.07846C27.0574 7.20883 28.7974 7.64708 30.4956 8.65393C32.1381 9.69407 33.577 10.8507 34.5558 12.6425C35.4732 14.1181 36.0477 16.0958 35.8971 17.957C35.964 18.8473 35.9389 19.9651 35.6879 20.6863Z" fill="#D9D9D9"/>
<path d="M110.145 20.8389C110.145 20.8807 110.14 20.9198 110.14 20.9561C110.14 20.9142 110.145 20.8724 110.145 20.8389Z" fill="#D9D9D9"/>
<path d="M110.273 13.5856V13.5912L110.268 13.5884C110.268 13.5302 110.268 13.4636 110.268 13.3859C110.268 13.422 110.273 13.4913 110.279 13.5884C110.279 13.5884 110.279 13.5884 110.279 13.5856H110.273Z" fill="#D9D9D9"/>
<path d="M135.237 7.16725H135.231V7.15893L135.159 6.42389V6.39893C135.05 4.45733 135.108 0.085963 135.019 0.149758C135 0.130342 134.891 0.1137 134.746 0.105379C134.746 0.105379 134.592 0.0499047 133.499 0.146985H133.488C133.268 0.166401 133.009 0.180269 132.73 0.18859C132.42 0.202459 132.086 0.21078 131.768 0.213554C130.962 0.224649 130.256 0.219101 130.256 0.219101H129.944L128.848 0.238517C128.547 0.241291 128.229 0.244065 127.903 0.246838V0.252386H126.865L126.174 0.260707C123.946 0.269028 121.835 0.216327 121.087 0.246838C121.087 0.246838 121.004 0.246838 120.845 0.230196C120.837 0.230196 120.825 0.227422 120.814 0.224649C120.722 0.208006 120.521 0.224649 120.354 0.191364C120.349 0.191364 120.346 0.18859 120.343 0.18859C119.966 0.110926 118.341 0.185817 117.005 0.219101C116.707 0.224649 116.422 0.230196 116.171 0.230196H116.076C115.959 0.230196 115.848 0.227422 115.747 0.224649C115.72 0.224649 115.692 0.221875 115.661 0.221875C115.594 0.216327 115.522 0.213554 115.441 0.21078C115.418 0.208006 115.393 0.208006 115.368 0.208006C111.938 0.0887367 97.0724 0.271802 95.2097 0.282896H95.0005C94.8611 0.282896 94.6575 0.282896 94.4261 0.280123C94.1695 0.271802 93.8795 0.263481 93.5895 0.244065C93.4389 0.238517 93.2856 0.224649 93.1434 0.21078C92.99 0.194138 92.845 0.177495 92.7139 0.155306H92.7083C92.0837 0.0415836 91.9499 0.191364 91.9443 0.482604C91.9443 0.488151 91.9443 0.496472 91.9443 0.504793V0.518662C91.9443 0.543625 91.9443 0.565815 91.9443 0.590779C91.9499 0.6518 91.9554 0.715595 91.961 0.784938C91.961 0.784938 91.9638 0.784938 91.961 0.790486C91.9666 0.82377 91.9694 0.854281 91.9722 0.887566C91.975 0.904208 91.9777 0.923624 91.9777 0.94304C91.9805 0.956908 91.9805 0.970777 91.9805 0.987419C92.0335 1.5061 92.1451 2.45749 92.1451 3.00945C92.1451 3.07048 92.145 3.12872 92.1423 3.17865C92.1423 3.23967 92.1339 3.30069 92.1283 3.36172C92.1283 3.41719 92.1172 3.46989 92.1144 3.52537C92.0865 3.78609 92.0502 4.05792 92.0447 4.45456C92.0419 4.49339 92.0419 4.535 92.0419 4.5766C92.0419 4.63208 92.0447 4.69032 92.0447 4.75412C92.0447 4.89003 92.053 5.03981 92.0614 5.20069V5.21456C92.0726 5.39207 92.0781 5.5474 92.0865 5.69441C92.0976 5.69441 92.1032 5.68886 92.1116 5.68609C92.1116 5.69163 92.1116 5.69996 92.1144 5.7055C92.1032 5.69996 92.0949 5.69718 92.0865 5.69718C92.1032 6.19645 92.0949 6.50988 92.0558 6.75397C92.0056 6.90652 91.961 7.04243 91.9722 7.07294C91.9722 7.07294 93.1768 7.16448 94.2671 7.19776H94.2811C94.2811 7.19776 94.295 7.19221 94.2978 7.19776H94.3369C94.5934 7.20608 94.8416 7.20885 95.0675 7.20608C95.0814 7.20885 95.0926 7.20885 95.1037 7.20885C95.1288 7.20885 95.1511 7.20885 95.1734 7.20608C95.218 7.20608 95.2627 7.20331 95.3073 7.20331C96.7406 7.17557 104.208 7.07294 105.803 7.07849C105.979 7.07849 106.082 7.08126 106.099 7.08404L106.509 7.09791L107.069 7.11732C107.069 7.11732 109.035 7.07294 109.88 7.10068C110.025 7.10345 110.137 7.11177 110.201 7.1201C110.156 7.21718 110.131 7.35031 110.117 7.49732C110.117 7.49732 110.112 7.56389 110.109 7.66374C110.098 7.89119 110.109 8.13527 110.106 8.3433V8.35162C110.115 8.46257 110.128 8.63732 110.14 8.8398C110.154 9.02841 110.167 9.23921 110.181 9.45001V9.48607C110.201 9.80227 110.215 10.1129 110.215 10.3265V10.5734C110.215 11.0837 110.243 12.3264 110.26 13.1085C110.26 13.2028 110.265 13.2916 110.265 13.3693V13.3831C110.271 13.4192 110.273 13.4913 110.276 13.5912C110.276 13.716 110.282 13.7853 110.282 13.7853L110.29 14.2319C110.29 15.8157 110.24 19.133 110.159 20.7085V20.7529C110.159 20.7806 110.159 20.8084 110.154 20.8361C110.154 20.8749 110.154 20.9138 110.148 20.9526C110.148 20.972 110.142 20.9914 110.142 21.0164C110.142 21.0441 110.142 21.0691 110.142 21.0941C110.142 21.0996 110.142 21.1024 110.142 21.1079C110.14 21.144 110.14 21.18 110.137 21.2189C110.131 21.3381 110.123 21.4657 110.117 21.5989C110.106 21.8235 110.095 22.051 110.087 22.2507C110.078 22.3533 110.078 22.4449 110.075 22.5225C110.075 22.5447 110.075 22.5613 110.075 22.5808C110.075 22.6362 110.075 22.6945 110.073 22.7555C110.039 25.238 110.025 35.889 110.181 35.8863C110.273 35.8585 117.158 35.8724 117.289 35.767C117.117 35.8752 117.175 7.92725 117.259 7.1728C117.348 7.18944 117.789 7.18667 118.226 7.16725H118.282C118.282 7.16725 118.313 7.16725 118.332 7.16725C118.363 7.16448 118.399 7.1617 118.444 7.15893H118.469C118.494 7.15615 118.519 7.15615 118.544 7.15338C118.6 7.15061 118.667 7.14506 118.74 7.14229H118.77C119.225 7.1201 119.858 7.09236 120.201 7.11177C120.337 7.11732 120.608 7.12287 120.942 7.12564C121.277 7.13119 121.673 7.13396 122.063 7.13951C122.476 7.14229 122.881 7.14506 123.193 7.14506H123.318C123.433 7.14506 123.53 7.14783 123.606 7.14783H123.776C125.061 7.15061 126.977 7.11177 128.165 7.08958H128.38L129.032 7.07572H129.174C129.174 7.07572 129.197 7.07294 129.211 7.07294C129.216 7.06185 129.222 7.0563 129.222 7.06185C129.227 7.05353 129.23 7.05353 129.227 7.07294C129.364 7.0674 129.559 7.06462 129.765 7.06185C129.899 7.05907 130.036 7.0563 130.173 7.0563H130.605C130.976 7.05907 132.518 7.1201 133.736 7.15338H133.767C134.567 7.20053 135.195 7.25046 135.29 7.29484C135.273 7.27542 135.262 7.23104 135.248 7.17002L135.237 7.16725ZM93.6648 7.15615C93.6648 7.15615 93.6564 7.15338 93.6537 7.15061C93.6537 7.15061 93.6537 7.14783 93.6592 7.15061C93.6564 7.15061 93.6564 7.14783 93.6564 7.14783C93.6648 7.14506 93.6732 7.14229 93.6843 7.13951C93.7011 7.13674 93.7206 7.13119 93.7429 7.12842C93.7094 7.15338 93.6815 7.16447 93.6648 7.15615Z" fill="#D9D9D9"/>
<path d="M152.933 13.1557C152.933 13.1557 152.938 13.1529 152.941 13.1502C152.947 13.1418 152.952 13.1363 152.958 13.1307C152.949 13.1363 152.938 13.1474 152.933 13.1557Z" fill="#D9D9D9"/>
<path d="M139.13 35.9918L139.124 35.998C139.124 35.998 139.124 35.9886 139.13 35.9918Z" fill="#D9D9D9"/>
<path d="M139.146 35.975C139.146 35.975 139.146 35.9777 139.146 35.9804C139.143 35.9804 139.14 35.9858 139.14 35.9858C139.14 35.9858 139.135 35.9858 139.132 35.9884C139.135 35.9831 139.14 35.9777 139.148 35.975H139.146Z" fill="#D9D9D9"/>
<path d="M152.958 13.1307C152.958 13.1307 152.947 13.1419 152.941 13.1503C152.941 13.1531 152.936 13.1558 152.933 13.1558C152.938 13.1475 152.949 13.1363 152.958 13.1307Z" fill="#D9D9D9"/>
<path d="M175.277 13.0559C175.135 13.0836 172.508 13.103 170.431 13.1169H170.37C169.212 13.1058 168.167 13.0975 167.347 13.0891H167.338C166.566 13.0836 165.992 13.078 165.71 13.078H165.707C165.3 13.0531 157.841 13.0669 154.79 13.0669C154.631 13.0669 154.478 13.0669 154.327 13.0642H153.504C151.812 13.0614 149.913 13.0919 148.75 13.1141C148.46 13.1169 148.217 13.1224 148.033 13.1252C147.997 13.1252 147.966 13.128 147.936 13.128C147.913 13.128 147.894 13.128 147.872 13.128H147.654C147.654 13.128 147.456 13.1335 147.219 13.1418C147.188 13.1418 147.158 13.1418 147.127 13.1418C147.11 13.1446 147.091 13.1446 147.077 13.1446C147.063 13.1474 147.046 13.1474 147.032 13.1474H146.957C146.583 13.1502 146.302 13.1557 146.31 13.1502C146.321 13.0503 146.31 12.6453 146.316 12.3458V12.049C146.316 11.5802 146.313 10.7759 146.31 10.3127V9.94098C146.296 8.99514 146.196 7.02026 146.463 7.17281C146.293 7.21164 148.644 7.15617 150.958 7.12011V7.12843L154.494 7.09237H154.556C154.556 7.09237 154.84 7.10069 155.27 7.10069C155.543 7.10347 155.877 7.10624 156.234 7.10624H156.251C156.826 7.10624 157.461 7.10347 158.008 7.09237H158.251C158.298 7.09237 158.348 7.09237 158.398 7.09237C158.708 7.08683 159.031 7.09237 159.352 7.09515H159.425C159.642 7.10069 159.86 7.10347 160.063 7.10902C160.805 7.12566 161.404 7.15062 161.508 7.1534H161.524C161.524 7.1534 161.597 7.1534 161.714 7.14785C161.876 7.1423 162.124 7.13121 162.38 7.12288C162.676 7.11179 162.98 7.10624 163.172 7.10624C163.49 7.10624 165.704 7.12288 167.386 7.12843C167.397 7.13121 167.405 7.13121 167.414 7.12843C168.13 7.13953 168.789 7.14507 169.237 7.13398H169.276C169.594 7.13398 169.937 7.12566 170.219 7.12288C170.236 7.15062 173.275 7.07018 174.631 7.07573H174.639C174.954 7.07851 175.18 7.08128 175.258 7.08405C175.063 6.92872 174.99 3.89151 175.079 2.70714L175.099 2.51298V2.50465C175.099 2.47414 175.105 2.38816 175.11 2.26057C175.138 1.66145 175.211 0.208022 175.208 0.174737C175.205 0.130358 175.085 0.116489 174.767 0.130358C174.717 0.133131 174.617 0.138679 174.486 0.144226C174.435 0.147 174.385 0.149774 174.327 0.149774H174.304C174.162 0.158095 174 0.163642 173.83 0.171963C173.551 0.180284 173.247 0.194153 172.974 0.202474C172.941 0.205248 172.91 0.205248 172.879 0.208022H172.829C172.74 0.213569 172.642 0.216343 172.547 0.22189C172.458 0.224664 172.38 0.227438 172.313 0.230211C172.227 0.232985 172.163 0.235759 172.115 0.235759C172.079 0.238532 172.059 0.238532 172.059 0.238532H172.007C171.973 0.238532 171.923 0.241306 171.861 0.24408H171.825C171.783 0.246854 171.739 0.246854 171.7 0.246854C171.638 0.246854 171.571 0.252401 171.496 0.252401C171.407 0.255175 171.321 0.257948 171.24 0.257948C171.215 0.257948 171.189 0.260722 171.164 0.260722C171.095 0.260722 171.025 0.260722 170.95 0.263496C170.922 0.263496 170.891 0.263496 170.863 0.26627C170.774 0.26627 170.685 0.26627 170.59 0.269043H170.526C170.356 0.271817 170.183 0.271817 170.004 0.274591H169.48C169.254 0.274591 169.009 0.269043 168.758 0.26627C168.588 0.263496 168.415 0.260722 168.242 0.255175C168.15 0.255175 168.055 0.249627 167.963 0.249627C167.589 0.241306 167.244 0.232985 166.97 0.227438H166.917C166.867 0.227438 166.823 0.227438 166.781 0.22189C166.764 0.22189 166.747 0.219116 166.731 0.219116C166.655 0.216343 166.591 0.213569 166.541 0.213569C166.452 0.210795 166.401 0.208022 166.401 0.208022C164.357 0.141453 161.229 0.069336 160.303 0.152547H160.295C160.267 0.155321 160.136 0.160868 159.943 0.16919C159.879 0.171963 159.809 0.174737 159.731 0.174737H159.728C159.489 0.185832 159.19 0.196927 158.878 0.208022H158.853C158.348 0.1997 157.629 0.219116 157.015 0.241306H157.007H156.973C156.628 0.232985 155.886 0.180284 155.164 0.130358C155.125 0.12481 155.088 0.122037 155.052 0.122037C154.386 0.0721097 153.753 0.0221829 153.479 0.00831436C153.421 0.00276693 153.382 0.00276694 153.357 0.00276694H153.348C153.156 0.00831436 152.955 0.0138618 152.955 0.0138618H152.927C151 0.0360515 144.606 0.0221829 142.827 0.0332778C142.827 0.0332778 142.626 0.0415989 142.384 0.0526937C142.214 0.0637886 142.024 0.0721097 141.865 0.0859783C141.494 0.113715 140.119 0.0859783 140.005 0.0859783H139.999C139.573 0.0526937 139.227 0.0194092 139.129 -0.0055542C139.291 0.0138618 139.18 17.1498 139.174 17.8877V17.9126C139.177 19.3383 139.182 21.1107 139.202 22.4365C139.205 22.7833 139.213 23.0967 139.219 23.3685C139.219 23.4157 139.219 23.4656 139.224 23.5127C139.263 24.4503 139.277 25.8759 139.286 27.0381V27.0853C139.3 27.4098 139.302 27.9285 139.3 28.5498V28.6164C139.277 31.2791 139.129 35.8003 139.124 35.9889C139.124 35.9861 139.124 35.9834 139.129 35.9861C139.129 35.9861 139.138 35.9723 139.146 35.9695H139.149L139.143 35.975C139.141 35.975 139.138 35.9806 139.138 35.9806C139.138 35.9861 139.129 35.9917 139.124 35.9944C139.124 35.9944 140.515 35.8807 141.712 35.8419C142.138 35.828 142.54 35.8253 142.844 35.8419H142.855C143.022 35.8502 143.243 35.8558 143.496 35.8613H143.666C143.825 35.8641 143.993 35.8641 144.166 35.8641H144.199C144.528 35.8669 144.877 35.8669 145.22 35.8641H145.259C145.755 35.878 146.371 35.8669 146.89 35.8502H146.915C147.364 35.8419 147.657 35.8391 147.657 35.8391C147.657 35.8391 148.203 35.8225 148.998 35.8058H149.112C149.394 35.8003 149.701 35.7947 150.024 35.7864C150.295 35.7836 150.571 35.7753 150.85 35.7725C151.413 35.7642 151.985 35.7559 152.509 35.7531C153.357 35.7476 154.439 35.7448 155.468 35.7504C155.495 35.7476 155.523 35.7476 155.554 35.7504C156.906 35.7531 158.159 35.7615 158.644 35.7725C158.66 35.7753 158.677 35.7753 158.688 35.7753H158.741C158.764 35.7781 158.786 35.7781 158.808 35.7781C158.903 35.7781 159.003 35.7753 159.118 35.7725C159.19 35.7698 159.268 35.767 159.349 35.7642H159.355C159.383 35.7615 159.413 35.7615 159.444 35.7587C159.614 35.7504 159.801 35.7393 159.993 35.7282C160.292 35.7143 160.607 35.7032 160.928 35.7032H161.011L161.014 35.706C161.087 35.706 161.162 35.7088 161.237 35.7088C161.307 35.7115 161.377 35.7143 161.446 35.7198C161.597 35.7282 161.747 35.7393 161.892 35.7587C161.901 35.7587 161.912 35.7615 161.912 35.7615C161.945 35.7615 161.976 35.7642 162.001 35.7725C162.01 35.7725 162.012 35.7753 162.018 35.7753C162.076 35.7809 162.135 35.7864 162.194 35.792C162.431 35.8142 162.69 35.8336 162.952 35.8474C163.945 35.9029 164.988 35.9029 165.069 35.9029H165.074C165.478 35.8918 165.866 35.8752 166.148 35.8669C166.178 35.8669 166.206 35.8641 166.237 35.8641C166.268 35.8641 166.309 35.8613 166.354 35.8613C166.669 35.8585 167.21 35.8613 167.21 35.8613C167.408 35.8779 170.247 35.8807 171.758 35.8613H171.892C171.995 35.8613 172.104 35.8613 172.216 35.8585C172.308 35.8558 172.4 35.853 172.489 35.8502C172.514 35.8502 172.536 35.8502 172.556 35.8474C172.567 35.8474 172.578 35.8474 172.587 35.8447C172.681 35.8447 172.779 35.8419 172.868 35.8363C173.264 35.8225 173.599 35.8058 173.694 35.8031C173.713 35.8003 173.721 35.8003 173.721 35.8003C174.282 35.7393 174.923 35.6893 174.996 35.6838C174.996 35.6977 174.999 35.6949 175.001 35.6838C175.013 35.6561 175.04 35.5645 175.071 35.4536C175.071 35.4536 175.071 35.4453 175.074 35.4453C175.096 35.3204 175.116 35.1568 175.127 34.9599C175.132 34.8766 175.138 34.7879 175.141 34.6908V34.6409C175.169 34.075 175.169 33.3622 175.16 32.7242V32.702C175.155 32.2361 175.146 31.8117 175.141 31.5094C175.138 31.465 175.138 31.4261 175.135 31.3873C175.132 31.3679 175.132 31.3485 175.132 31.3291C175.132 31.1599 175.124 31.06 175.124 31.06C175.082 29.9588 175.018 28.805 175.018 28.7079C174.884 28.7329 173.585 28.7772 172.6 28.8494H172.584C172.068 28.8688 171.549 28.8882 171.028 28.8965C170.715 28.9076 170.406 28.9104 170.094 28.9159C169.681 28.9215 169.265 28.927 168.858 28.927H168.853C167.81 28.9298 166.797 28.9243 165.852 28.9159H165.844C164.698 28.8993 163.658 28.8826 162.799 28.8743H162.782C162.467 28.8716 162.18 28.8688 161.918 28.8688H161.714C161.014 28.8688 160.197 28.8743 159.33 28.8771H158.931C157.654 28.8771 156.29 28.8743 155.055 28.8494H155.013C154.508 28.8299 153.948 28.8189 153.485 28.805H153.463C153.421 28.8022 153.379 28.8022 153.337 28.8022C153.298 28.7994 153.256 28.7967 153.214 28.7967C153.125 28.7967 153.042 28.7967 152.963 28.7883C152.941 28.7856 152.913 28.7856 152.891 28.7856C152.863 28.7828 152.835 28.7828 152.807 28.7828C152.707 28.78 152.607 28.7772 152.501 28.7745C151.243 28.744 149.732 28.7356 148.516 28.7356H148.173C147.077 28.7384 146.296 28.744 146.296 28.744C146.296 28.744 146.316 28.1726 146.341 27.3127C146.341 27.3016 146.341 27.2905 146.341 27.2767C146.396 25.2075 146.469 21.5379 146.313 20.1704C146.313 20.1676 146.31 20.1676 146.313 20.1649H146.346L146.36 20.1704C146.36 20.1704 146.55 20.1704 146.857 20.176H147.057C147.147 20.1787 147.244 20.1815 147.347 20.1815H147.464C147.503 20.1815 147.542 20.1843 147.582 20.1843C147.621 20.1843 147.66 20.1871 147.699 20.1871H147.813C147.936 20.1898 148.064 20.1898 148.192 20.1926C148.332 20.1954 148.477 20.1954 148.622 20.1982C149.718 20.2203 150.883 20.2342 151.382 20.2203H151.405C151.578 20.2203 151.848 20.2148 152.171 20.2093C152.269 20.2065 152.372 20.2037 152.481 20.2009H152.484C152.785 20.1954 153.12 20.1871 153.46 20.1787C153.702 20.1704 153.948 20.1649 154.188 20.1593H154.218C154.243 20.1593 154.266 20.1566 154.288 20.1566C154.531 20.151 154.768 20.1427 154.988 20.1371H155.027C155.783 20.1149 156.349 20.0983 156.349 20.0983H156.354C159.218 20.0817 165.771 20.0622 168.635 20.1039L169.904 20.0928H170.59L172.051 20.0872H172.349C172.609 20.0872 172.991 20.0844 173.328 20.0817H173.677C173.777 20.0761 173.864 20.0761 173.928 20.0761C173.947 20.0761 173.967 20.0761 173.981 20.0761C174 20.0761 174.02 20.0761 174.039 20.0733C174.07 20.0733 174.101 20.0706 174.134 20.065C174.151 20.065 174.17 20.065 174.19 20.0622C174.237 20.0567 174.285 20.0512 174.335 20.0456L174.527 20.0206C174.55 20.0151 174.566 20.0123 174.586 20.0095C174.84 19.9707 175.057 19.9291 175.057 19.9291C175.074 19.8625 175.088 19.7322 175.102 19.5463C175.105 19.4964 175.11 19.4465 175.113 19.391C175.113 19.3022 175.121 19.2079 175.124 19.1053C175.135 18.8168 175.141 18.4674 175.132 18.0818C175.127 17.5104 175.102 16.8503 175.046 16.1707C175.026 15.5411 175.018 15.0474 175.024 14.9891C175.049 15.0224 175.049 14.9447 175.015 14.9725C175.015 14.9226 175.018 14.8754 175.021 14.8283C175.057 13.8796 175.213 13.2722 175.236 13.189C175.236 13.1834 175.236 13.1807 175.236 13.1807C175.247 13.1252 175.261 13.0808 175.275 13.0531L175.277 13.0559ZM152.927 13.1613V13.1585C152.927 13.1613 152.927 13.1613 152.927 13.1613ZM152.941 13.1502C152.941 13.1502 152.936 13.1557 152.933 13.1557C152.938 13.1474 152.95 13.1363 152.958 13.1307C152.952 13.1363 152.947 13.1418 152.941 13.1502Z" fill="#D9D9D9"/>
<path d="M215.932 13.0559C215.918 13.0836 215.907 13.128 215.893 13.1835C215.893 13.1835 215.893 13.1863 215.893 13.1918C215.871 13.275 215.714 13.8825 215.678 14.8311C215.678 14.8782 215.673 14.9254 215.673 14.9753C215.706 14.9476 215.706 15.0252 215.681 14.9919C215.675 15.0502 215.684 15.5439 215.706 16.1735C215.759 16.8531 215.784 17.5132 215.792 18.0846C215.798 18.4702 215.795 18.8197 215.784 19.1081C215.778 19.2108 215.773 19.3051 215.77 19.3938C215.77 19.4493 215.765 19.4992 215.759 19.5491C215.745 19.735 215.731 19.8653 215.714 19.9319C215.714 19.9319 215.5 19.9735 215.246 20.0124C215.226 20.0151 215.207 20.0179 215.185 20.0235C215.12 20.0318 215.056 20.0401 214.992 20.0484C214.942 20.054 214.895 20.0595 214.847 20.0651C214.828 20.0678 214.808 20.0678 214.791 20.0678C214.761 20.0734 214.727 20.0762 214.697 20.0762C214.677 20.0789 214.657 20.0789 214.638 20.0789C214.624 20.0789 214.604 20.0789 214.585 20.0789C214.521 20.0789 214.434 20.0789 214.334 20.0845H213.985C213.648 20.0872 213.266 20.09 213.009 20.09H212.708L211.247 20.0956H210.561L209.292 20.1067C206.428 20.0651 199.875 20.0845 197.011 20.1011H197.006C197.006 20.1011 196.443 20.1178 195.684 20.1399H195.645C195.425 20.1455 195.188 20.1538 194.945 20.1594C194.926 20.1594 194.901 20.1621 194.875 20.1621H194.845C194.605 20.1677 194.36 20.1732 194.117 20.1816C193.777 20.1899 193.442 20.1982 193.141 20.2037C193.032 20.2065 192.929 20.2093 192.834 20.2121C192.508 20.2176 192.24 20.2232 192.065 20.2232H192.042C191.471 20.2259 189.742 20.2065 188.473 20.1899H188.359C188.32 20.1899 188.281 20.1871 188.241 20.1871C188.202 20.1871 188.163 20.1843 188.124 20.1843H188.007C187.904 20.1843 187.809 20.1816 187.717 20.1788H187.516C187.21 20.1732 187.02 20.1732 187.02 20.1732L186.97 20.151C186.97 20.151 186.97 20.1649 186.973 20.1732C187.129 21.5407 187.056 25.2103 187.001 27.2795V27.3155C186.975 28.1754 186.956 28.7468 186.956 28.7468C186.956 28.7468 187.737 28.7412 188.833 28.7385H189.176C190.391 28.7385 191.903 28.7468 193.16 28.7773C193.266 28.7801 193.37 28.7828 193.467 28.7856C193.495 28.7856 193.526 28.7856 193.551 28.7884C193.573 28.7884 193.601 28.7884 193.623 28.7912C193.701 28.7967 193.788 28.7967 193.877 28.7995C193.916 28.7995 193.958 28.8022 193.997 28.805C194.042 28.805 194.081 28.805 194.123 28.8078H194.145C194.608 28.8217 195.168 28.8328 195.673 28.8522H195.715C196.953 28.8771 198.314 28.8799 199.591 28.8799H199.992C200.86 28.8771 201.677 28.8716 202.374 28.8716H202.58C202.84 28.8716 203.127 28.8744 203.442 28.8771H203.459C204.318 28.8855 205.358 28.9021 206.504 28.9187H206.509C206.509 28.9187 206.509 28.916 206.515 28.9187C207.457 28.9271 208.472 28.9326 209.513 28.9298H209.518C209.925 28.9298 210.341 28.9243 210.754 28.9187C211.066 28.9132 211.375 28.9104 211.688 28.8993C212.209 28.891 212.728 28.8716 213.244 28.8522H213.26C214.248 28.7801 215.544 28.7357 215.678 28.7107C215.678 28.8078 215.742 29.9617 215.787 31.0628C215.787 31.0628 215.787 31.1627 215.795 31.3319C215.795 31.3513 215.795 31.3707 215.798 31.3901C215.798 31.429 215.798 31.4678 215.798 31.5122C215.804 31.8145 215.815 32.2416 215.82 32.7076V32.727C215.826 33.365 215.826 34.0778 215.801 34.6437V34.6936C215.795 34.7907 215.79 34.8794 215.784 34.9627C215.77 35.1596 215.751 35.3232 215.728 35.4481C215.728 35.4481 215.728 35.4536 215.728 35.4564C215.698 35.5673 215.67 35.6589 215.659 35.6866C215.656 35.6977 215.653 35.7005 215.653 35.6866C215.58 35.6921 214.939 35.7421 214.379 35.8031C214.379 35.8031 214.37 35.8031 214.351 35.8059C214.256 35.8086 213.921 35.8253 213.528 35.8392C213.436 35.8447 213.341 35.8475 213.244 35.8475C213.235 35.8502 213.224 35.8502 213.216 35.8502C213.193 35.853 213.171 35.853 213.146 35.853C213.057 35.8558 212.965 35.8586 212.873 35.8613C212.761 35.8641 212.652 35.8641 212.549 35.8641H212.415C210.904 35.8835 208.065 35.8808 207.867 35.8641C207.867 35.8641 207.326 35.8613 207.011 35.8641C206.967 35.8641 206.925 35.8669 206.894 35.8669C206.866 35.8669 206.836 35.8697 206.808 35.8697C206.523 35.878 206.136 35.8946 205.731 35.9057H205.726C205.648 35.9057 204.602 35.9057 203.609 35.8502C203.347 35.8364 203.088 35.817 202.854 35.7948C202.792 35.7892 202.734 35.7837 202.675 35.7781C202.669 35.7781 202.667 35.7754 202.658 35.7754C202.633 35.767 202.603 35.7643 202.569 35.7643C202.569 35.7643 202.558 35.7615 202.55 35.7615C202.405 35.7421 202.254 35.731 202.103 35.7227C202.034 35.7171 201.964 35.7143 201.894 35.7116C201.822 35.7116 201.744 35.7088 201.671 35.7088H201.585C201.267 35.706 200.949 35.7171 200.653 35.731C200.458 35.7421 200.274 35.7532 200.101 35.7615C200.071 35.7643 200.04 35.7643 200.012 35.767C199.928 35.7698 199.85 35.7726 199.778 35.7754C199.663 35.7781 199.563 35.7809 199.468 35.7809C199.446 35.7809 199.424 35.7809 199.401 35.7781H199.351C199.351 35.7781 199.32 35.7781 199.304 35.7754C198.818 35.7643 197.566 35.7559 196.214 35.7532C196.183 35.7504 196.158 35.7504 196.128 35.7532C195.099 35.7476 194.017 35.7504 193.169 35.7559C192.645 35.7587 192.073 35.767 191.51 35.7754C191.231 35.7781 190.955 35.7864 190.684 35.7892C190.361 35.7975 190.054 35.8031 189.772 35.8086H189.658C188.863 35.8253 188.317 35.8419 188.317 35.8419C188.317 35.8419 188.024 35.8447 187.575 35.853H187.55C187.031 35.8697 186.418 35.8808 185.919 35.8669H185.882C185.537 35.8697 185.188 35.8697 184.859 35.8669H184.825C184.653 35.8669 184.485 35.8669 184.326 35.8641H184.156C183.902 35.8586 183.685 35.853 183.515 35.8447H183.504C183.2 35.8281 182.798 35.8308 182.372 35.8447C181.175 35.8835 179.784 35.9973 179.784 35.9973C179.784 35.9973 179.937 31.3402 179.959 28.6192V28.5526C179.962 27.9313 179.959 27.4126 179.946 27.0881V27.0409C179.937 25.8788 179.923 24.4531 179.884 23.5156C179.884 23.4684 179.879 23.4185 179.879 23.3713C179.873 23.0995 179.865 22.7861 179.862 22.4394C179.845 21.1135 179.837 19.3411 179.834 17.9154V17.8905C179.84 17.1527 179.954 0.0166694 179.789 -0.00274658C179.887 0.0222168 180.233 0.0555014 180.659 0.0887859H180.665C180.779 0.0887859 182.154 0.116523 182.525 0.0887859C182.684 0.0749173 182.876 0.0665962 183.044 0.0555014C183.286 0.0444065 183.487 0.0360854 183.487 0.0360854C185.266 0.0249905 191.66 0.0360854 193.587 0.0166694H193.615C193.615 0.0166694 193.816 0.011122 194.008 0.00557455H194.017C194.042 0.00557455 194.084 0.00557455 194.139 0.011122C194.413 0.0249905 195.048 0.0749173 195.712 0.124844C195.748 0.124844 195.787 0.127618 195.824 0.133165C196.546 0.183092 197.288 0.235793 197.633 0.244114H197.667H197.675C198.289 0.221924 199.008 0.202508 199.513 0.210829H199.538C199.85 0.199734 200.149 0.188639 200.388 0.177545C200.467 0.177545 200.536 0.177545 200.6 0.171997C200.793 0.163676 200.924 0.158129 200.955 0.155355H200.96C201.886 0.0721436 205.017 0.14426 207.059 0.210829C207.059 0.210829 207.109 0.213603 207.198 0.216377C207.248 0.216377 207.312 0.21915 207.388 0.221924C207.404 0.221924 207.421 0.224698 207.438 0.224698C207.48 0.227471 207.527 0.227471 207.575 0.230245H207.628C207.901 0.235793 208.249 0.244114 208.62 0.252435C208.712 0.252435 208.807 0.257982 208.902 0.257982C209.072 0.26353 209.245 0.266303 209.418 0.269077C209.666 0.271851 209.914 0.277398 210.137 0.277398H210.664C210.84 0.274625 211.016 0.274625 211.183 0.271851H211.247C211.342 0.269077 211.431 0.269077 211.52 0.269077C211.551 0.266303 211.579 0.266303 211.61 0.266303C211.682 0.26353 211.755 0.26353 211.822 0.26353C211.847 0.26353 211.872 0.260756 211.9 0.260756C211.978 0.260756 212.064 0.257982 212.153 0.255209C212.229 0.255209 212.296 0.249661 212.357 0.249661C212.396 0.249661 212.441 0.249661 212.485 0.246887H212.519C212.58 0.246887 212.63 0.24134 212.664 0.24134H212.717C212.717 0.24134 212.739 0.24134 212.775 0.238566C212.82 0.238566 212.884 0.235793 212.97 0.233019C213.037 0.230245 213.115 0.227471 213.205 0.224698C213.302 0.21915 213.397 0.216377 213.486 0.210829H213.536C213.567 0.208055 213.598 0.208055 213.631 0.205282C213.905 0.196961 214.209 0.183092 214.487 0.174771C214.657 0.16645 214.822 0.160902 214.961 0.152581H214.984C215.042 0.152581 215.092 0.149808 215.143 0.147034C215.274 0.141486 215.374 0.135939 215.424 0.133165C215.742 0.119297 215.862 0.133165 215.865 0.177545C215.868 0.210829 215.795 1.66425 215.767 2.26338C215.762 2.39097 215.756 2.47695 215.756 2.50746V2.51578L215.737 2.70994C215.65 3.89432 215.72 6.93153 215.915 7.08686C215.837 7.08409 215.611 7.08131 215.296 7.07854H215.288C213.935 7.07299 210.893 7.15343 210.876 7.12569C210.595 7.12847 210.252 7.13679 209.934 7.13679H209.895C209.658 7.13956 208.938 7.13679 208.074 7.13124C208.065 7.13401 208.054 7.13401 208.046 7.13124C206.362 7.12569 204.15 7.10905 203.83 7.10905C203.637 7.10905 203.333 7.1146 203.04 7.12569C202.784 7.13401 202.533 7.14511 202.371 7.15066C202.254 7.1562 202.181 7.1562 202.181 7.1562H202.165C202.064 7.15343 201.462 7.12847 200.72 7.11182C200.517 7.10628 200.302 7.1035 200.082 7.09795H200.012C199.689 7.09241 199.365 7.08963 199.056 7.09518C199.005 7.09518 198.955 7.09518 198.908 7.09518H198.668C198.119 7.10628 197.483 7.10905 196.908 7.10905H196.892C196.535 7.10905 196.203 7.10628 195.93 7.1035C195.497 7.1035 195.213 7.09518 195.213 7.09518H195.152L191.618 7.13124V7.12292C189.301 7.15898 186.95 7.21445 187.12 7.17562C186.853 7.02306 186.953 8.99795 186.97 9.94378V10.3155C186.973 10.7787 186.973 11.583 186.973 12.0518V12.3486C186.964 12.6482 186.978 13.0531 186.97 13.153C186.959 13.1585 187.243 13.153 187.614 13.1502H187.689C187.703 13.1502 187.72 13.1502 187.734 13.1474C187.751 13.1474 187.767 13.1474 187.784 13.1446C187.815 13.1446 187.848 13.1446 187.876 13.1446C188.113 13.1363 188.3 13.128 188.311 13.1308H188.529C188.551 13.1308 188.571 13.1308 188.593 13.1308C188.624 13.1308 188.657 13.128 188.69 13.128C188.874 13.1252 189.117 13.1197 189.407 13.1169C190.573 13.0947 192.469 13.0642 194.162 13.067H194.987C195.135 13.0698 195.288 13.0698 195.447 13.0698C198.501 13.0698 205.957 13.0559 206.367 13.0808H206.37C206.649 13.0808 207.223 13.0864 207.996 13.0919H208.001C208.824 13.1003 209.87 13.1086 211.027 13.1197H211.088C213.166 13.1058 215.795 13.0864 215.935 13.0587H215.937L215.932 13.0559Z" fill="#D9D9D9"/>
<path d="M258 24.6028C257.897 25.9314 257.663 27.5568 257.175 28.9215C256.405 30.3471 255.725 31.6064 254.69 32.6798C254.339 32.8851 253.993 33.107 253.669 33.3511C253.658 33.3594 253.644 33.3733 253.63 33.3844C253.276 33.659 252.967 33.8809 252.649 34.0778C252.52 34.1527 252.392 34.2248 252.258 34.2941C251.706 34.5854 251.076 34.8267 250.139 35.1429C249.863 35.2372 249.562 35.3149 249.25 35.3814C249.177 35.3981 249.104 35.4119 249.035 35.423C248.968 35.4397 248.901 35.4508 248.837 35.4619H248.831C248.028 35.6061 247.192 35.6754 246.578 35.7115C246.299 35.7226 246.062 35.7337 245.895 35.7392C245.719 35.742 245.616 35.742 245.613 35.742C243.703 35.7642 239.414 35.7503 236.932 35.742H236.905C236.255 35.7559 235.541 35.8086 234.852 35.853C234.841 35.853 234.83 35.8557 234.819 35.8557C234.763 35.8585 234.707 35.8613 234.651 35.8668C234.431 35.8807 234.214 35.8946 234.004 35.9057H233.977C233.767 35.9168 233.564 35.9251 233.371 35.9279H232.903C232.858 35.9251 232.814 35.9223 232.769 35.9223C232.011 35.8973 230.971 35.7947 230.365 35.7309C230.354 35.7281 230.34 35.7281 230.329 35.7254C230.282 35.7226 230.237 35.717 230.198 35.7143C230.103 35.7032 230.025 35.6949 229.969 35.6865C229.953 35.6838 229.936 35.6838 229.922 35.681C229.889 35.6754 229.872 35.6754 229.872 35.6754C228.519 35.473 227.248 34.9238 226.099 34.308C224.518 33.4676 223.132 32.0641 222.056 30.2306C222.056 30.2279 222.056 30.2223 222.047 30.2196L221.98 30.1031L221.969 30.0975C221.852 29.9172 221.743 29.7231 221.64 29.5206C221.526 29.2959 221.42 29.0601 221.322 28.8244C221.185 28.4999 221.068 28.1753 220.962 27.8674C220.954 27.8369 220.764 27.3155 220.728 27.2073C220.611 26.8467 220.536 26.5277 220.486 26.206C220.486 26.1949 220.486 26.1894 220.486 26.181C220.483 26.1755 220.483 26.1672 220.483 26.1616C220.407 25.654 220.41 25.1381 220.474 24.4475C221.916 24.5224 222.298 24.5556 223.19 24.5251C223.333 24.5251 223.492 24.5168 223.667 24.5085C223.706 24.5057 223.748 24.5057 223.79 24.5029C224.01 24.4946 224.256 24.4863 224.512 24.4807C224.699 24.4752 224.894 24.4724 225.089 24.4669H225.112C226.224 24.4475 227.334 24.4475 227.334 24.4475C227.541 25.6013 227.937 26.7302 228.662 27.518C229.387 28.1531 230.028 28.5636 230.826 28.6801C230.828 28.6801 230.837 28.6801 230.845 28.6829C231.051 28.7218 231.386 28.7634 231.542 28.78C231.592 28.7855 231.626 28.7883 231.626 28.7883C232.172 28.8466 233.489 28.8382 235.627 28.8161H235.639C238.157 28.7911 241.821 28.7495 246.712 28.78C246.712 28.78 249.185 28.8466 250.326 26.8994C250.326 26.8994 250.326 26.8966 250.326 26.8939C250.457 26.6747 250.566 26.4279 250.655 26.1533C250.658 26.145 250.661 26.1367 250.663 26.1311C250.708 26.0146 250.747 25.8953 250.78 25.7761C250.786 25.7594 250.792 25.7456 250.797 25.7289C250.925 25.2907 251.009 24.8358 251.056 24.3587C251.02 23.7624 250.884 23.2021 250.621 22.7305C250.599 22.6889 250.574 22.6473 250.546 22.6057C250.108 21.8846 249.283 21.1773 249.283 21.1773C249.258 21.1523 249.23 21.1273 249.202 21.1051C249.191 21.094 249.174 21.0802 249.163 21.0691C249.121 21.0358 249.077 21.0025 249.038 20.972C248.996 20.9415 248.951 20.911 248.909 20.8832C248.276 20.4783 247.456 20.3091 246.151 20.2508C246.143 20.2508 246.135 20.2508 246.124 20.2481C244.735 20.187 244.869 20.0789 242.473 20.0123C242.406 20.0123 242.334 20.0067 242.259 20.004C242.194 20.004 242.128 20.004 242.058 20.0012C242.016 20.0012 241.966 19.9984 241.918 19.9984C239.537 19.9929 236.361 20.0705 231.86 19.9762C231.274 20.0178 230.694 19.9846 230.126 19.9124C230.126 19.9124 230.098 19.9069 230.047 19.9013C229.685 19.8459 228.168 19.5935 227.117 18.9555C226.347 18.4646 225.625 18.0485 224.939 17.3579C224.119 16.4897 223.26 15.3996 222.574 13.8935C222.142 12.9754 222.053 11.5996 221.916 10.1379C221.908 8.40431 222.346 6.53206 223.319 5.04535C224.364 3.65572 225.575 2.55733 227.058 1.62814C228.536 0.726681 230.167 0.305077 232.15 0.274566C231.807 0.0804062 246.522 0.0859536 246.447 0.113691C248.025 0.0360268 250.033 0.474273 251.422 1.64755C252.058 1.98595 252.543 2.34098 253.078 2.73762C253.193 2.82083 253.31 2.90959 253.43 2.99835C253.471 3.03164 253.513 3.06769 253.552 3.10098C253.664 3.19806 253.77 3.30069 253.873 3.40331C253.945 3.4782 254.018 3.55309 254.088 3.62798C254.464 4.04681 254.768 4.47951 254.986 4.81791C255.167 5.10637 255.287 5.32827 255.334 5.4198C255.343 5.43922 255.348 5.45308 255.354 5.45863V5.46418C256.076 6.98972 256.539 8.64285 256.224 10.1407C256.321 10.1601 249.581 10.002 249.52 10.1296C249.308 9.34738 249.272 8.73716 248.471 8.11307C247.373 7.3614 246.439 7.30315 246.439 7.30315C246.439 7.28651 246.341 7.27541 246.157 7.25877C244.358 7.13118 234.442 7.14782 232.234 7.12563C231.868 7.15892 231.573 7.21717 231.341 7.28373C231.093 7.38081 230.842 7.49176 230.605 7.63322C230.605 7.63322 230.597 7.636 230.588 7.64154C230.583 7.64709 230.575 7.64986 230.566 7.65541C230.558 7.66096 230.549 7.66651 230.541 7.66928C230.471 7.71089 230.351 7.783 230.212 7.88563C230.17 7.91337 230.128 7.94388 230.084 7.97716C229.953 8.07702 229.81 8.19351 229.674 8.32942C229.381 8.62898 229.119 9.00066 229.069 9.41672C229.041 9.65803 229.041 9.93818 229.077 10.2405C229.083 10.3265 229.097 10.4125 229.111 10.4985C229.133 10.6205 229.158 10.7453 229.191 10.8701C229.191 10.8785 229.191 10.8896 229.2 10.9007C229.253 11.1004 229.32 11.3028 229.401 11.4915C229.52 11.7716 229.674 12.0379 229.858 12.2598C229.875 12.282 229.891 12.3014 229.908 12.3208C229.978 12.3985 230.053 12.4706 230.131 12.5371C230.162 12.5621 230.193 12.5871 230.226 12.6093C230.279 12.6481 230.335 12.6869 230.393 12.7174C230.452 12.7507 230.513 12.7785 230.575 12.8062C230.583 12.8117 230.594 12.8173 230.602 12.8201C230.608 12.8228 230.614 12.8256 230.619 12.8256C231.394 13.1335 232.25 13.2056 232.761 13.2223H232.814C232.992 13.225 233.121 13.2223 233.182 13.2195H233.187C233.187 13.2195 233.21 13.2167 233.221 13.2195C235.017 13.2056 238.488 13.2167 240.931 13.1806C240.931 13.1806 242.247 13.1806 243.561 13.1917C243.695 13.1917 243.831 13.1945 243.962 13.1945H243.988C244.049 13.1973 244.113 13.1973 244.172 13.1973C244.975 13.2084 245.697 13.2223 246.012 13.2444C246.296 13.2666 246.461 13.2722 246.606 13.275C246.612 13.275 246.617 13.275 246.62 13.2805C246.651 13.2777 246.681 13.2777 246.712 13.2777C246.971 13.2805 247.219 13.2694 248.067 13.2999C248.117 13.2999 248.165 13.3082 248.212 13.311C249.729 13.4441 251.126 13.8768 252.311 14.5758C254.143 15.8074 255.262 17.1859 256.441 18.8612C257.286 20.6308 257.799 22.4143 258.006 24.6028H258Z" fill="#D9D9D9"/>
</g>
<defs>
<clipPath id="clip0_152_176">
<rect width="258" height="36" fill="white"/>
</clipPath>
</defs>
</svg>
