<svg width="60" height="60" viewBox="0 0 60 60" fill="none" xmlns="http://www.w3.org/2000/svg">
<rect width="60" height="60" fill="white"/>
<path d="M52.9695 22.9926H52.9709C52.9591 23.1755 52.9442 23.3466 52.9294 23.4646C52.9294 23.4734 52.9294 23.4838 52.9264 23.4926C52.9264 23.5118 52.9205 23.5295 52.919 23.5457C52.916 23.5649 52.9131 23.5811 52.9101 23.5929C52.9071 23.6047 52.9042 23.6136 52.9027 23.6195L52.8359 23.6283L52.7498 23.6416L52.7023 23.649L52.6385 23.6578H52.6237C51.993 23.7566 43.4597 23.7389 43.4597 23.6932C43.3039 23.8628 43.3677 39.0162 43.384 39C43.2846 38.9469 39.6576 38.9513 39.7333 38.8982C39.668 38.9469 39.5997 35.6032 39.57 34.438V34.4321C39.57 34.3864 39.57 34.3436 39.5671 34.3053C39.5715 34.2714 39.576 34.1785 39.5804 34.0383C39.622 32.8451 39.668 28.1962 39.6724 27.8997V27.8849C39.6665 25.7168 39.6769 23.7611 39.7288 23.7227C39.6858 23.6755 34.3833 23.6667 33.8268 23.6888C33.7318 23.6844 33.6145 23.6785 33.5121 23.6681C33.5121 23.6681 33.5047 23.6667 33.5018 23.6667C33.4558 23.6622 33.4127 23.6549 33.3771 23.649H33.3741C33.0061 23.6549 30.081 23.7611 30.0187 23.7507C29.9564 23.6903 30.0617 20.0265 30.1597 20C30.1597 20.0192 30.9373 20.0339 32.1824 20.0472H32.2641C37.4285 20.0973 50.3041 20.0929 50.2462 20.0752C50.2551 20.0782 50.264 20.0796 50.273 20.0796H50.2863V20.0782C50.2893 20.0782 50.2937 20.0796 50.3012 20.0796C50.3338 20.0826 50.4095 20.087 50.5104 20.09C50.7018 20.0973 50.9853 20.0988 51.2539 20.0782C51.2569 20.0767 51.2613 20.0767 51.2643 20.0767C51.2643 20.0752 51.2687 20.0752 51.2717 20.0752C51.2777 20.0752 51.2821 20.0752 51.288 20.0737C51.2984 20.0737 51.3073 20.0723 51.3177 20.0708C51.3326 20.0693 51.3474 20.0678 51.3637 20.0664C51.7347 20.0339 52.916 19.9528 52.8953 20.0841C52.916 20.0369 52.9175 20.5811 52.9116 21.0354C52.9116 21.0413 52.9531 21.4558 52.9799 21.8127C52.9799 21.8245 52.9799 21.8348 52.9828 21.8451C52.9828 21.8702 52.9858 21.8953 52.9873 21.9189C52.9917 21.9911 52.9962 22.059 52.9991 22.1165V22.1563C53.0036 22.3466 52.9902 22.6873 52.9695 22.9926Z" fill="black"/>
<path d="M28.9744 29.909C28.9744 29.8898 28.9744 29.872 28.9744 29.8528C28.9744 29.8351 28.9744 29.8174 28.9744 29.8011C28.9744 29.7893 28.9744 29.779 28.9744 29.7686C28.9744 29.7568 28.9744 29.7435 28.9744 29.7317V29.7095C28.9744 29.6992 28.9744 29.6874 28.9744 29.6785V29.6726C28.9744 29.6726 28.9744 29.6608 28.9744 29.6563C28.9744 29.6519 28.9744 29.6475 28.9744 29.6416C28.9744 29.6297 28.9744 29.6179 28.973 29.6091C28.973 29.5869 28.9716 29.5751 28.9716 29.5751V29.5707C28.9701 29.5426 28.9658 29.516 28.9644 29.4894C29.1222 28.1863 28.7234 26.8818 28.4007 25.7619C28.4007 25.7619 28.002 25.0601 27.8156 24.8429C27.8084 24.8252 27.8012 24.809 27.7941 24.7927C27.5761 24.3066 27.2792 23.8309 26.9149 23.3951H26.9135C26.6467 23.0361 26.3125 22.6608 25.8952 22.321C25.8894 22.3166 25.8823 22.3107 25.878 22.3062C25.2627 21.8113 24.8281 21.4996 24.5456 21.3105C24.5241 21.2913 24.504 21.272 24.4825 21.2514C24.3892 21.1967 24.296 21.1435 24.2042 21.0948C24.1526 21.0667 24.1282 21.0534 24.1282 21.0534H24.1253C22.7815 20.3339 21.4563 20.0399 19.926 20.0473C19.8428 20.0857 18.2293 20.099 17.1895 20.0724C17.1895 20.0724 17.188 20.0724 17.1866 20.0724C17.0991 20.0665 16.3921 20.0177 16.3175 20.0074C16.2529 20.0015 16.1941 20 16.1411 20H16.1282C16.0364 20.0015 15.9589 20.0074 15.8929 20.0177C15.8499 20.0236 15.8098 20.031 15.7739 20.0384C15.7739 20.0384 15.7667 20.0384 15.7524 20.0414C15.7467 20.0414 15.7409 20.0428 15.7338 20.0443C15.728 20.0443 15.7223 20.0458 15.7137 20.0473C15.7065 20.0473 15.6993 20.0502 15.6907 20.0517C15.6133 20.065 15.5043 20.0842 15.4584 20.0946C15.4455 20.0975 15.4297 20.099 15.4111 20.099C15.3781 20.099 15.3379 20.096 15.3021 20.0916C15.292 20.0901 15.2834 20.0886 15.2748 20.0872C15.2418 20.0827 15.2131 20.0783 15.2017 20.0768C15.1672 20.0739 14.9292 20.1152 14.8503 20.1093H14.8388C14.7556 20.1034 14.6509 20.1167 14.5591 20.1404C14.5548 20.1404 14.5491 20.1418 14.5434 20.1433C14.5405 20.1433 14.5362 20.1463 14.5319 20.1463C14.1733 20.226 13.5265 20.4166 13.5265 20.4166C13.1794 20.4831 12.8983 20.6176 12.6918 20.6737C12.032 20.9426 11.4713 21.2839 11.0338 21.6872C11.0338 21.6872 11.0023 21.7167 10.9549 21.7611C10.8703 21.8364 10.7341 21.9546 10.6279 22.024C10.605 22.0388 10.5835 22.0521 10.5648 22.0625C10.562 22.0625 10.5577 22.0654 10.5548 22.0684C10.5448 22.0728 10.5333 22.0802 10.5204 22.0905C10.5118 22.0964 10.5032 22.1038 10.4931 22.1097C10.4501 22.1422 10.397 22.1851 10.3411 22.2368C10.3325 22.2442 10.3239 22.2516 10.3138 22.2604C10.2737 22.2959 10.2321 22.3343 10.1905 22.3712C10.093 22.4614 9.99689 22.553 9.92231 22.6239C9.89793 22.646 9.87211 22.6726 9.84773 22.6977C9.81044 22.7332 9.79036 22.7554 9.79036 22.7554C9.79036 22.7554 9.78749 22.7583 9.78462 22.7613C9.7459 22.7938 9.55085 22.9652 9.32137 23.2148C9.18799 23.3611 9.04027 23.534 8.90258 23.7245C8.5512 24.2121 8.60283 24.1929 8.37479 24.5608C8.36762 24.5726 8.35901 24.5844 8.35184 24.5977C8.33463 24.6243 8.31599 24.6538 8.29591 24.6849C8.28587 24.7011 8.2744 24.7188 8.26436 24.7351C8.24141 24.7706 8.21846 24.8075 8.19551 24.8444C8.17257 24.8828 8.14818 24.9227 8.1238 24.9626C8.00763 25.1606 7.88429 25.3881 7.76668 25.6289C7.55872 26.0603 7.37227 26.5346 7.28765 26.9512C7.28192 26.9748 7.27762 27 7.27331 27.0221V27.0251C7.23172 27.2615 7.2059 27.65 7.19156 28.0711C7.14423 28.5498 7.09117 29.0432 7.05818 29.4613C7.07396 29.8706 6.96639 30.1912 7.01085 30.4113C7.01085 30.4113 7.01085 30.4216 7.00798 30.4394C7.00511 30.4822 7.00225 30.5723 7.01802 30.6758C7.18152 31.8636 7.66629 33.0884 8.19551 34.2422C8.19695 34.2422 8.19695 34.2452 8.19695 34.2452C8.20986 34.2762 8.43216 34.749 8.63151 35.0371C8.65876 35.077 8.68745 35.1124 8.71327 35.1434C8.7147 35.1464 8.71757 35.1493 8.72044 35.1508C8.72617 35.1582 8.73478 35.1671 8.74195 35.1759C9.04887 35.5379 9.36296 35.8762 9.6871 36.1968C9.71435 36.2249 9.74303 36.253 9.76885 36.2796C9.78606 36.2958 9.80183 36.3121 9.81761 36.3283C9.85203 36.3608 9.88645 36.3933 9.92087 36.4288C9.93091 36.4376 9.94239 36.4465 9.95243 36.4569C9.9639 36.4672 9.97537 36.4775 9.98828 36.4894C10.4616 36.9341 10.9635 37.3433 11.5143 37.7304C11.8714 37.9269 11.9704 37.9653 12.207 38.1101C12.2142 38.1145 12.2185 38.1175 12.2185 38.1175C12.2185 38.1175 12.3619 38.2504 12.6918 38.4011C12.6918 38.4011 12.6918 38.4011 12.6932 38.4011C12.9227 38.506 13.244 38.6198 13.6699 38.7025C14.4845 38.8842 15.2977 39.0467 16.3089 38.9877C16.1927 39.0113 19.7782 38.9507 19.9317 38.9389C20.8008 38.9625 21.5366 38.9817 22.3828 38.6759C22.3828 38.6759 22.5893 38.6168 22.8087 38.571C22.8087 38.571 22.8116 38.571 22.813 38.571C22.8417 38.5651 22.8718 38.5592 22.902 38.5533C22.9034 38.5533 22.9077 38.5533 22.9091 38.5533C23.1573 38.5075 23.4914 38.376 23.4914 38.376C24.5441 37.7274 25.4233 37.1512 26.2695 36.1968C26.4387 35.9885 26.6983 35.8674 26.7686 35.7625C26.7801 35.7521 26.7901 35.7418 26.7987 35.7329H26.8016L26.8288 35.7034L26.8604 35.6694L26.9737 35.5482L27.0741 35.4404C27.2476 35.2158 27.4025 35.0444 27.5115 34.8539H27.5144C27.5144 34.8539 27.5144 34.8494 27.5158 34.848C27.5302 34.8273 27.6134 34.7061 27.764 34.4269C27.7668 34.4195 27.7711 34.4136 27.7754 34.4062C27.8629 34.2407 27.9748 34.0221 28.1082 33.7399C28.4868 32.9391 28.6819 32.3393 28.8511 31.4972C28.864 31.4396 28.874 31.382 28.8841 31.3258C28.8927 31.2815 28.9013 31.2372 28.907 31.1928C28.9113 31.1648 28.9142 31.1382 28.9199 31.1131C28.9228 31.0879 28.9257 31.0628 28.93 31.0377C28.9328 31.0096 28.9357 30.9831 28.94 30.955C28.9429 30.9328 28.9457 30.9107 28.9472 30.8885C28.9486 30.8678 28.9515 30.8471 28.9529 30.825C28.9902 30.5088 29.0017 30.1882 28.9902 29.8676V29.906L28.9744 29.909ZM9.22241 23.3463C9.22241 23.3463 9.22241 23.3404 9.22671 23.3434C9.22671 23.3434 9.22385 23.3434 9.22241 23.3463ZM25.333 30.9594C25.333 30.9594 25.1609 31.1574 25.1293 31.2889C25.1293 31.3066 25.1293 31.3243 25.1293 31.3421C25.1264 31.5208 25.0676 31.6272 24.9529 31.7971C24.7492 32.4398 24.3864 33.1164 23.7869 33.5744C23.2849 34.1964 22.7413 34.5687 22.0127 34.8406C21.2899 35.142 20.6632 35.3488 19.7911 35.3606C19.7582 35.3178 16.3074 35.2853 16.2113 35.3621C15.1328 35.2956 14.2235 35.0917 13.3673 34.5968C12.5986 34.0428 11.8728 33.3912 11.3666 32.428C11.3651 32.428 11.3623 32.4294 11.3594 32.4309C11.3565 32.4265 11.3537 32.422 11.3508 32.4161C11.3465 32.4088 11.3422 32.4014 11.3379 32.394C11.3207 32.3659 11.3035 32.3364 11.2877 32.3083C11.2719 32.2817 11.2576 32.2551 11.2447 32.2329C11.2289 32.2049 11.2145 32.1827 11.2031 32.1635C11.1988 32.1546 11.1945 32.1458 11.1902 32.1399C10.9004 31.5888 10.757 30.952 10.6681 30.3271V30.3227C10.6365 29.8218 10.6509 29.4022 10.6538 29.3106V29.2929C10.6609 29.1969 10.6552 29.1097 10.6767 29.0166C10.6939 28.8526 10.7097 28.3784 10.7097 28.3503C10.7957 27.9869 10.9076 27.65 11.1213 27.2541C11.2188 26.8862 11.3996 26.57 11.6348 26.3647C11.6348 26.3647 12.2773 25.558 12.4035 25.3984C12.4049 25.3984 12.4049 25.397 12.4064 25.3955C12.8639 24.8991 13.4691 24.4603 13.9883 24.2106C14.0055 24.1988 14.0256 24.187 14.0442 24.1766C14.06 24.1678 14.0744 24.1589 14.0901 24.1515C14.2723 24.0584 14.4774 24.0186 14.6825 23.9787C14.6825 23.9787 14.6939 23.9772 14.7169 23.9713C14.7226 23.9713 14.7298 23.9683 14.7384 23.9668C14.7456 23.9668 14.7499 23.9639 14.7585 23.9624C14.7786 23.9565 14.8029 23.9506 14.8302 23.9447C14.9593 23.9151 15.1572 23.8664 15.3436 23.8191C15.3451 23.8191 15.3465 23.8191 15.3494 23.8191C15.4125 23.8028 15.51 23.7925 15.6233 23.7851C15.7839 23.7733 15.979 23.7689 16.1669 23.7689C16.5183 23.7674 16.8381 23.7748 16.8381 23.7748H16.8496C16.9328 23.7748 17.4175 23.7748 17.8306 23.7748C17.855 23.7748 17.8793 23.7748 17.9023 23.7748C18.04 23.7748 18.1662 23.7733 18.2608 23.7703V23.7733C18.235 23.7807 19.7711 23.7053 19.86 23.7112C20.8941 23.7807 21.789 24.0141 22.6624 24.5504C23.5072 25.1044 24.2473 25.7205 24.7507 26.6749C25.2225 27.4609 25.518 28.5143 25.4405 29.5056C25.4749 29.9799 25.462 30.5753 25.333 30.9594Z" fill="black"/>
</svg>
