<svg width="76" height="76" viewBox="0 0 76 76" fill="none" xmlns="http://www.w3.org/2000/svg">
<rect width="76" height="76" fill="white"/>
<path d="M67.0947 29.1242H67.0965C67.0815 29.3558 67.0627 29.5725 67.0439 29.722C67.0439 29.7332 67.0439 29.7463 67.0401 29.7575C67.0401 29.7818 67.0326 29.8042 67.0307 29.8247C67.027 29.849 67.0232 29.8696 67.0195 29.8845C67.0157 29.8995 67.0119 29.9107 67.0101 29.9182L66.9255 29.9294L66.8164 29.9462L66.7563 29.9555L66.6755 29.9667H66.6567C65.8578 30.0919 55.049 30.0695 55.049 30.0116C54.8516 30.2264 54.9324 49.4207 54.9531 49.4001C54.8271 49.3329 50.2329 49.3385 50.3288 49.2712C50.2461 49.3329 50.1596 45.0976 50.122 43.6217V43.6142C50.122 43.5563 50.122 43.5021 50.1183 43.4535C50.1239 43.4106 50.1295 43.2929 50.1352 43.1154C50.1878 41.604 50.2461 35.7153 50.2517 35.3398V35.3211C50.2442 32.5748 50.2574 30.0975 50.3232 30.0489C50.2687 29.9891 43.5522 29.9779 42.8472 30.006C42.7269 30.0004 42.5784 29.9929 42.4487 29.9798C42.4487 29.9798 42.4393 29.9779 42.4356 29.9779C42.3773 29.9723 42.3228 29.963 42.2777 29.9555H42.2739C41.8077 29.963 38.1026 30.0975 38.0237 30.0844C37.9447 30.0078 38.0782 25.3671 38.2023 25.3335C38.2023 25.3578 39.1873 25.3765 40.7644 25.3933H40.8678C47.4095 25.4568 63.7186 25.4512 63.6452 25.4288C63.6565 25.4325 63.6678 25.4344 63.6791 25.4344H63.696V25.4325C63.6998 25.4325 63.7054 25.4344 63.7148 25.4344C63.7561 25.4381 63.852 25.4437 63.9798 25.4475C64.2223 25.4568 64.5814 25.4587 64.9216 25.4325C64.9254 25.4306 64.931 25.4306 64.9348 25.4306C64.9348 25.4288 64.9404 25.4288 64.9442 25.4288C64.9517 25.4288 64.9573 25.4288 64.9649 25.4269C64.978 25.4269 64.9893 25.425 65.0024 25.4232C65.0212 25.4213 65.04 25.4194 65.0607 25.4176C65.5307 25.3765 67.027 25.2737 67.0007 25.44C67.027 25.3802 67.0289 26.0696 67.0213 26.645C67.0213 26.6525 67.074 27.1774 67.1078 27.6296C67.1078 27.6445 67.1078 27.6576 67.1116 27.6707C67.1116 27.7024 67.1153 27.7342 67.1172 27.7641C67.1229 27.8556 67.1285 27.9416 67.1323 28.0144V28.0649C67.1379 28.3059 67.121 28.7374 67.0947 29.1242Z" fill="black"/>
<path d="M36.701 37.8849C36.701 37.8605 36.701 37.8381 36.701 37.8138C36.701 37.7913 36.701 37.7688 36.701 37.7483C36.701 37.7333 36.701 37.7202 36.701 37.7071C36.701 37.6921 36.701 37.6753 36.701 37.6603V37.6322C36.701 37.6191 36.701 37.6042 36.701 37.5929V37.5854C36.701 37.5854 36.701 37.5705 36.701 37.5649C36.701 37.5592 36.701 37.5536 36.701 37.5461C36.701 37.5312 36.701 37.5162 36.6992 37.505C36.6992 37.4769 36.6973 37.4619 36.6973 37.4619V37.4563C36.6955 37.4208 36.6901 37.3871 36.6883 37.3534C36.8881 35.7028 36.3831 34.0504 35.9743 32.6319C35.9743 32.6319 35.4693 31.743 35.2331 31.4679C35.224 31.4454 35.2149 31.4248 35.2059 31.4043C34.9297 30.7886 34.5537 30.186 34.0922 29.6339H34.0904C33.7525 29.1792 33.3292 28.7039 32.8006 28.2734C32.7933 28.2678 32.7842 28.2603 32.7788 28.2547C31.9994 27.6278 31.449 27.233 31.0911 26.9934C31.0638 26.9691 31.0384 26.9448 31.0112 26.9186C30.8931 26.8493 30.775 26.7819 30.6587 26.7202C30.5933 26.6846 30.5624 26.6678 30.5624 26.6678H30.5588C28.8566 25.7564 27.178 25.384 25.2396 25.3934C25.1342 25.442 23.0905 25.4589 21.7734 25.4252C21.7734 25.4252 21.7716 25.4252 21.7697 25.4252C21.6589 25.4177 20.7633 25.356 20.6688 25.3429C20.5871 25.3354 20.5126 25.3335 20.4454 25.3335H20.429C20.3128 25.3354 20.2147 25.3429 20.1311 25.356C20.0766 25.3634 20.0257 25.3728 19.9803 25.3822C19.9803 25.3822 19.9712 25.3822 19.9531 25.3859C19.9458 25.3859 19.9385 25.3878 19.9295 25.3896C19.9222 25.3896 19.9149 25.3915 19.904 25.3934C19.8949 25.3934 19.8859 25.3971 19.875 25.399C19.7769 25.4158 19.6388 25.4402 19.5806 25.4533C19.5643 25.457 19.5443 25.4589 19.5207 25.4589C19.4789 25.4589 19.428 25.4551 19.3826 25.4495C19.3699 25.4477 19.359 25.4458 19.3481 25.4439C19.3063 25.4383 19.27 25.4327 19.2555 25.4308C19.2119 25.4271 18.9103 25.4795 18.8104 25.472H18.7958C18.6905 25.4645 18.5579 25.4813 18.4416 25.5113C18.4361 25.5113 18.4289 25.5131 18.4216 25.515C18.418 25.515 18.4125 25.5188 18.4071 25.5188C17.9529 25.6198 17.1336 25.8612 17.1336 25.8612C16.694 25.9454 16.3379 26.1157 16.0763 26.1868C15.2406 26.5274 14.5303 26.9597 13.9762 27.4706C13.9762 27.4706 13.9362 27.508 13.8763 27.5642C13.7691 27.6596 13.5965 27.8093 13.4621 27.8973C13.433 27.916 13.4058 27.9328 13.3822 27.9459C13.3785 27.9459 13.3731 27.9497 13.3694 27.9534C13.3567 27.959 13.3422 27.9684 13.3258 27.9815C13.3149 27.989 13.304 27.9983 13.2913 28.0058C13.2368 28.047 13.1696 28.1013 13.0988 28.1668C13.0879 28.1761 13.077 28.1855 13.0642 28.1967C13.0134 28.2416 12.9607 28.2903 12.908 28.3371C12.7845 28.4512 12.6628 28.5672 12.5683 28.6571C12.5374 28.6851 12.5047 28.7188 12.4738 28.7506C12.4266 28.7956 12.4012 28.8236 12.4012 28.8236C12.4012 28.8236 12.3975 28.8274 12.3939 28.8311C12.3448 28.8723 12.0978 29.0894 11.8071 29.4056C11.6382 29.5909 11.451 29.8098 11.2766 30.0513C10.8316 30.6688 10.897 30.6445 10.6081 31.1105C10.599 31.1254 10.5881 31.1404 10.579 31.1572C10.5572 31.1909 10.5336 31.2284 10.5082 31.2677C10.4955 31.2882 10.4809 31.3107 10.4682 31.3313C10.4391 31.3762 10.4101 31.423 10.381 31.4698C10.3519 31.5184 10.3211 31.5689 10.2902 31.6195C10.143 31.8702 9.9868 32.1584 9.83783 32.4635C9.57441 33.0099 9.33825 33.6106 9.23106 34.1384C9.22379 34.1683 9.21834 34.2001 9.21289 34.2282V34.2319C9.16021 34.5313 9.12751 35.0235 9.10934 35.5569C9.04939 36.1632 8.98218 36.7882 8.94039 37.3178C8.96038 37.8362 8.82413 38.2423 8.88044 38.5211C8.88044 38.5211 8.88044 38.5342 8.87681 38.5567C8.87318 38.611 8.86954 38.7251 8.88953 38.8561C9.09663 40.3607 9.71066 41.9121 10.381 43.3736C10.3828 43.3736 10.3828 43.3774 10.3828 43.3774C10.3992 43.4167 10.6808 44.0155 10.9333 44.3804C10.9678 44.431 11.0041 44.4759 11.0368 44.5152C11.0387 44.5189 11.0423 44.5227 11.0459 44.5245C11.0532 44.5339 11.0641 44.5451 11.0732 44.5563C11.4619 45.0148 11.8598 45.4434 12.2704 45.8495C12.3049 45.885 12.3412 45.9206 12.3739 45.9543C12.3957 45.9749 12.4157 45.9954 12.4357 46.016C12.4793 46.0572 12.5229 46.0984 12.5665 46.1433C12.5792 46.1545 12.5937 46.1657 12.6064 46.1788C12.621 46.1919 12.6355 46.205 12.6519 46.22C13.2514 46.7833 13.8872 47.3017 14.5848 47.792C15.0371 48.0409 15.1625 48.0895 15.4623 48.2729C15.4713 48.2785 15.4768 48.2823 15.4768 48.2823C15.4768 48.2823 15.6585 48.4507 16.0763 48.6416C16.0763 48.6416 16.0763 48.6416 16.0781 48.6416C16.3688 48.7744 16.7757 48.9185 17.3153 49.0233C18.3471 49.2535 19.3772 49.4594 20.6579 49.3845C20.5108 49.4145 25.0525 49.3377 25.2469 49.3228C26.3478 49.3527 27.2797 49.377 28.3515 48.9897C28.3515 48.9897 28.6131 48.9148 28.8911 48.8568C28.8911 48.8568 28.8947 48.8568 28.8966 48.8568C28.9329 48.8493 28.971 48.8418 29.0092 48.8343C29.011 48.8343 29.0165 48.8343 29.0183 48.8343C29.3326 48.7763 29.7558 48.6098 29.7558 48.6098C31.0893 47.7882 32.2029 47.0584 33.2747 45.8495C33.4891 45.5856 33.8179 45.4322 33.9069 45.2993C33.9215 45.2862 33.9342 45.2731 33.9451 45.2619H33.9487L33.9832 45.2244L34.0232 45.1814L34.1667 45.0279L34.2939 44.8913C34.5137 44.6069 34.7099 44.3898 34.848 44.1484H34.8516C34.8516 44.1484 34.8516 44.1428 34.8534 44.1409C34.8716 44.1147 34.977 43.9612 35.1677 43.6076C35.1713 43.5982 35.1768 43.5907 35.1822 43.5814C35.2931 43.3718 35.4348 43.0948 35.6037 42.7374C36.0833 41.7231 36.3304 40.9633 36.5447 39.8966C36.5611 39.8236 36.5738 39.7506 36.5865 39.6795C36.5974 39.6234 36.6083 39.5672 36.6156 39.5111C36.621 39.4755 36.6247 39.4419 36.6319 39.41C36.6356 39.3782 36.6392 39.3464 36.6447 39.3146C36.6483 39.279 36.6519 39.2454 36.6574 39.2098C36.661 39.1817 36.6646 39.1537 36.6665 39.1256C36.6683 39.0994 36.6719 39.0732 36.6737 39.0451C36.721 38.6446 36.7355 38.2386 36.721 37.8325V37.8811L36.701 37.8849ZM11.6818 29.5722C11.6818 29.5722 11.6818 29.5647 11.6872 29.5684C11.6872 29.5684 11.6836 29.5684 11.6818 29.5722ZM32.0884 39.2154C32.0884 39.2154 31.8704 39.4662 31.8305 39.6327C31.8305 39.6552 31.8305 39.6777 31.8305 39.7001C31.8268 39.9265 31.7524 40.0613 31.607 40.2765C31.3491 41.0905 30.8894 41.9476 30.1301 42.5278C29.4942 43.3156 28.8057 43.7872 27.8828 44.1315C26.9672 44.5133 26.1734 44.7753 25.0688 44.7903C25.027 44.736 20.6561 44.6948 20.5344 44.7921C19.1683 44.7079 18.0165 44.4497 16.9319 43.8228C15.9582 43.121 15.039 42.2957 14.3977 41.0756C14.3959 41.0756 14.3922 41.0774 14.3886 41.0793C14.385 41.0737 14.3813 41.0681 14.3777 41.0606C14.3722 41.0512 14.3668 41.0419 14.3613 41.0325C14.3395 40.997 14.3177 40.9595 14.2978 40.924C14.2778 40.8903 14.2596 40.8566 14.2433 40.8286C14.2233 40.793 14.2051 40.7649 14.1906 40.7406C14.1851 40.7294 14.1797 40.7181 14.1742 40.7107C13.8073 40.0126 13.6256 39.2061 13.513 38.4145V38.4089C13.473 37.7745 13.4912 37.243 13.4948 37.127V37.1045C13.5039 36.9829 13.4966 36.8724 13.5239 36.7546C13.5457 36.5468 13.5656 35.9461 13.5656 35.9106C13.6746 35.4502 13.8163 35.0235 14.087 34.522C14.2106 34.056 14.4395 33.6555 14.7374 33.3954C14.7374 33.3954 15.5513 32.3736 15.7111 32.1715C15.713 32.1715 15.713 32.1697 15.7148 32.1678C16.2943 31.539 17.0609 30.9832 17.7186 30.6669C17.7404 30.652 17.7658 30.637 17.7894 30.6239C17.8094 30.6127 17.8276 30.6014 17.8475 30.5921C18.0783 30.4742 18.338 30.4237 18.5978 30.3731C18.5978 30.3731 18.6124 30.3713 18.6414 30.3638C18.6487 30.3638 18.6578 30.36 18.6687 30.3582C18.6778 30.3582 18.6832 30.3544 18.6941 30.3525C18.7195 30.3451 18.7504 30.3376 18.7849 30.3301C18.9484 30.2927 19.1991 30.2309 19.4353 30.171C19.4371 30.171 19.4389 30.171 19.4426 30.171C19.5225 30.1504 19.646 30.1373 19.7896 30.128C19.993 30.113 20.2401 30.1074 20.4781 30.1074C20.9232 30.1055 21.3283 30.1149 21.3283 30.1149H21.3428C21.4482 30.1149 22.0622 30.1149 22.5854 30.1149C22.6163 30.1149 22.6472 30.1149 22.6763 30.1149C22.8507 30.1149 23.0105 30.113 23.1304 30.1093V30.113C23.0977 30.1224 25.0434 30.0269 25.156 30.0344C26.4658 30.1224 27.5994 30.418 28.7058 31.0974C29.7758 31.7991 30.7132 32.5795 31.3509 33.7884C31.9486 34.784 32.3228 36.1183 32.2247 37.374C32.2683 37.9747 32.2519 38.7289 32.0884 39.2154Z" fill="black"/>
</svg>
