<svg width="152" height="152" viewBox="0 0 152 152" fill="none" xmlns="http://www.w3.org/2000/svg">
<rect width="152" height="152" fill="white"/>
<path d="M134.189 58.2478H134.193C134.163 58.7111 134.125 59.1446 134.088 59.4435C134.088 59.4659 134.088 59.4921 134.08 59.5145C134.08 59.5631 134.065 59.6079 134.061 59.649C134.054 59.6976 134.046 59.7387 134.039 59.7686C134.031 59.7985 134.024 59.8209 134.02 59.8358L133.851 59.8582L133.633 59.8919L133.513 59.9105L133.351 59.933H133.313C131.716 60.1833 110.098 60.1385 110.098 60.0226C109.703 60.4523 109.865 98.8409 109.906 98.7998C109.654 98.6653 100.466 98.6765 100.658 98.542C100.492 98.6653 100.319 90.1947 100.244 87.2429V87.2279C100.244 87.1121 100.244 87.0037 100.237 86.9066C100.248 86.8207 100.259 86.5853 100.27 86.2303C100.376 83.2075 100.492 71.4301 100.503 70.6791V70.6417C100.488 65.1491 100.515 60.1945 100.646 60.0974C100.537 59.9778 87.1043 59.9554 85.6945 60.0114C85.4539 60.0002 85.1569 59.9853 84.8974 59.9591C84.8974 59.9591 84.8786 59.9554 84.8711 59.9554C84.7546 59.9442 84.6455 59.9255 84.5553 59.9105H84.5478C83.6154 59.9255 76.2053 60.1945 76.0474 60.1684C75.8895 60.0152 76.1564 50.7338 76.4045 50.6665C76.4045 50.7151 78.3746 50.7524 81.5289 50.7861H81.7356C94.819 50.9131 127.437 50.9019 127.29 50.8571C127.313 50.8645 127.336 50.8683 127.358 50.8683H127.392V50.8645C127.4 50.8645 127.411 50.8683 127.43 50.8683C127.512 50.8757 127.704 50.887 127.96 50.8944C128.445 50.9131 129.163 50.9168 129.843 50.8645C129.851 50.8608 129.862 50.8608 129.87 50.8608C129.87 50.8571 129.881 50.8571 129.888 50.8571C129.903 50.8571 129.915 50.8571 129.93 50.8533C129.956 50.8533 129.979 50.8496 130.005 50.8459C130.042 50.8421 130.08 50.8384 130.121 50.8346C131.061 50.7524 134.054 50.5469 134.001 50.8795C134.054 50.7599 134.058 52.1387 134.043 53.2895C134.043 53.3045 134.148 54.3544 134.216 55.2586C134.216 55.2885 134.216 55.3147 134.223 55.3408C134.223 55.4044 134.231 55.4679 134.234 55.5277C134.246 55.7107 134.257 55.8826 134.265 56.0283V56.1292C134.276 56.6112 134.242 57.4744 134.189 58.2478Z" fill="black"/>
<path d="M73.4015 75.7692C73.4015 75.7206 73.4015 75.6757 73.4015 75.627C73.4015 75.5821 73.4015 75.5372 73.4015 75.496C73.4015 75.4661 73.4015 75.4399 73.4015 75.4137C73.4015 75.3837 73.4015 75.3501 73.4015 75.3201V75.264C73.4015 75.2378 73.4015 75.2078 73.4015 75.1854V75.1704C73.4015 75.1704 73.4015 75.1405 73.4015 75.1292C73.4015 75.118 73.4015 75.1068 73.4015 75.0918C73.4015 75.0619 73.4015 75.0319 73.3978 75.0095C73.3978 74.9533 73.3942 74.9234 73.3942 74.9234V74.9121C73.3906 74.841 73.3797 74.7737 73.376 74.7063C73.7757 71.4052 72.7656 68.1003 71.9481 65.2633C71.9481 65.2633 70.9381 63.4855 70.4657 62.9353C70.4476 62.8904 70.4294 62.8492 70.4112 62.808C69.859 61.5767 69.1069 60.3715 68.184 59.2674H68.1803C67.5045 58.3579 66.658 57.4072 65.6007 56.5464C65.5861 56.5352 65.568 56.5202 65.5571 56.509C63.9984 55.2551 62.8975 54.4654 62.1817 53.9863C62.1272 53.9377 62.0763 53.889 62.0218 53.8366C61.7857 53.6981 61.5495 53.5634 61.317 53.4399C61.1862 53.3688 61.1244 53.3351 61.1244 53.3351H61.1171C57.7127 51.5124 54.3555 50.7676 50.4787 50.7863C50.268 50.8836 46.1804 50.9173 43.5463 50.8499C43.5463 50.8499 43.5426 50.8499 43.539 50.8499C43.3174 50.8349 41.5261 50.7114 41.3372 50.6852C41.1737 50.6702 41.0247 50.6665 40.8903 50.6665H40.8576C40.625 50.6702 40.4288 50.6852 40.2617 50.7114C40.1527 50.7264 40.051 50.7451 39.9601 50.7638C39.9601 50.7638 39.942 50.7638 39.9056 50.7713C39.8911 50.7713 39.8766 50.775 39.8584 50.7788C39.8439 50.7788 39.8293 50.7825 39.8075 50.7863C39.7894 50.7863 39.7712 50.7938 39.7494 50.7975C39.5532 50.8312 39.2771 50.8798 39.1608 50.906C39.1281 50.9135 39.0881 50.9173 39.0409 50.9173C38.9573 50.9173 38.8556 50.9098 38.7648 50.8986C38.7393 50.8948 38.7175 50.8911 38.6957 50.8873C38.6122 50.8761 38.5395 50.8649 38.5104 50.8611C38.4232 50.8536 37.8201 50.9584 37.6203 50.9435H37.5912C37.3805 50.9285 37.1152 50.9622 36.8827 51.0221C36.8718 51.0221 36.8573 51.0258 36.8427 51.0296C36.8355 51.0296 36.8246 51.037 36.8137 51.037C35.9053 51.2391 34.2667 51.722 34.2667 51.722C33.3874 51.8904 32.6753 52.231 32.1521 52.3732C30.4807 53.0544 29.0601 53.919 27.9519 54.9407C27.9519 54.9407 27.872 55.0156 27.7521 55.1279C27.5377 55.3188 27.1926 55.6182 26.9237 55.7941C26.8656 55.8315 26.8111 55.8652 26.7638 55.8914C26.7566 55.8914 26.7457 55.8989 26.7384 55.9064C26.713 55.9176 26.6839 55.9363 26.6512 55.9625C26.6294 55.9775 26.6076 55.9962 26.5822 56.0112C26.4732 56.0935 26.3387 56.2021 26.197 56.3331C26.1752 56.3518 26.1534 56.3705 26.128 56.3929C26.0263 56.4828 25.9209 56.5801 25.8155 56.6736C25.5685 56.902 25.325 57.134 25.1361 57.3137C25.0743 57.3698 25.0089 57.4372 24.9472 57.5008C24.8527 57.5906 24.8018 57.6468 24.8018 57.6468C24.8018 57.6468 24.7946 57.6543 24.7873 57.6617C24.6892 57.7441 24.1951 58.1782 23.6137 58.8108C23.2758 59.1813 22.9016 59.6192 22.5528 60.102C21.6626 61.3371 21.7934 61.2885 21.2157 62.2204C21.1975 62.2504 21.1757 62.2803 21.1576 62.314C21.114 62.3814 21.0667 62.4562 21.0159 62.5348C20.9904 62.576 20.9614 62.6209 20.9359 62.6621C20.8778 62.7519 20.8197 62.8455 20.7615 62.939C20.7034 63.0363 20.6416 63.1374 20.5799 63.2385C20.2856 63.74 19.9731 64.3164 19.6752 64.9264C19.1483 66.0193 18.676 67.2208 18.4616 68.2762C18.4471 68.3361 18.4362 68.3997 18.4253 68.4559V68.4634C18.3199 69.0622 18.2545 70.0466 18.2182 71.1132C18.0983 72.3259 17.9639 73.576 17.8803 74.6352C17.9203 75.6719 17.6478 76.4841 17.7604 77.0418C17.7604 77.0418 17.7604 77.068 17.7531 77.1129C17.7459 77.2214 17.7386 77.4497 17.7786 77.7117C18.1928 80.7209 19.4208 83.8237 20.7615 86.7468C20.7652 86.7468 20.7652 86.7543 20.7652 86.7543C20.7979 86.8329 21.361 88.0305 21.8661 88.7604C21.9351 88.8614 22.0078 88.9513 22.0732 89.0299C22.0768 89.0374 22.0841 89.0448 22.0913 89.0486C22.1059 89.0673 22.1277 89.0898 22.1458 89.1122C22.9234 90.0292 23.7191 90.8863 24.5402 91.6985C24.6093 91.7696 24.6819 91.8407 24.7473 91.9081C24.7909 91.9492 24.8309 91.9904 24.8709 92.0316C24.9581 92.1139 25.0453 92.1962 25.1325 92.2861C25.1579 92.3085 25.187 92.331 25.2124 92.3572C25.2415 92.3834 25.2705 92.4096 25.3032 92.4395C26.5022 93.5661 27.7739 94.6028 29.1691 95.5835C30.0738 96.0812 30.3245 96.1786 30.924 96.5453C30.9422 96.5566 30.9531 96.5641 30.9531 96.5641C30.9531 96.5641 31.3164 96.9009 32.1521 97.2827C32.1521 97.2827 32.1521 97.2827 32.1557 97.2827C32.7371 97.5484 33.5509 97.8366 34.63 98.0462C36.6938 98.5066 38.7539 98.9183 41.3154 98.7686C41.0211 98.8284 50.1045 98.675 50.4932 98.645C52.695 98.7049 54.5589 98.7536 56.7026 97.9788C56.7026 97.9788 57.2258 97.8291 57.7817 97.7131C57.7817 97.7131 57.789 97.7131 57.7926 97.7131C57.8653 97.6981 57.9416 97.6831 58.0179 97.6682C58.0215 97.6682 58.0324 97.6682 58.036 97.6682C58.6646 97.5522 59.5112 97.219 59.5112 97.219C62.1781 95.576 64.4053 94.1163 66.549 91.6985C66.9777 91.1707 67.6353 90.8638 67.8134 90.5981C67.8425 90.5719 67.8679 90.5457 67.8897 90.5232H67.8969L67.966 90.4484L68.0459 90.3623L68.3329 90.0554L68.5873 89.7822C69.0269 89.2133 69.4193 88.7791 69.6955 88.2963H69.7027C69.7027 88.2963 69.7027 88.2851 69.7064 88.2813C69.7427 88.2289 69.9534 87.922 70.3349 87.2146C70.3422 87.1959 70.3531 87.1809 70.364 87.1622C70.5856 86.743 70.869 86.1891 71.2069 85.4742C72.1661 83.4457 72.6603 81.9261 73.089 79.7927C73.1217 79.6468 73.1471 79.5008 73.1726 79.3586C73.1944 79.2463 73.2162 79.134 73.2307 79.0217C73.2416 78.9506 73.2489 78.8832 73.2634 78.8196C73.2707 78.756 73.2779 78.6923 73.2888 78.6287C73.2961 78.5576 73.3034 78.4902 73.3143 78.4191C73.3215 78.363 73.3288 78.3068 73.3324 78.2507C73.3361 78.1983 73.3433 78.1459 73.347 78.0898C73.4414 77.2888 73.4705 76.4766 73.4414 75.6644V75.7618L73.4015 75.7692ZM23.363 59.1439C23.363 59.1439 23.363 59.1289 23.3739 59.1364C23.3739 59.1364 23.3667 59.1364 23.363 59.1439ZM64.1764 78.4304C64.1764 78.4304 63.7404 78.9319 63.6605 79.265C63.6605 79.3099 63.6605 79.3548 63.6605 79.3997C63.6532 79.8526 63.5042 80.1221 63.2136 80.5525C62.6976 82.1806 61.7784 83.8948 60.2597 85.055C58.988 86.6308 57.6109 87.5739 55.7652 88.2626C53.934 89.0261 52.3462 89.5501 50.1371 89.5801C50.0536 89.4715 41.3118 89.3892 41.0683 89.5838C38.336 89.4154 36.0325 88.8989 33.8634 87.645C31.9159 86.2415 30.0774 84.5909 28.7949 82.1507C28.7912 82.1507 28.784 82.1544 28.7767 82.1581C28.7694 82.1469 28.7622 82.1357 28.7549 82.1207C28.744 82.102 28.7331 82.0833 28.7222 82.0646C28.6786 81.9935 28.635 81.9186 28.595 81.8475C28.5551 81.7801 28.5187 81.7128 28.486 81.6566C28.4461 81.5855 28.4097 81.5294 28.3807 81.4807C28.3698 81.4583 28.3589 81.4358 28.348 81.4208C27.614 80.0248 27.2507 78.4116 27.0254 76.8284V76.8172C26.9455 75.5484 26.9818 74.4855 26.9891 74.2534V74.2085C27.0073 73.9652 26.9927 73.7444 27.0472 73.5086C27.0908 73.0932 27.1308 71.8917 27.1308 71.8206C27.3488 70.8999 27.6322 70.0466 28.1736 69.0435C28.4206 68.1115 28.8784 67.3106 29.4743 66.7903C29.4743 66.7903 31.102 64.7468 31.4218 64.3426C31.4254 64.3426 31.4254 64.3388 31.429 64.3351C32.5881 63.0775 34.1214 61.9659 35.4366 61.3334C35.4802 61.3034 35.5311 61.2735 35.5783 61.2473C35.6183 61.2249 35.6546 61.2024 35.6946 61.1837C36.156 60.9479 36.6756 60.8468 37.1952 60.7458C37.1952 60.7458 37.2242 60.742 37.2824 60.7271C37.2969 60.7271 37.3151 60.7196 37.3369 60.7158C37.355 60.7158 37.3659 60.7083 37.3877 60.7046C37.4386 60.6896 37.5004 60.6747 37.5694 60.6597C37.8964 60.5848 38.3978 60.4613 38.8701 60.3416C38.8738 60.3416 38.8774 60.3416 38.8847 60.3416C39.0445 60.3004 39.2916 60.2742 39.5786 60.2555C39.9856 60.2255 40.4797 60.2143 40.9557 60.2143C41.8459 60.2106 42.6561 60.2293 42.6561 60.2293H42.6852C42.8959 60.2293 44.124 60.2293 45.1704 60.2293C45.2321 60.2293 45.2939 60.2293 45.352 60.2293C45.7008 60.2293 46.0206 60.2255 46.2604 60.218V60.2255C46.195 60.2442 50.0863 60.0534 50.3116 60.0683C52.9312 60.2442 55.1984 60.8356 57.4111 62.1942C59.5512 63.5978 61.426 65.1585 62.7013 67.5763C63.8966 69.5675 64.6451 72.2361 64.4489 74.7475C64.5361 75.9489 64.5034 77.4572 64.1764 78.4304Z" fill="black"/>
</svg>
