<svg width="144" height="144" viewBox="0 0 144 144" fill="none" xmlns="http://www.w3.org/2000/svg">
<rect width="144" height="144" fill="white"/>
<path d="M127.127 55.1823H127.13C127.102 55.6212 127.066 56.0319 127.031 56.315C127.031 56.3363 127.031 56.3611 127.023 56.3823C127.023 56.4283 127.009 56.4708 127.006 56.5097C126.998 56.5557 126.991 56.5947 126.984 56.623C126.977 56.6513 126.97 56.6726 126.966 56.6867L126.806 56.708L126.6 56.7398L126.486 56.7575L126.332 56.7788H126.297C124.783 57.0159 104.303 56.9734 104.303 56.8637C103.929 57.2708 104.082 93.6389 104.122 93.6C103.883 93.4725 95.1782 93.4832 95.3598 93.3557C95.2031 93.4725 95.0393 85.4478 94.968 82.6513V82.6371C94.968 82.5274 94.968 82.4248 94.9609 82.3327C94.9716 82.2513 94.9823 82.0283 94.993 81.692C95.0927 78.8283 95.2031 67.6708 95.2138 66.9593V66.9239C95.1996 61.7203 95.2245 57.0265 95.3492 56.9345C95.2459 56.8212 82.5199 56.8 81.1842 56.8531C80.9563 56.8425 80.6749 56.8283 80.4292 56.8035C80.4292 56.8035 80.4113 56.8 80.4042 56.8C80.2938 56.7894 80.1905 56.7717 80.105 56.7575H80.0979C79.2146 56.7717 72.1945 57.0265 72.0449 57.0018C71.8953 56.8566 72.1482 48.0637 72.3833 48C72.3833 48.046 74.2496 48.0814 77.2379 48.1133H77.4338C89.8285 48.2336 120.73 48.223 120.591 48.1805C120.612 48.1876 120.634 48.1912 120.655 48.1912H120.687V48.1876C120.694 48.1876 120.705 48.1912 120.723 48.1912C120.801 48.1982 120.983 48.2088 121.225 48.2159C121.684 48.2336 122.365 48.2372 123.009 48.1876C123.017 48.1841 123.027 48.1841 123.034 48.1841C123.034 48.1805 123.045 48.1805 123.052 48.1805C123.066 48.1805 123.077 48.1805 123.091 48.177C123.116 48.177 123.138 48.1735 123.163 48.1699C123.198 48.1664 123.234 48.1628 123.273 48.1593C124.163 48.0814 126.998 47.8867 126.949 48.2018C126.998 48.0885 127.002 49.3947 126.988 50.485C126.988 50.4991 127.088 51.4938 127.152 52.3504C127.152 52.3788 127.152 52.4035 127.159 52.4283C127.159 52.4885 127.166 52.5487 127.169 52.6053C127.18 52.7788 127.191 52.9416 127.198 53.0796V53.1752C127.209 53.6319 127.177 54.4496 127.127 55.1823Z" fill="black"/>
<path d="M69.5384 71.7815C69.5384 71.7354 69.5384 71.6929 69.5384 71.6468C69.5384 71.6043 69.5384 71.5617 69.5384 71.5227C69.5384 71.4943 69.5384 71.4695 69.5384 71.4447C69.5384 71.4163 69.5384 71.3844 69.5384 71.356V71.3029C69.5384 71.278 69.5384 71.2497 69.5384 71.2284V71.2142C69.5384 71.2142 69.5384 71.1859 69.5384 71.1752C69.5384 71.1646 69.5384 71.1539 69.5384 71.1398C69.5384 71.1114 69.5384 71.083 69.535 71.0618C69.535 71.0086 69.5316 70.9802 69.5316 70.9802V70.9696C69.5281 70.9022 69.5178 70.8384 69.5143 70.7745C69.893 67.6472 68.9361 64.5162 68.1616 61.8285C68.1616 61.8285 67.2047 60.1443 66.7572 59.6231C66.74 59.5805 66.7228 59.5415 66.7056 59.5025C66.1824 58.3359 65.4699 57.1942 64.5956 56.1482H64.5921C63.9519 55.2866 63.1499 54.3859 62.1482 53.5704C62.1344 53.5598 62.1172 53.5456 62.1069 53.535C60.6302 52.3471 59.5873 51.599 58.9092 51.1451C58.8575 51.099 58.8094 51.0529 58.7577 51.0033C58.534 50.8721 58.3103 50.7444 58.09 50.6274C57.966 50.5601 57.9075 50.5281 57.9075 50.5281H57.9006C54.6754 48.8013 51.4949 48.0957 47.8221 48.1135C47.6225 48.2057 43.7501 48.2376 41.2546 48.1737C41.2546 48.1737 41.2511 48.1737 41.2477 48.1737C41.0377 48.1596 39.3407 48.0425 39.1618 48.0177C39.0069 48.0035 38.8657 48 38.7384 48H38.7074C38.4871 48.0035 38.3012 48.0177 38.1429 48.0425C38.0396 48.0567 37.9432 48.0745 37.8572 48.0922C37.8572 48.0922 37.84 48.0922 37.8056 48.0993C37.7918 48.0993 37.778 48.1028 37.7608 48.1064C37.747 48.1064 37.7333 48.1099 37.7126 48.1135C37.6954 48.1135 37.6782 48.1206 37.6575 48.1241C37.4717 48.156 37.2101 48.2021 37.0999 48.2269C37.0689 48.234 37.0311 48.2376 36.9863 48.2376C36.9072 48.2376 36.8108 48.2305 36.7247 48.2198C36.7006 48.2163 36.68 48.2127 36.6593 48.2092C36.5802 48.1986 36.5113 48.1879 36.4838 48.1844C36.4012 48.1773 35.8298 48.2766 35.6405 48.2624H35.6129C35.4133 48.2482 35.162 48.2801 34.9417 48.3368C34.9314 48.3368 34.9176 48.3404 34.9038 48.3439C34.897 48.3439 34.8866 48.351 34.8763 48.351C34.0158 48.5425 32.4634 48.9999 32.4634 48.9999C31.6304 49.1595 30.9557 49.4821 30.4601 49.6169C28.8767 50.2622 27.5308 51.0813 26.481 52.0493C26.481 52.0493 26.4053 52.1202 26.2917 52.2266C26.0886 52.4074 25.7616 52.6911 25.5069 52.8577C25.4518 52.8932 25.4002 52.9251 25.3554 52.9499C25.3485 52.9499 25.3382 52.957 25.3313 52.9641C25.3072 52.9747 25.2797 52.9925 25.2487 53.0173C25.2281 53.0315 25.2074 53.0492 25.1833 53.0634C25.08 53.1414 24.9527 53.2442 24.8184 53.3683C24.7978 53.386 24.7771 53.4038 24.753 53.425C24.6567 53.5101 24.5568 53.6023 24.457 53.691C24.223 53.9073 23.9923 54.1271 23.8133 54.2973C23.7548 54.3505 23.6929 54.4143 23.6344 54.4746C23.5449 54.5597 23.4967 54.6129 23.4967 54.6129C23.4967 54.6129 23.4898 54.62 23.4829 54.6271C23.39 54.7051 22.9218 55.1164 22.3711 55.7156C22.051 56.0666 21.6964 56.4815 21.366 56.9389C20.5227 58.109 20.6466 58.0629 20.0993 58.9458C20.0821 58.9742 20.0614 59.0026 20.0442 59.0345C20.0029 59.0983 19.9582 59.1692 19.91 59.2437C19.8859 59.2827 19.8584 59.3252 19.8343 59.3642C19.7792 59.4493 19.7241 59.538 19.669 59.6266C19.614 59.7188 19.5554 59.8145 19.4969 59.9103C19.2181 60.3854 18.9221 60.9315 18.6398 61.5094C18.1407 62.5448 17.6933 63.683 17.4902 64.6829C17.4764 64.7396 17.4661 64.7999 17.4558 64.8531V64.8602C17.3559 65.4275 17.294 66.36 17.2596 67.3706C17.146 68.5194 17.0186 69.7037 16.9394 70.7072C16.9773 71.6894 16.7191 72.4588 16.8258 72.9871C16.8258 72.9871 16.8258 73.0119 16.819 73.0545C16.8121 73.1573 16.8052 73.3736 16.8431 73.6218C17.2355 76.4726 18.3989 79.4121 19.669 82.1813C19.6725 82.1813 19.6725 82.1884 19.6725 82.1884C19.7035 82.2629 20.237 83.3975 20.7154 84.0889C20.7808 84.1847 20.8497 84.2698 20.9116 84.3442C20.9151 84.3513 20.922 84.3584 20.9289 84.362C20.9426 84.3797 20.9633 84.401 20.9805 84.4222C21.7171 85.291 22.4709 86.1029 23.2488 86.8724C23.3142 86.9398 23.3831 87.0071 23.445 87.0709C23.4863 87.1099 23.5242 87.149 23.5621 87.188C23.6447 87.266 23.7273 87.344 23.8099 87.4291C23.834 87.4503 23.8615 87.4716 23.8856 87.4964C23.9132 87.5213 23.9407 87.5461 23.9717 87.5744C25.1076 88.6417 26.3123 89.6239 27.6341 90.5529C28.4912 91.0245 28.7287 91.1167 29.2966 91.4642C29.3139 91.4748 29.3242 91.4819 29.3242 91.4819C29.3242 91.4819 29.6684 91.801 30.4601 92.1627C30.4601 92.1627 30.4601 92.1627 30.4635 92.1627C31.0143 92.4144 31.7853 92.6875 32.8076 92.886C34.7627 93.3222 36.7144 93.7122 39.1411 93.5704C38.8623 93.6271 47.4676 93.4817 47.8359 93.4533C49.9218 93.5101 51.6876 93.5562 53.7185 92.8222C53.7185 92.8222 54.2141 92.6804 54.7408 92.5704C54.7408 92.5704 54.7477 92.5704 54.7511 92.5704C54.8199 92.5563 54.8922 92.5421 54.9645 92.5279C54.968 92.5279 54.9783 92.5279 54.9817 92.5279C55.5772 92.418 56.3792 92.1024 56.3792 92.1024C58.9057 90.5458 61.0158 89.163 63.0466 86.8724C63.4528 86.3724 64.0758 86.0817 64.2445 85.8299C64.272 85.8051 64.2961 85.7803 64.3167 85.759H64.3236L64.389 85.6881L64.4648 85.6065L64.7367 85.3158L64.9776 85.0569C65.3941 84.518 65.7659 84.1067 66.0275 83.6493H66.0344C66.0344 83.6493 66.0344 83.6386 66.0378 83.6351C66.0722 83.5854 66.2719 83.2947 66.6333 82.6245C66.6402 82.6068 66.6505 82.5926 66.6608 82.5749C66.8708 82.1778 67.1393 81.653 67.4594 80.9758C68.3681 79.0539 68.8362 77.6144 69.2424 75.5933C69.2734 75.455 69.2975 75.3167 69.3216 75.1819C69.3422 75.0756 69.3629 74.9692 69.3767 74.8628C69.387 74.7955 69.3939 74.7316 69.4076 74.6714C69.4145 74.6111 69.4214 74.5508 69.4317 74.4905C69.4386 74.4231 69.4455 74.3593 69.4558 74.292C69.4627 74.2388 69.4696 74.1856 69.473 74.1324C69.4765 74.0828 69.4834 74.0331 69.4868 73.9799C69.5763 73.2211 69.6038 72.4517 69.5763 71.6823V71.7745L69.5384 71.7815ZM22.1336 56.0312C22.1336 56.0312 22.1336 56.017 22.1439 56.0241C22.1439 56.0241 22.137 56.0241 22.1336 56.0312ZM60.7989 74.3026C60.7989 74.3026 60.3858 74.7777 60.3101 75.0933C60.3101 75.1358 60.3101 75.1784 60.3101 75.2209C60.3032 75.65 60.1621 75.9053 59.8867 76.313C59.398 77.8555 58.5271 79.4794 57.0883 80.5786C55.8836 82.0714 54.579 82.9649 52.8304 83.6174C51.0956 84.3407 49.5914 84.8371 47.4986 84.8655C47.4194 84.7626 39.1377 84.6846 38.907 84.869C36.3186 84.7095 34.1363 84.2201 32.0813 83.0323C30.2363 81.7026 28.4946 80.1389 27.2796 77.8271C27.2761 77.8271 27.2692 77.8306 27.2623 77.8342C27.2555 77.8236 27.2486 77.8129 27.2417 77.7987C27.2314 77.781 27.221 77.7633 27.2107 77.7455C27.1694 77.6782 27.1281 77.6073 27.0902 77.5399C27.0524 77.4761 27.018 77.4122 26.987 77.3591C26.9491 77.2917 26.9147 77.2385 26.8872 77.1924C26.8768 77.1711 26.8665 77.1499 26.8562 77.1357C26.1609 75.8131 25.8167 74.2849 25.6032 72.785V72.7744C25.5275 71.5723 25.5619 70.5653 25.5688 70.3455V70.303C25.586 70.0725 25.5723 69.8633 25.6239 69.6399C25.6652 69.2463 25.7031 68.1081 25.7031 68.0407C25.9096 67.1685 26.1781 66.36 26.691 65.4098C26.925 64.5269 27.3587 63.7681 27.9232 63.2752C27.9232 63.2752 29.4653 61.3392 29.7682 60.9563C29.7717 60.9563 29.7717 60.9527 29.7751 60.9492C30.8731 59.7578 32.3257 58.7047 33.5718 58.1055C33.6131 58.0771 33.6612 58.0487 33.706 58.0239C33.7439 58.0026 33.7783 57.9814 33.8161 57.9636C34.2533 57.7403 34.7455 57.6445 35.2377 57.5488C35.2377 57.5488 35.2653 57.5452 35.3203 57.5311C35.3341 57.5311 35.3513 57.524 35.372 57.5204C35.3892 57.5204 35.3995 57.5133 35.4202 57.5098C35.4684 57.4956 35.5269 57.4814 35.5923 57.4672C35.9021 57.3963 36.3771 57.2793 36.8246 57.1658C36.828 57.1658 36.8314 57.1658 36.8383 57.1658C36.9898 57.1268 37.2238 57.102 37.4958 57.0843C37.8813 57.0559 38.3494 57.0453 38.8003 57.0453C39.6436 57.0417 40.4112 57.0595 40.4112 57.0595H40.4388C40.6384 57.0595 41.8019 57.0595 42.7932 57.0595C42.8517 57.0595 42.9102 57.0595 42.9653 57.0595C43.2957 57.0595 43.5986 57.0559 43.8258 57.0488V57.0559C43.7639 57.0737 47.4504 56.8928 47.6638 56.907C50.1455 57.0737 52.2934 57.6339 54.3897 58.921C56.4171 60.2507 58.1932 61.7293 59.4014 64.0198C60.5339 65.9062 61.2429 68.4343 61.0571 70.8135C61.1397 71.9517 61.1087 73.3807 60.7989 74.3026Z" fill="black"/>
</svg>
