<svg width="72" height="72" viewBox="0 0 72 72" fill="none" xmlns="http://www.w3.org/2000/svg">
<rect width="72" height="72" fill="white"/>
<path d="M63.5634 27.5911H63.5651C63.5509 27.8106 63.5331 28.0159 63.5153 28.1575C63.5153 28.1681 63.5153 28.1805 63.5117 28.1911C63.5117 28.2142 63.5046 28.2354 63.5028 28.2549C63.4992 28.2779 63.4957 28.2973 63.4921 28.3115C63.4886 28.3257 63.485 28.3363 63.4832 28.3434L63.4031 28.354L63.2998 28.3699L63.2428 28.3788L63.1662 28.3894H63.1484C62.3916 28.508 52.1516 28.4867 52.1516 28.4319C51.9647 28.6354 52.0412 46.8195 52.0608 46.8C51.9415 46.7363 47.5891 46.7416 47.6799 46.6779C47.6016 46.7363 47.5196 42.7239 47.484 41.3257V41.3186C47.484 41.2637 47.484 41.2124 47.4805 41.1664C47.4858 41.1257 47.4911 41.0141 47.4965 40.846C47.5464 39.4141 47.6016 33.8354 47.6069 33.4796V33.4619C47.5998 30.8602 47.6122 28.5133 47.6746 28.4673C47.6229 28.4106 41.2599 28.4 40.5921 28.4265C40.4781 28.4212 40.3375 28.4142 40.2146 28.4018C40.2146 28.4018 40.2057 28.4 40.2021 28.4C40.1469 28.3947 40.0953 28.3858 40.0525 28.3788H40.049C39.6073 28.3858 36.0972 28.5133 36.0224 28.5009C35.9476 28.4283 36.0741 24.0319 36.1916 24C36.1916 24.023 37.1248 24.0407 38.6189 24.0566H38.7169C44.9143 24.1168 60.3649 24.1115 60.2955 24.0903C60.3062 24.0938 60.3169 24.0956 60.3275 24.0956H60.3436V24.0938C60.3471 24.0938 60.3525 24.0956 60.3614 24.0956C60.4006 24.0991 60.4914 24.1044 60.6125 24.108C60.8422 24.1168 61.1824 24.1186 61.5047 24.0938C61.5083 24.092 61.5136 24.092 61.5172 24.092C61.5172 24.0903 61.5225 24.0903 61.5261 24.0903C61.5332 24.0903 61.5385 24.0903 61.5456 24.0885C61.5581 24.0885 61.5688 24.0867 61.5813 24.085C61.5991 24.0832 61.6169 24.0814 61.6365 24.0796C62.0817 24.0407 63.4992 23.9434 63.4743 24.1009C63.4992 24.0442 63.501 24.6973 63.4939 25.2425C63.4939 25.2496 63.5438 25.7469 63.5758 26.1752C63.5758 26.1894 63.5758 26.2018 63.5794 26.2142C63.5794 26.2442 63.5829 26.2743 63.5847 26.3027C63.5901 26.3894 63.5954 26.4708 63.599 26.5398V26.5876C63.6043 26.8159 63.5883 27.2248 63.5634 27.5911Z" fill="black"/>
<path d="M34.7692 35.8908C34.7692 35.8677 34.7692 35.8464 34.7692 35.8234C34.7692 35.8021 34.7692 35.7809 34.7692 35.7614C34.7692 35.7472 34.7692 35.7348 34.7692 35.7223C34.7692 35.7082 34.7692 35.6922 34.7692 35.678V35.6514C34.7692 35.639 34.7692 35.6248 34.7692 35.6142V35.6071C34.7692 35.6071 34.7692 35.5929 34.7692 35.5876C34.7692 35.5823 34.7692 35.577 34.7692 35.5699C34.7692 35.5557 34.7692 35.5415 34.7675 35.5309C34.7675 35.5043 34.7658 35.4901 34.7658 35.4901V35.4848C34.7641 35.4511 34.7589 35.4192 34.7572 35.3873C34.9465 33.8236 34.468 32.2581 34.0808 30.9143C34.0808 30.9143 33.6023 30.0721 33.3786 29.8115C33.37 29.7903 33.3614 29.7708 33.3528 29.7513C33.0912 29.168 32.7349 28.5971 32.2978 28.0741H32.2961C31.9759 27.6433 31.5749 27.193 31.0741 26.7852C31.0672 26.7799 31.0586 26.7728 31.0535 26.7675C30.3151 26.1736 29.7936 25.7995 29.4546 25.5726C29.4288 25.5495 29.4047 25.5265 29.3789 25.5016C29.267 25.436 29.1551 25.3722 29.045 25.3137C28.983 25.28 28.9538 25.2641 28.9538 25.2641H28.9503C27.3377 24.4007 25.7474 24.0479 23.9111 24.0567C23.8112 24.1028 21.875 24.1188 20.6273 24.0869C20.6273 24.0869 20.6256 24.0869 20.6238 24.0869C20.5189 24.0798 19.6704 24.0213 19.5809 24.0089C19.5034 24.0018 19.4329 24 19.3692 24H19.3537C19.2435 24.0018 19.1506 24.0089 19.0714 24.0213C19.0198 24.0284 18.9716 24.0372 18.9286 24.0461C18.9286 24.0461 18.92 24.0461 18.9028 24.0496C18.8959 24.0496 18.889 24.0514 18.8804 24.0532C18.8735 24.0532 18.8666 24.055 18.8563 24.0567C18.8477 24.0567 18.8391 24.0603 18.8288 24.0621C18.7358 24.078 18.605 24.1011 18.55 24.1135C18.5345 24.117 18.5155 24.1188 18.4932 24.1188C18.4536 24.1188 18.4054 24.1152 18.3624 24.1099C18.3503 24.1081 18.34 24.1064 18.3297 24.1046C18.2901 24.0993 18.2557 24.094 18.2419 24.0922C18.2006 24.0886 17.9149 24.1383 17.8202 24.1312H17.8065C17.7066 24.1241 17.581 24.1401 17.4709 24.1684C17.4657 24.1684 17.4588 24.1702 17.4519 24.172C17.4485 24.172 17.4433 24.1755 17.4382 24.1755C17.0079 24.2713 16.2317 24.5 16.2317 24.5C15.8152 24.5797 15.4779 24.7411 15.23 24.8084C14.4384 25.1311 13.7654 25.5406 13.2405 26.0246C13.2405 26.0246 13.2026 26.0601 13.1458 26.1133C13.0443 26.2037 12.8808 26.3455 12.7534 26.4289C12.7259 26.4466 12.7001 26.4625 12.6777 26.475C12.6743 26.475 12.6691 26.4785 12.6657 26.482C12.6536 26.4874 12.6398 26.4962 12.6244 26.5086C12.614 26.5157 12.6037 26.5246 12.5917 26.5317C12.54 26.5707 12.4763 26.6221 12.4092 26.6842C12.3989 26.693 12.3886 26.7019 12.3765 26.7125C12.3283 26.7551 12.2784 26.8012 12.2285 26.8455C12.1115 26.9536 11.9962 27.0636 11.9067 27.1487C11.8774 27.1752 11.8464 27.2072 11.8172 27.2373C11.7724 27.2798 11.7483 27.3064 11.7483 27.3064C11.7483 27.3064 11.7449 27.31 11.7415 27.3135C11.695 27.3525 11.4609 27.5582 11.1855 27.8578C11.0255 28.0333 10.8482 28.2408 10.683 28.4695C10.2613 29.0545 10.3233 29.0315 10.0497 29.4729C10.041 29.4871 10.0307 29.5013 10.0221 29.5172C10.0015 29.5491 9.97909 29.5846 9.95499 29.6218C9.94294 29.6413 9.92918 29.6626 9.91713 29.6821C9.88959 29.7247 9.86206 29.769 9.83452 29.8133C9.80698 29.8594 9.77772 29.9073 9.74847 29.9551C9.60906 30.1927 9.46105 30.4657 9.31992 30.7547C9.07037 31.2724 8.84663 31.8415 8.74509 32.3414C8.7382 32.3698 8.73304 32.4 8.72788 32.4265V32.4301C8.67797 32.7138 8.64699 33.18 8.62978 33.6853C8.57298 34.2597 8.5093 34.8519 8.46972 35.3536C8.48865 35.8447 8.35957 36.2294 8.41292 36.4936C8.41292 36.4936 8.41292 36.506 8.40948 36.5272C8.40604 36.5787 8.4026 36.6868 8.42153 36.8109C8.61773 38.2363 9.19945 39.706 9.83452 41.0907C9.83624 41.0907 9.83624 41.0942 9.83624 41.0942C9.85173 41.1314 10.1185 41.6988 10.3577 42.0445C10.3904 42.0923 10.4248 42.1349 10.4558 42.1721C10.4575 42.1757 10.461 42.1792 10.4644 42.181C10.4713 42.1898 10.4816 42.2005 10.4902 42.2111C10.8585 42.6455 11.2355 43.0515 11.6244 43.4362C11.6571 43.4699 11.6915 43.5036 11.7225 43.5355C11.7432 43.555 11.7621 43.5745 11.781 43.594C11.8223 43.633 11.8636 43.672 11.905 43.7145C11.917 43.7252 11.9308 43.7358 11.9428 43.7482C11.9566 43.7606 11.9704 43.773 11.9858 43.7872C12.5538 44.3209 13.1562 44.812 13.817 45.2765C14.2456 45.5122 14.3643 45.5583 14.6483 45.7321C14.6569 45.7374 14.6621 45.7409 14.6621 45.7409C14.6621 45.7409 14.8342 45.9005 15.23 46.0813C15.23 46.0813 15.23 46.0813 15.2318 46.0813C15.5071 46.2072 15.8926 46.3437 16.4038 46.443C17.3814 46.6611 18.3572 46.8561 19.5705 46.7852C19.4311 46.8135 23.7338 46.7409 23.9179 46.7267C24.9609 46.755 25.8438 46.7781 26.8592 46.4111C26.8592 46.4111 27.1071 46.3402 27.3704 46.2852C27.3704 46.2852 27.3738 46.2852 27.3756 46.2852C27.41 46.2781 27.4461 46.271 27.4823 46.264C27.484 46.264 27.4891 46.264 27.4909 46.264C27.7886 46.209 28.1896 46.0512 28.1896 46.0512C29.4529 45.2729 30.5079 44.5815 31.5233 43.4362C31.7264 43.1862 32.0379 43.0408 32.1222 42.915C32.136 42.9026 32.148 42.8901 32.1584 42.8795H32.1618L32.1945 42.844L32.2324 42.8033L32.3683 42.6579L32.4888 42.5285C32.6971 42.259 32.8829 42.0533 33.0137 41.8246H33.0172C33.0172 41.8246 33.0172 41.8193 33.0189 41.8175C33.0361 41.7927 33.1359 41.6473 33.3166 41.3123C33.3201 41.3034 33.3253 41.2963 33.3304 41.2874C33.4354 41.0889 33.5696 40.8265 33.7297 40.4879C34.1841 39.527 34.4181 38.8072 34.6212 37.7966C34.6367 37.7275 34.6487 37.6583 34.6608 37.591C34.6711 37.5378 34.6814 37.4846 34.6883 37.4314C34.6935 37.3977 34.6969 37.3658 34.7038 37.3357C34.7073 37.3055 34.7107 37.2754 34.7159 37.2453C34.7193 37.2116 34.7228 37.1797 34.7279 37.146C34.7314 37.1194 34.7348 37.0928 34.7365 37.0662C34.7382 37.0414 34.7417 37.0166 34.7434 36.99C34.7882 36.6106 34.8019 36.2258 34.7882 35.8411V35.8872L34.7692 35.8908ZM11.0668 28.0156C11.0668 28.0156 11.0668 28.0085 11.072 28.012C11.072 28.012 11.0685 28.012 11.0668 28.0156ZM30.3995 37.1513C30.3995 37.1513 30.1929 37.3889 30.1551 37.5467C30.1551 37.5679 30.1551 37.5892 30.1551 37.6105C30.1516 37.825 30.0811 37.9526 29.9434 38.1565C29.699 38.9277 29.2636 39.7397 28.5441 40.2893C27.9418 41.0357 27.2895 41.4825 26.4152 41.8087C25.5478 42.1703 24.7957 42.4186 23.7493 42.4327C23.7097 42.3813 19.5688 42.3423 19.4535 42.4345C18.1593 42.3547 17.0681 42.1101 16.0407 41.5162C15.1182 40.8513 14.2473 40.0695 13.6398 38.9135C13.6381 38.9135 13.6346 38.9153 13.6312 38.9171C13.6277 38.9118 13.6243 38.9065 13.6208 38.8994C13.6157 38.8905 13.6105 38.8816 13.6054 38.8728C13.5847 38.8391 13.5641 38.8036 13.5451 38.7699C13.5262 38.738 13.509 38.7061 13.4935 38.6795C13.4746 38.6458 13.4573 38.6192 13.4436 38.5962C13.4384 38.5856 13.4333 38.5749 13.4281 38.5678C13.0804 37.9065 12.9083 37.1424 12.8016 36.3925V36.3872C12.7638 35.7862 12.781 35.2827 12.7844 35.1728V35.1515C12.793 35.0362 12.7861 34.9316 12.812 34.8199C12.8326 34.6232 12.8515 34.0541 12.8515 34.0204C12.9548 33.5842 13.089 33.18 13.3455 32.7049C13.4625 32.2634 13.6794 31.884 13.9616 31.6376C13.9616 31.6376 14.7327 30.6696 14.8841 30.4781C14.8858 30.4781 14.8858 30.4764 14.8875 30.4746C15.4366 29.8789 16.1629 29.3524 16.7859 29.0527C16.8065 29.0386 16.8306 29.0244 16.853 29.012C16.8719 29.0013 16.8891 28.9907 16.9081 28.9818C17.1266 28.8701 17.3728 28.8223 17.6189 28.7744C17.6189 28.7744 17.6326 28.7726 17.6602 28.7655C17.6671 28.7655 17.6757 28.762 17.686 28.7602C17.6946 28.7602 17.6998 28.7567 17.7101 28.7549C17.7342 28.7478 17.7634 28.7407 17.7961 28.7336C17.951 28.6982 18.1885 28.6397 18.4123 28.5829C18.414 28.5829 18.4157 28.5829 18.4192 28.5829C18.4949 28.5634 18.6119 28.551 18.7479 28.5421C18.9406 28.528 19.1747 28.5226 19.4002 28.5226C19.8218 28.5209 20.2056 28.5297 20.2056 28.5297H20.2194C20.3192 28.5297 20.9009 28.5297 21.3966 28.5297C21.4258 28.5297 21.4551 28.5297 21.4826 28.5297C21.6479 28.5297 21.7993 28.528 21.9129 28.5244V28.528C21.8819 28.5368 23.7252 28.4464 23.8319 28.4535C25.0728 28.5368 26.1467 28.8169 27.1948 29.4605C28.2085 30.1253 29.0966 30.8646 29.7007 32.0099C30.2669 32.9531 30.6215 34.2172 30.5285 35.4068C30.5698 35.9759 30.5543 36.6903 30.3995 37.1513Z" fill="black"/>
</svg>
