<svg width="114" height="114" viewBox="0 0 114 114" fill="none" xmlns="http://www.w3.org/2000/svg">
<rect width="114" height="114" fill="white"/>
<path d="M100.642 43.686H100.645C100.622 44.0335 100.594 44.3585 100.566 44.5827C100.566 44.5996 100.566 44.6192 100.56 44.636C100.56 44.6724 100.549 44.706 100.546 44.7369C100.54 44.7733 100.535 44.8041 100.529 44.8265C100.524 44.849 100.518 44.8658 100.515 44.877L100.388 44.8938L100.225 44.919L100.134 44.933L100.013 44.9498H99.985C98.7866 45.1376 82.5734 45.104 82.5734 45.0171C82.2774 45.3394 82.3986 74.1308 82.4296 74.1C82.2407 73.9991 75.3494 74.0075 75.4932 73.9066C75.3691 73.9991 75.2394 67.6461 75.183 65.4323V65.4211C75.183 65.3342 75.183 65.2529 75.1774 65.1801C75.1859 65.1156 75.1943 64.9391 75.2028 64.6728C75.2817 62.4057 75.3691 53.5727 75.3776 53.0094V52.9814C75.3663 48.8619 75.3861 45.146 75.4847 45.0732C75.403 44.9835 65.3282 44.9667 64.2709 45.0087C64.0904 45.0003 63.8676 44.9891 63.6731 44.9695C63.6731 44.9695 63.659 44.9667 63.6533 44.9667C63.5659 44.9583 63.4842 44.9442 63.4165 44.933H63.4108C62.7116 44.9442 57.154 45.146 57.0355 45.1264C56.9171 45.0115 57.1173 38.0504 57.3034 38C57.3034 38.0364 58.7809 38.0645 61.1466 38.0897H61.3017C71.1142 38.185 95.5778 38.1765 95.4679 38.1429C95.4848 38.1485 95.5017 38.1513 95.5186 38.1513H95.544V38.1485C95.5496 38.1485 95.5581 38.1513 95.5722 38.1513C95.6342 38.1569 95.778 38.1653 95.9698 38.1709C96.3335 38.185 96.8721 38.1878 97.3824 38.1485C97.3881 38.1457 97.3965 38.1457 97.4022 38.1457C97.4022 38.1429 97.4106 38.1429 97.4163 38.1429C97.4275 38.1429 97.436 38.1429 97.4473 38.1401C97.467 38.1401 97.4839 38.1373 97.5037 38.1345C97.5319 38.1317 97.5601 38.1289 97.5911 38.1261C98.296 38.0645 100.54 37.9103 100.501 38.1597C100.54 38.0701 100.543 39.1041 100.532 39.9673C100.532 39.9785 100.611 40.7659 100.662 41.4441C100.662 41.4665 100.662 41.4861 100.667 41.5057C100.667 41.5534 100.673 41.601 100.676 41.6459C100.684 41.7832 100.693 41.9121 100.698 42.0214V42.097C100.707 42.4586 100.681 43.1059 100.642 43.686Z" fill="black"/>
<path d="M55.0512 56.8271C55.0512 56.7906 55.0512 56.7569 55.0512 56.7204C55.0512 56.6867 55.0512 56.653 55.0512 56.6221C55.0512 56.5997 55.0512 56.58 55.0512 56.5604C55.0512 56.5379 55.0512 56.5127 55.0512 56.4902V56.4481C55.0512 56.4285 55.0512 56.406 55.0512 56.3892V56.3779C55.0512 56.3779 55.0512 56.3555 55.0512 56.347C55.0512 56.3386 55.0512 56.3302 55.0512 56.319C55.0512 56.2965 55.0512 56.2741 55.0485 56.2572C55.0485 56.2151 55.0458 56.1927 55.0458 56.1927V56.1842C55.043 56.1309 55.0349 56.0804 55.0321 56.0298C55.3319 53.554 54.5743 51.0754 53.9612 48.9476C53.9612 48.9476 53.2037 47.6142 52.8494 47.2016C52.8358 47.1679 52.8222 47.137 52.8085 47.1062C52.3943 46.1826 51.8303 45.2787 51.1381 44.4507H51.1354C50.6285 43.7685 49.9936 43.0555 49.2006 42.4099C49.1897 42.4015 49.1761 42.3903 49.1679 42.3818C47.9989 41.4415 47.1732 40.8492 46.6364 40.4899C46.5955 40.4534 46.5574 40.4169 46.5165 40.3776C46.3394 40.2737 46.1622 40.1727 45.9878 40.08C45.8897 40.0267 45.8434 40.0014 45.8434 40.0014H45.838C43.2846 38.6344 40.7667 38.0758 37.8591 38.0898C37.7011 38.1628 34.6354 38.1881 32.6598 38.1375C32.6598 38.1375 32.6571 38.1375 32.6544 38.1375C32.4881 38.1263 31.1447 38.0337 31.003 38.014C30.8804 38.0028 30.7687 38 30.6678 38H30.6433C30.4689 38.0028 30.3218 38.014 30.1964 38.0337C30.1147 38.0449 30.0384 38.0589 29.9702 38.073C29.9702 38.073 29.9566 38.073 29.9294 38.0786C29.9185 38.0786 29.9076 38.0814 29.8939 38.0842C29.883 38.0842 29.8721 38.087 29.8558 38.0898C29.8422 38.0898 29.8285 38.0954 29.8122 38.0982C29.665 38.1235 29.4579 38.16 29.3707 38.1797C29.3462 38.1853 29.3162 38.1881 29.2808 38.1881C29.2181 38.1881 29.1418 38.1825 29.0737 38.174C29.0546 38.1712 29.0383 38.1684 29.0219 38.1656C28.9593 38.1572 28.9048 38.1488 28.883 38.146C28.8176 38.1404 28.3652 38.219 28.2153 38.2077H28.1935C28.0355 38.1965 27.8365 38.2218 27.6621 38.2667C27.654 38.2667 27.6431 38.2695 27.6322 38.2723C27.6267 38.2723 27.6185 38.2779 27.6104 38.2779C26.9291 38.4295 25.7001 38.7916 25.7001 38.7916C25.0407 38.9179 24.5066 39.1734 24.1142 39.28C22.8607 39.7909 21.7952 40.4393 20.9641 41.2057C20.9641 41.2057 20.9041 41.2618 20.8142 41.346C20.6534 41.4892 20.3945 41.7138 20.1929 41.8457C20.1493 41.8738 20.1084 41.899 20.073 41.9187C20.0675 41.9187 20.0594 41.9243 20.0539 41.9299C20.0348 41.9383 20.013 41.9524 19.9885 41.972C19.9722 41.9832 19.9558 41.9973 19.9367 42.0085C19.855 42.0703 19.7542 42.1517 19.6479 42.2499C19.6315 42.2639 19.6152 42.278 19.5961 42.2948C19.5198 42.3622 19.4408 42.4352 19.3618 42.5054C19.1765 42.6766 18.9939 42.8506 18.8522 42.9854C18.8059 43.0275 18.7568 43.078 18.7105 43.1257C18.6396 43.1931 18.6015 43.2352 18.6015 43.2352C18.6015 43.2352 18.596 43.2408 18.5906 43.2464C18.517 43.3082 18.1464 43.6338 17.7104 44.1082C17.457 44.3861 17.1763 44.7145 16.9147 45.0766C16.2471 46.003 16.3452 45.9665 15.9119 46.6654C15.8983 46.6879 15.8819 46.7104 15.8683 46.7356C15.8356 46.7861 15.8002 46.8423 15.762 46.9012C15.743 46.9321 15.7212 46.9658 15.7021 46.9967C15.6585 47.064 15.6149 47.1342 15.5713 47.2044C15.5277 47.2774 15.4814 47.3532 15.435 47.429C15.2143 47.8051 14.98 48.2374 14.7565 48.695C14.3614 49.5146 14.0071 50.4157 13.8463 51.2073C13.8354 51.2522 13.8273 51.2999 13.8191 51.342V51.3476C13.7401 51.7968 13.691 52.535 13.6638 53.3351C13.5738 54.2445 13.473 55.1821 13.4103 55.9765C13.4403 56.7541 13.2359 57.3632 13.3204 57.7815C13.3204 57.7815 13.3204 57.8011 13.315 57.8348C13.3095 57.9162 13.3041 58.0874 13.334 58.2839C13.6447 60.5408 14.5658 62.8679 15.5713 65.0602C15.574 65.0602 15.574 65.0658 15.574 65.0658C15.5985 65.1248 16.0209 66.023 16.3997 66.5704C16.4515 66.6462 16.506 66.7136 16.555 66.7725C16.5577 66.7781 16.5632 66.7837 16.5686 66.7866C16.5795 66.8006 16.5959 66.8174 16.6095 66.8343C17.1927 67.522 17.7894 68.1648 18.4053 68.774C18.4571 68.8273 18.5116 68.8806 18.5606 68.9312C18.5933 68.962 18.6233 68.9929 18.6533 69.0238C18.7187 69.0856 18.7841 69.1473 18.8495 69.2147C18.8685 69.2315 18.8903 69.2484 18.9094 69.268C18.9312 69.2877 18.953 69.3073 18.9775 69.3298C19.8768 70.1747 20.8305 70.9523 21.877 71.6877C22.5555 72.0611 22.7435 72.134 23.1931 72.4091C23.2068 72.4176 23.2149 72.4232 23.2149 72.4232C23.2149 72.4232 23.4874 72.6758 24.1142 72.9621C24.1142 72.9621 24.1142 72.9621 24.1169 72.9621C24.5529 73.1614 25.1633 73.3776 25.9726 73.5348C27.5204 73.88 29.0655 74.1888 30.9867 74.0765C30.7659 74.1214 37.5785 74.0064 37.87 73.9839C39.5214 74.0288 40.9193 74.0653 42.5271 73.4842C42.5271 73.4842 42.9195 73.372 43.3364 73.2849C43.3364 73.2849 43.3419 73.2849 43.3446 73.2849C43.3991 73.2737 43.4563 73.2625 43.5135 73.2513C43.5163 73.2513 43.5244 73.2513 43.5272 73.2513C43.9986 73.1642 44.6335 72.9144 44.6335 72.9144C46.6337 71.6821 48.3041 70.5873 49.9119 68.774C50.2334 68.3782 50.7266 68.148 50.8602 67.9487C50.882 67.929 50.901 67.9094 50.9174 67.8925H50.9228L50.9746 67.8364L51.0346 67.7718L51.2498 67.5417L51.4406 67.3367C51.7703 66.9101 52.0646 66.5844 52.2717 66.2223H52.2772C52.2772 66.2223 52.2772 66.2139 52.2799 66.2111C52.3071 66.1718 52.4652 65.9416 52.7513 65.4111C52.7568 65.3971 52.7649 65.3858 52.7731 65.3718C52.9393 65.0574 53.1519 64.642 53.4053 64.1058C54.1247 62.5844 54.4953 61.4447 54.8169 59.8447C54.8414 59.7352 54.8605 59.6257 54.8795 59.519C54.8959 59.4348 54.9122 59.3506 54.9231 59.2664C54.9313 59.2131 54.9368 59.1625 54.9477 59.1148C54.9531 59.0671 54.9586 59.0194 54.9667 58.9717C54.9722 58.9183 54.9776 58.8678 54.9858 58.8145C54.9913 58.7724 54.9967 58.7303 54.9994 58.6881C55.0022 58.6488 55.0076 58.6095 55.0103 58.5674C55.0812 57.9667 55.103 57.3576 55.0812 56.7485V56.8214L55.0512 56.8271ZM17.5224 44.358C17.5224 44.358 17.5224 44.3468 17.5306 44.3524C17.5306 44.3524 17.5251 44.3524 17.5224 44.358ZM48.1324 58.8229C48.1324 58.8229 47.8054 59.199 47.7455 59.4489C47.7455 59.4825 47.7455 59.5162 47.7455 59.5499C47.74 59.8896 47.6283 60.0917 47.4103 60.4145C47.0233 61.6356 46.3339 62.9212 45.1949 63.7914C44.2411 64.9732 43.2083 65.6806 41.824 66.1971C40.4506 66.7697 39.2598 67.1627 37.603 67.1852C37.5403 67.1038 30.9839 67.042 30.8014 67.188C28.7522 67.0617 27.0245 66.6743 25.3977 65.7339C23.9371 64.6813 22.5582 63.4433 21.5963 61.6131C21.5936 61.6131 21.5881 61.6159 21.5827 61.6187C21.5772 61.6103 21.5718 61.6019 21.5663 61.5907C21.5581 61.5766 21.55 61.5626 21.5418 61.5486C21.5091 61.4952 21.4764 61.4391 21.4464 61.3857C21.4164 61.3352 21.3892 61.2847 21.3647 61.2426C21.3347 61.1892 21.3074 61.1471 21.2856 61.1107C21.2775 61.0938 21.2693 61.077 21.2611 61.0657C20.7106 60.0187 20.4381 58.8089 20.2692 57.6215V57.613C20.2092 56.6614 20.2365 55.8642 20.2419 55.6902V55.6565C20.2556 55.474 20.2447 55.3084 20.2855 55.1316C20.3182 54.82 20.3482 53.9189 20.3482 53.8656C20.5117 53.175 20.7243 52.535 21.1303 51.7827C21.3156 51.0838 21.659 50.4831 22.1059 50.0929C22.1059 50.0929 23.3267 48.5602 23.5665 48.2571C23.5692 48.2571 23.5692 48.2542 23.5719 48.2514C24.4412 47.3083 25.5911 46.4746 26.5776 46.0002C26.6103 45.9777 26.6484 45.9553 26.6839 45.9356C26.7138 45.9188 26.7411 45.9019 26.7711 45.8879C27.1171 45.711 27.5068 45.6352 27.8965 45.5595C27.8965 45.5595 27.9183 45.5566 27.9619 45.5454C27.9728 45.5454 27.9864 45.5398 28.0028 45.537C28.0164 45.537 28.0246 45.5314 28.0409 45.5286C28.0791 45.5173 28.1254 45.5061 28.1772 45.4949C28.4224 45.4387 28.7985 45.3461 29.1527 45.2563C29.1555 45.2563 29.1582 45.2563 29.1636 45.2563C29.2835 45.2254 29.4688 45.2058 29.6841 45.1917C29.9893 45.1693 30.3599 45.1608 30.7169 45.1608C31.3845 45.158 31.9922 45.1721 31.9922 45.1721H32.014C32.172 45.1721 33.0931 45.1721 33.8779 45.1721C33.9242 45.1721 33.9705 45.1721 34.0141 45.1721C34.2757 45.1721 34.5155 45.1693 34.6954 45.1637V45.1693C34.6463 45.1833 37.5648 45.0401 37.7338 45.0514C39.6985 45.1833 41.3989 45.6268 43.0585 46.6458C44.6635 47.6984 46.0696 48.869 47.0261 50.6824C47.9226 52.1757 48.4839 54.1772 48.3368 56.0607C48.4022 56.9618 48.3777 58.093 48.1324 58.8229Z" fill="black"/>
</svg>
