<svg width="120" height="120" viewBox="0 0 120 120" fill="none" xmlns="http://www.w3.org/2000/svg">
<rect width="120" height="120" fill="white"/>
<path d="M105.939 45.9852H105.942C105.918 46.351 105.888 46.6932 105.859 46.9292C105.859 46.9469 105.859 46.9675 105.853 46.9852C105.853 47.0236 105.841 47.059 105.838 47.0914C105.832 47.1298 105.826 47.1622 105.82 47.1858C105.814 47.2094 105.808 47.2271 105.805 47.2389L105.672 47.2566L105.5 47.2832L105.405 47.2979L105.277 47.3156H105.247C103.986 47.5133 86.9194 47.4779 86.9194 47.3864C86.6078 47.7257 86.7354 78.0324 86.768 78C86.5692 77.8938 79.3152 77.9026 79.4665 77.7964C79.3359 77.8938 79.1994 71.2065 79.14 68.8761V68.8643C79.14 68.7728 79.14 68.6873 79.1341 68.6106C79.143 68.5428 79.1519 68.3569 79.1608 68.0767C79.2439 65.6902 79.3359 56.3923 79.3448 55.7994V55.7699C79.333 51.4336 79.3537 47.5221 79.4576 47.4454C79.3716 47.351 68.7666 47.3333 67.6535 47.3776C67.4636 47.3687 67.2291 47.3569 67.0243 47.3363C67.0243 47.3363 67.0095 47.3333 67.0035 47.3333C66.9115 47.3245 66.8254 47.3097 66.7542 47.2979H66.7483C66.0122 47.3097 60.1621 47.5221 60.0374 47.5015C59.9127 47.3805 60.1235 40.0531 60.3194 40C60.3194 40.0383 61.8747 40.0678 64.3649 40.0944H64.5281C74.8571 40.1947 100.608 40.1858 100.492 40.1504C100.51 40.1563 100.528 40.1593 100.546 40.1593H100.573V40.1563C100.579 40.1563 100.587 40.1593 100.602 40.1593C100.668 40.1652 100.819 40.174 101.021 40.1799C101.404 40.1947 101.971 40.1976 102.508 40.1563C102.514 40.1534 102.523 40.1534 102.529 40.1534C102.529 40.1504 102.537 40.1504 102.543 40.1504C102.555 40.1504 102.564 40.1504 102.576 40.1475C102.597 40.1475 102.615 40.1445 102.635 40.1416C102.665 40.1386 102.695 40.1357 102.727 40.1327C103.469 40.0678 105.832 39.9056 105.791 40.1681C105.832 40.0737 105.835 41.1622 105.823 42.0708C105.823 42.0826 105.906 42.9115 105.96 43.6254C105.96 43.649 105.96 43.6696 105.966 43.6903C105.966 43.7404 105.972 43.7906 105.975 43.8378C105.983 43.9823 105.992 44.118 105.998 44.233V44.3127C106.007 44.6932 105.98 45.3746 105.939 45.9852Z" fill="black"/>
<path d="M57.9489 59.818C57.9489 59.7795 57.9489 59.7441 57.9489 59.7057C57.9489 59.6702 57.9489 59.6348 57.9489 59.6023C57.9489 59.5786 57.9489 59.5579 57.9489 59.5372C57.9489 59.5136 57.9489 59.487 57.9489 59.4634V59.4191C57.9489 59.3984 57.9489 59.3747 57.9489 59.357V59.3452C57.9489 59.3452 57.9489 59.3215 57.9489 59.3127C57.9489 59.3038 57.9489 59.295 57.9489 59.2831C57.9489 59.2595 57.9489 59.2359 57.946 59.2181C57.946 59.1738 57.9431 59.1502 57.9431 59.1502V59.1413C57.9403 59.0852 57.9317 59.032 57.9288 58.9788C58.2443 56.3726 57.4469 53.7635 56.8015 51.5238C56.8015 51.5238 56.0041 50.1202 55.6312 49.6859C55.6168 49.6504 55.6025 49.6179 55.5881 49.5854C55.1521 48.6133 54.5584 47.6618 53.8298 46.7902H53.8269C53.2934 46.0721 52.6251 45.3216 51.7903 44.642C51.7789 44.6332 51.7645 44.6213 51.7559 44.6125C50.5254 43.6226 49.6562 42.9991 49.0911 42.6209C49.0481 42.5825 49.008 42.5441 48.9649 42.5027C48.7785 42.3934 48.592 42.287 48.4085 42.1895C48.3052 42.1334 48.2564 42.1068 48.2564 42.1068H48.2507C45.563 40.6678 42.9125 40.0798 39.8519 40.0946C39.6856 40.1714 36.4586 40.198 34.379 40.1448C34.379 40.1448 34.3761 40.1448 34.3732 40.1448C34.1982 40.133 32.7841 40.0355 32.635 40.0148C32.5059 40.003 32.3883 40 32.2821 40H32.2563C32.0727 40.003 31.9178 40.0148 31.7859 40.0355C31.6998 40.0473 31.6195 40.0621 31.5478 40.0768C31.5478 40.0768 31.5335 40.0768 31.5048 40.0827C31.4933 40.0827 31.4818 40.0857 31.4675 40.0886C31.456 40.0886 31.4446 40.0916 31.4273 40.0946C31.413 40.0946 31.3987 40.1005 31.3814 40.1034C31.2266 40.13 31.0086 40.1684 30.9168 40.1891C30.8909 40.195 30.8594 40.198 30.8221 40.198C30.7561 40.198 30.6758 40.1921 30.6041 40.1832C30.584 40.1802 30.5668 40.1773 30.5496 40.1743C30.4836 40.1655 30.4263 40.1566 30.4033 40.1537C30.3345 40.1477 29.8583 40.2305 29.7005 40.2187H29.6776C29.5112 40.2068 29.3018 40.2334 29.1183 40.2807C29.1097 40.2807 29.0982 40.2837 29.0867 40.2866C29.081 40.2866 29.0724 40.2925 29.0638 40.2925C28.3466 40.4521 27.053 40.8333 27.053 40.8333C26.3588 40.9662 25.7966 41.2351 25.3836 41.3474C24.0641 41.8852 22.9425 42.5677 22.0677 43.3744C22.0677 43.3744 22.0045 43.4335 21.9099 43.5221C21.7407 43.6728 21.4682 43.9092 21.2559 44.0481C21.21 44.0776 21.167 44.1042 21.1297 44.1249C21.1239 44.1249 21.1153 44.1308 21.1096 44.1367C21.0895 44.1456 21.0666 44.1604 21.0408 44.1811C21.0235 44.1929 21.0063 44.2077 20.9863 44.2195C20.9002 44.2845 20.7941 44.3702 20.6822 44.4736C20.665 44.4884 20.6478 44.5031 20.6277 44.5209C20.5474 44.5918 20.4642 44.6686 20.381 44.7425C20.186 44.9227 19.9938 45.1059 19.8446 45.2478C19.7959 45.2921 19.7442 45.3453 19.6955 45.3955C19.6209 45.4664 19.5807 45.5107 19.5807 45.5107C19.5807 45.5107 19.575 45.5166 19.5692 45.5226C19.4918 45.5876 19.1017 45.9303 18.6427 46.4297C18.376 46.7222 18.0805 47.0679 17.8052 47.4491C17.1024 48.4242 17.2057 48.3858 16.7496 49.1215C16.7352 49.1452 16.718 49.1688 16.7037 49.1954C16.6693 49.2486 16.632 49.3077 16.5918 49.3697C16.5717 49.4022 16.5488 49.4377 16.5287 49.4702C16.4828 49.5411 16.4369 49.615 16.391 49.6888C16.3451 49.7657 16.2964 49.8454 16.2476 49.9252C16.0153 50.3212 15.7686 50.7762 15.5334 51.2579C15.1174 52.1207 14.7445 53.0692 14.5753 53.9024C14.5638 53.9497 14.5552 53.9999 14.5466 54.0442V54.0502C14.4634 54.5229 14.4118 55.3 14.3831 56.1422C14.2885 57.0995 14.1823 58.0864 14.1164 58.9226C14.1479 59.7411 13.9328 60.3823 14.0217 60.8226C14.0217 60.8226 14.0217 60.8433 14.016 60.8787C14.0102 60.9644 14.0045 61.1447 14.036 61.3515C14.363 63.7272 15.3326 66.1767 16.391 68.4844C16.3939 68.4844 16.3939 68.4903 16.3939 68.4903C16.4197 68.5524 16.8643 69.4979 17.263 70.0741C17.3175 70.1539 17.3749 70.2248 17.4265 70.2869C17.4294 70.2928 17.4351 70.2987 17.4409 70.3016C17.4523 70.3164 17.4696 70.3341 17.4839 70.3519C18.0977 71.0758 18.7259 71.7525 19.3742 72.3937C19.4287 72.4498 19.4861 72.5059 19.5377 72.5591C19.5721 72.5916 19.6037 72.6241 19.6352 72.6566C19.7041 72.7216 19.7729 72.7866 19.8417 72.8576C19.8618 72.8753 19.8848 72.893 19.9049 72.9137C19.9278 72.9344 19.9507 72.9551 19.9766 72.9787C20.9231 73.8681 21.9271 74.6866 23.0286 75.4608C23.7428 75.8537 23.9407 75.9306 24.414 76.2201C24.4284 76.229 24.437 76.2349 24.437 76.2349C24.437 76.2349 24.7238 76.5008 25.3836 76.8022C25.3836 76.8022 25.3836 76.8022 25.3864 76.8022C25.8454 77.012 26.4879 77.2396 27.3398 77.405C28.9691 77.7685 30.5955 78.0935 32.6177 77.9753C32.3854 78.0226 39.5565 77.9014 39.8634 77.8778C41.6017 77.9251 43.0732 77.9635 44.7656 77.3518C44.7656 77.3518 45.1786 77.2336 45.6175 77.142C45.6175 77.142 45.6232 77.142 45.6261 77.142C45.6834 77.1302 45.7437 77.1184 45.8039 77.1066C45.8068 77.1066 45.8154 77.1066 45.8183 77.1066C46.3145 77.015 46.9828 76.752 46.9828 76.752C49.0883 75.4548 50.8466 74.3025 52.539 72.3937C52.8775 71.977 53.3967 71.7347 53.5372 71.5249C53.5602 71.5043 53.5802 71.4836 53.5975 71.4658H53.6032L53.6577 71.4067L53.7208 71.3388L53.9474 71.0965L54.1482 70.8808C54.4953 70.4317 54.8051 70.0889 55.0231 69.7077H55.0288C55.0288 69.7077 55.0288 69.6989 55.0317 69.6959C55.0604 69.6545 55.2267 69.4122 55.5279 68.8538C55.5336 68.839 55.5422 68.8272 55.5509 68.8124C55.7258 68.4815 55.9496 68.0442 56.2163 67.4798C56.9736 65.8783 57.3637 64.6786 57.7022 62.9944C57.728 62.8791 57.7481 62.7639 57.7682 62.6516C57.7854 62.563 57.8026 62.4743 57.814 62.3857C57.8226 62.3295 57.8284 62.2764 57.8399 62.2261C57.8456 62.1759 57.8513 62.1257 57.8599 62.0754C57.8657 62.0193 57.8714 61.9661 57.88 61.91C57.8858 61.8656 57.8915 61.8213 57.8944 61.777C57.8972 61.7356 57.903 61.6943 57.9058 61.6499C57.9804 61.0176 58.0034 60.3764 57.9804 59.7352V59.812L57.9489 59.818ZM18.4448 46.6927C18.4448 46.6927 18.4448 46.6808 18.4534 46.6868C18.4534 46.6868 18.4477 46.6867 18.4448 46.6927ZM50.6659 61.9188C50.6659 61.9188 50.3217 62.3148 50.2586 62.5778C50.2586 62.6132 50.2586 62.6487 50.2586 62.6841C50.2529 63.0417 50.1353 63.2544 49.9058 63.5942C49.4985 64.8796 48.7727 66.2329 47.5737 67.1489C46.5698 68.3928 45.4827 69.1374 44.0255 69.6811C42.5798 70.2839 41.3263 70.6976 39.5823 70.7212C39.5163 70.6355 32.6149 70.5705 32.4227 70.7242C30.2656 70.5912 28.447 70.1834 26.7346 69.1936C25.1971 68.0855 23.7457 66.7825 22.7331 64.8559C22.7303 64.8559 22.7245 64.8589 22.7188 64.8618C22.713 64.853 22.7073 64.8441 22.7016 64.8323C22.693 64.8175 22.6844 64.8027 22.6758 64.788C22.6413 64.7318 22.6069 64.6727 22.5754 64.6166C22.5438 64.5634 22.5151 64.5102 22.4893 64.4659C22.4578 64.4097 22.4291 64.3654 22.4061 64.327C22.3975 64.3093 22.3889 64.2915 22.3803 64.2797C21.8009 63.1776 21.514 61.9041 21.3362 60.6542V60.6453C21.2731 59.6436 21.3018 58.8045 21.3075 58.6213V58.5858C21.3219 58.3937 21.3104 58.2194 21.3534 58.0332C21.3878 57.7053 21.4194 56.7568 21.4194 56.7006C21.5915 55.9737 21.8152 55.3 22.2426 54.5081C22.4377 53.7724 22.7991 53.1401 23.2695 52.7293C23.2695 52.7293 24.5546 51.116 24.807 50.7969C24.8099 50.7969 24.8099 50.7939 24.8127 50.791C25.7278 49.7982 26.9382 48.9206 27.9766 48.4212C28.011 48.3976 28.0512 48.374 28.0885 48.3533C28.12 48.3355 28.1487 48.3178 28.1803 48.303C28.5446 48.1169 28.9548 48.0371 29.3649 47.9573C29.3649 47.9573 29.3879 47.9544 29.4338 47.9425C29.4453 47.9425 29.4596 47.9366 29.4768 47.9337C29.4912 47.9337 29.4998 47.9278 29.517 47.9248C29.5571 47.913 29.6059 47.9012 29.6604 47.8894C29.9185 47.8303 30.3144 47.7328 30.6873 47.6382C30.6902 47.6382 30.693 47.6382 30.6988 47.6382C30.825 47.6057 31.02 47.585 31.2466 47.5702C31.5679 47.5466 31.958 47.5377 32.3338 47.5377C33.0365 47.5348 33.6762 47.5496 33.6762 47.5496H33.6991C33.8655 47.5496 34.835 47.5496 35.6611 47.5496C35.7099 47.5496 35.7587 47.5496 35.8046 47.5496C36.0799 47.5496 36.3324 47.5466 36.5217 47.5407V47.5466C36.47 47.5614 39.5421 47.4107 39.72 47.4225C41.7881 47.5614 43.578 48.0282 45.3249 49.1008C47.0144 50.2089 48.4945 51.441 49.5013 53.3499C50.445 54.9218 51.0359 57.0286 50.881 59.0113C50.9499 59.9598 50.9241 61.1506 50.6659 61.9188Z" fill="black"/>
</svg>
