<svg width="32" height="32" viewBox="0 0 32 32" fill="none" xmlns="http://www.w3.org/2000/svg">
<rect width="32" height="32" fill="white"/>
<path d="M28.2504 12.2631H28.2512C28.2448 12.3606 28.2369 12.4518 28.229 12.5148C28.229 12.5195 28.229 12.525 28.2274 12.5297C28.2274 12.54 28.2243 12.5494 28.2235 12.558C28.2219 12.5683 28.2203 12.5769 28.2187 12.5832C28.2171 12.5895 28.2156 12.5942 28.2148 12.5974L28.1791 12.6021L28.1332 12.6092L28.1079 12.6131L28.0739 12.6178H28.066C27.7296 12.6705 23.1785 12.6611 23.1785 12.6367C23.0954 12.7272 23.1294 20.809 23.1381 20.8003C23.0851 20.772 21.1507 20.7744 21.1911 20.746C21.1562 20.772 21.1198 18.9887 21.104 18.3673V18.3641C21.104 18.3397 21.104 18.3169 21.1024 18.2965C21.1048 18.2784 21.1072 18.2288 21.1096 18.1541C21.1317 17.5177 21.1562 15.0383 21.1586 14.8802V14.8723C21.1555 13.716 21.161 12.6729 21.1887 12.6524C21.1657 12.6273 18.3378 12.6225 18.0409 12.6343C17.9903 12.632 17.9278 12.6288 17.8731 12.6233C17.8731 12.6233 17.8692 12.6225 17.8676 12.6225C17.8431 12.6202 17.8201 12.6163 17.8011 12.6131H17.7995C17.6032 12.6163 16.0432 12.6729 16.01 12.6674C15.9767 12.6351 16.0329 10.6812 16.0852 10.667C16.0852 10.6772 16.4999 10.6851 17.164 10.6922H17.2075C19.9619 10.7189 26.8289 10.7165 26.798 10.7071C26.8027 10.7087 26.8075 10.7095 26.8122 10.7095H26.8194V10.7087C26.8209 10.7087 26.8233 10.7095 26.8273 10.7095C26.8447 10.711 26.8851 10.7134 26.9389 10.715C27.041 10.7189 27.1922 10.7197 27.3354 10.7087C27.337 10.7079 27.3394 10.7079 27.341 10.7079C27.341 10.7071 27.3433 10.7071 27.3449 10.7071C27.3481 10.7071 27.3505 10.7071 27.3536 10.7063C27.3592 10.7063 27.3639 10.7055 27.3695 10.7048C27.3774 10.704 27.3853 10.7032 27.394 10.7024C27.5919 10.6851 28.2219 10.6418 28.2108 10.7118C28.2219 10.6867 28.2227 10.9769 28.2195 11.2192C28.2195 11.2224 28.2417 11.4434 28.2559 11.6338C28.2559 11.64 28.2559 11.6456 28.2575 11.6511C28.2575 11.6644 28.2591 11.6778 28.2599 11.6904C28.2623 11.7289 28.2646 11.7651 28.2662 11.7958V11.817C28.2686 11.9185 28.2615 12.1002 28.2504 12.2631Z" fill="black"/>
<path d="M15.4531 15.9518C15.4531 15.9415 15.4531 15.9321 15.4531 15.9218C15.4531 15.9124 15.4531 15.9029 15.4531 15.8943C15.4531 15.888 15.4531 15.8824 15.4531 15.8769C15.4531 15.8706 15.4531 15.8635 15.4531 15.8572V15.8454C15.4531 15.8399 15.4531 15.8336 15.4531 15.8289V15.8257C15.4531 15.8257 15.4531 15.8194 15.4531 15.817C15.4531 15.8147 15.4531 15.8123 15.4531 15.8092C15.4531 15.8029 15.4531 15.7966 15.4523 15.7918C15.4523 15.78 15.4516 15.7737 15.4516 15.7737V15.7713C15.4508 15.7564 15.4485 15.7422 15.4477 15.728C15.5319 15.033 15.3192 14.3373 15.1471 13.74C15.1471 13.74 14.9345 13.3657 14.835 13.2499C14.8312 13.2404 14.8274 13.2318 14.8236 13.2231C14.7073 12.9639 14.549 12.7101 14.3547 12.4777H14.3539C14.2116 12.2862 14.0334 12.0861 13.8108 11.9049C13.8078 11.9025 13.8039 11.8993 13.8016 11.897C13.4735 11.633 13.2417 11.4668 13.091 11.3659C13.0796 11.3557 13.0689 11.3454 13.0574 11.3344C13.0077 11.3052 12.9579 11.2769 12.909 11.2509C12.8815 11.2359 12.8684 11.2288 12.8684 11.2288H12.8669C12.1502 10.8451 11.4434 10.6883 10.6272 10.6922C10.5829 10.7127 9.72235 10.7198 9.16779 10.7056C9.16779 10.7056 9.16702 10.7056 9.16626 10.7056C9.1196 10.7024 8.7425 10.6764 8.70272 10.6709C8.6683 10.6678 8.63694 10.667 8.60863 10.667H8.60175C8.5528 10.6678 8.51149 10.6709 8.4763 10.6764C8.45336 10.6796 8.43194 10.6835 8.41282 10.6875C8.41282 10.6875 8.40899 10.6875 8.40134 10.6891C8.39828 10.6891 8.39522 10.6898 8.3914 10.6906C8.38834 10.6906 8.38528 10.6914 8.38069 10.6922C8.37687 10.6922 8.37304 10.6938 8.36845 10.6946C8.32715 10.7017 8.26901 10.7119 8.24454 10.7174C8.23765 10.719 8.22924 10.7198 8.21929 10.7198C8.2017 10.7198 8.18028 10.7182 8.16116 10.7158C8.15581 10.7151 8.15122 10.7143 8.14663 10.7135C8.12903 10.7111 8.11373 10.7088 8.10762 10.708C8.08926 10.7064 7.96228 10.7285 7.92021 10.7253H7.91409C7.86973 10.7221 7.81389 10.7292 7.76493 10.7418C7.76264 10.7418 7.75958 10.7426 7.75652 10.7434C7.75499 10.7434 7.75269 10.745 7.7504 10.745C7.55917 10.7875 7.21419 10.8892 7.21419 10.8892C7.02909 10.9247 6.87916 10.9964 6.76901 11.0263C6.41715 11.1697 6.11807 11.3517 5.88477 11.5668C5.88477 11.5668 5.86794 11.5826 5.8427 11.6062C5.79757 11.6464 5.72491 11.7095 5.6683 11.7465C5.65606 11.7544 5.64459 11.7615 5.63465 11.767C5.63312 11.767 5.63082 11.7685 5.62929 11.7701C5.62394 11.7725 5.61782 11.7764 5.61093 11.7819C5.60634 11.7851 5.60175 11.789 5.5964 11.7922C5.57345 11.8095 5.54515 11.8324 5.51532 11.86C5.51073 11.8639 5.50614 11.8678 5.50078 11.8726C5.47937 11.8915 5.45718 11.912 5.435 11.9317C5.38299 11.9797 5.33174 12.0286 5.29196 12.0664C5.27896 12.0782 5.26519 12.0924 5.25219 12.1058C5.2323 12.1247 5.22159 12.1365 5.22159 12.1365C5.22159 12.1365 5.22006 12.1381 5.21853 12.1397C5.19788 12.157 5.09385 12.2484 4.97146 12.3816C4.90033 12.4596 4.82154 12.5518 4.74811 12.6534C4.5607 12.9134 4.58824 12.9032 4.46662 13.0994C4.4628 13.1057 4.45821 13.112 4.45438 13.1191C4.4452 13.1333 4.43526 13.149 4.42455 13.1656C4.4192 13.1743 4.41308 13.1837 4.40772 13.1924C4.39548 13.2113 4.38324 13.231 4.37101 13.2507C4.35877 13.2712 4.34576 13.2924 4.33276 13.3137C4.2708 13.4193 4.20502 13.5406 4.1423 13.6691C4.03138 13.8992 3.93194 14.1521 3.88681 14.3743C3.88375 14.3869 3.88146 14.4003 3.87917 14.4121V14.4137C3.85698 14.5398 3.84321 14.747 3.83556 14.9716C3.81032 15.2269 3.78202 15.49 3.76443 15.713C3.77284 15.9313 3.71547 16.1023 3.73919 16.2197C3.73919 16.2197 3.73919 16.2252 3.73766 16.2347C3.73613 16.2575 3.7346 16.3056 3.74301 16.3607C3.83021 16.9942 4.08875 17.6475 4.37101 18.2628C4.37177 18.2628 4.37177 18.2644 4.37177 18.2644C4.37865 18.281 4.49722 18.5331 4.60354 18.6868C4.61807 18.708 4.63337 18.7269 4.64714 18.7435C4.6479 18.7451 4.64943 18.7466 4.65096 18.7474C4.65402 18.7514 4.65861 18.7561 4.66244 18.7608C4.82613 18.9539 4.99365 19.1343 5.16652 19.3053C5.18105 19.3203 5.19635 19.3352 5.21012 19.3494C5.2193 19.3581 5.22771 19.3668 5.23612 19.3754C5.25448 19.3928 5.27284 19.4101 5.2912 19.429C5.29655 19.4337 5.30267 19.4385 5.30803 19.444C5.31415 19.4495 5.32026 19.455 5.32715 19.4613C5.57957 19.6985 5.84729 19.9167 6.14102 20.1232C6.33148 20.228 6.38426 20.2485 6.51047 20.3257C6.5143 20.3281 6.51659 20.3296 6.51659 20.3296C6.51659 20.3296 6.59308 20.4006 6.76901 20.4809C6.76901 20.4809 6.76901 20.4809 6.76978 20.4809C6.89217 20.5369 7.06351 20.5975 7.29069 20.6417C7.72516 20.7386 8.15886 20.8253 8.69813 20.7937C8.63617 20.8063 10.5485 20.774 10.6303 20.7677C11.0938 20.7803 11.4862 20.7906 11.9375 20.6275C11.9375 20.6275 12.0477 20.596 12.1647 20.5715C12.1647 20.5715 12.1663 20.5715 12.167 20.5715C12.1823 20.5684 12.1984 20.5652 12.2144 20.5621C12.2152 20.5621 12.2175 20.5621 12.2183 20.5621C12.3506 20.5377 12.5288 20.4675 12.5288 20.4675C13.0903 20.1216 13.5592 19.8143 14.0105 19.3053C14.1007 19.1942 14.2392 19.1296 14.2767 19.0736C14.2828 19.0681 14.2881 19.0626 14.2927 19.0579H14.2942L14.3088 19.0421L14.3256 19.024L14.386 18.9594L14.4396 18.9019C14.5321 18.7821 14.6147 18.6907 14.6729 18.5891H14.6744C14.6744 18.5891 14.6744 18.5867 14.6752 18.5859C14.6828 18.5749 14.7272 18.5103 14.8075 18.3613C14.809 18.3574 14.8113 18.3542 14.8136 18.3503C14.8603 18.2621 14.9199 18.1454 14.9911 17.9949C15.193 17.5679 15.2971 17.248 15.3873 16.7988C15.3942 16.7681 15.3996 16.7374 15.4049 16.7074C15.4095 16.6838 15.4141 16.6601 15.4171 16.6365C15.4194 16.6215 15.421 16.6074 15.424 16.594C15.4256 16.5806 15.4271 16.5672 15.4294 16.5538C15.4309 16.5388 15.4324 16.5246 15.4347 16.5096C15.4363 16.4978 15.4378 16.486 15.4386 16.4742C15.4393 16.4632 15.4409 16.4521 15.4416 16.4403C15.4615 16.2717 15.4676 16.1007 15.4615 15.9297V15.9502L15.4531 15.9518ZM4.91868 12.4517C4.91868 12.4517 4.91868 12.4485 4.92098 12.4501C4.92098 12.4501 4.91945 12.4501 4.91868 12.4517ZM13.511 16.512C13.511 16.512 13.4192 16.6176 13.4024 16.6877C13.4024 16.6972 13.4024 16.7066 13.4024 16.7161C13.4008 16.8114 13.3695 16.8682 13.3083 16.9588C13.1997 17.3015 13.0061 17.6624 12.6864 17.9067C12.4187 18.2384 12.1288 18.437 11.7402 18.582C11.3547 18.7427 11.0204 18.853 10.5553 18.8593C10.5378 18.8365 8.69736 18.8191 8.64612 18.8601C8.0709 18.8246 7.58594 18.7159 7.12929 18.4519C6.71929 18.1565 6.33225 17.809 6.06223 17.2952C6.06147 17.2952 6.05994 17.296 6.05841 17.2968C6.05688 17.2944 6.05535 17.2921 6.05382 17.2889C6.05152 17.285 6.04923 17.2811 6.04693 17.2771C6.03776 17.2621 6.02858 17.2464 6.02016 17.2314C6.01175 17.2172 6.0041 17.203 5.99721 17.1912C5.9888 17.1763 5.98115 17.1644 5.97503 17.1542C5.97274 17.1495 5.97044 17.1447 5.96815 17.1416C5.81364 16.8477 5.73714 16.5081 5.68972 16.1748V16.1724C5.67289 15.9053 5.68054 15.6815 5.68207 15.6327V15.6232C5.68589 15.572 5.68283 15.5255 5.69431 15.4759C5.70349 15.3884 5.7119 15.1355 5.7119 15.1205C5.7578 14.9267 5.81746 14.747 5.93143 14.5358C5.98345 14.3396 6.07983 14.171 6.20527 14.0615C6.20527 14.0615 6.54795 13.6313 6.61527 13.5462C6.61603 13.5462 6.61603 13.5454 6.6168 13.5446C6.8608 13.2798 7.1836 13.0458 7.4605 12.9127C7.46968 12.9063 7.48039 12.9 7.49033 12.8945C7.49874 12.8898 7.50639 12.8851 7.51481 12.8811C7.61195 12.8315 7.72133 12.8102 7.83072 12.7889C7.83072 12.7889 7.83684 12.7882 7.84907 12.785C7.85213 12.785 7.85596 12.7834 7.86055 12.7826C7.86437 12.7826 7.86667 12.7811 7.87126 12.7803C7.88197 12.7771 7.89497 12.774 7.9095 12.7708C7.97834 12.7551 8.0839 12.7291 8.18334 12.7038C8.18411 12.7038 8.18487 12.7038 8.1864 12.7038C8.22006 12.6952 8.27207 12.6897 8.3325 12.6857C8.41817 12.6794 8.5222 12.6771 8.6224 12.6771C8.80981 12.6763 8.98038 12.6802 8.98038 12.6802H8.9865C9.03087 12.6802 9.28941 12.6802 9.5097 12.6802C9.52271 12.6802 9.53571 12.6802 9.54795 12.6802C9.62138 12.6802 9.68869 12.6794 9.73918 12.6778V12.6794C9.72541 12.6834 10.5446 12.6432 10.5921 12.6463C11.1436 12.6834 11.6209 12.8079 12.0867 13.0939C12.5372 13.3894 12.9319 13.7179 13.2004 14.227C13.4521 14.6461 13.6096 15.208 13.5683 15.7367C13.5867 15.9896 13.5798 16.3071 13.511 16.512Z" fill="black"/>
</svg>
