<svg width="196" height="196" viewBox="0 0 196 196" fill="none" xmlns="http://www.w3.org/2000/svg">
<rect width="196" height="196" fill="white"/>
<path d="M173.034 75.1114H173.038C173 75.7088 172.951 76.2677 172.903 76.6531C172.903 76.682 172.903 76.7158 172.893 76.7447C172.893 76.8073 172.874 76.8651 172.869 76.9181C172.859 76.9808 172.849 77.0338 172.84 77.0723C172.83 77.1109 172.82 77.1398 172.815 77.159L172.597 77.1879L172.316 77.2313L172.161 77.2554L171.953 77.2843H171.904C169.844 77.6071 141.968 77.5493 141.968 77.3999C141.459 77.954 141.668 127.455 141.721 127.402C141.396 127.229 129.548 127.243 129.795 127.07C129.582 127.229 129.359 116.306 129.262 112.5V112.48C129.262 112.331 129.262 112.191 129.252 112.066C129.267 111.955 129.281 111.652 129.296 111.194C129.432 107.296 129.582 92.1096 129.597 91.1411V91.093C129.577 84.0104 129.611 77.6216 129.781 77.4963C129.64 77.3421 112.319 77.3132 110.501 77.3855C110.191 77.371 109.808 77.3518 109.473 77.318C109.473 77.318 109.449 77.3132 109.439 77.3132C109.289 77.2988 109.148 77.2747 109.032 77.2554H109.022C107.82 77.2747 98.2647 77.6216 98.0611 77.5878C97.8575 77.3903 98.2017 65.4222 98.5216 65.3354C98.5216 65.3981 101.062 65.4463 105.129 65.4896H105.396C122.267 65.6534 164.327 65.639 164.138 65.5812C164.167 65.5908 164.196 65.5956 164.225 65.5956H164.269V65.5908C164.278 65.5908 164.293 65.5956 164.317 65.5956C164.424 65.6053 164.671 65.6197 165.001 65.6294C165.626 65.6534 166.552 65.6583 167.429 65.5908C167.439 65.586 167.454 65.586 167.463 65.586C167.463 65.5812 167.478 65.5812 167.488 65.5812C167.507 65.5812 167.522 65.5812 167.541 65.5764C167.575 65.5764 167.604 65.5715 167.638 65.5667C167.686 65.5619 167.735 65.5571 167.788 65.5523C169 65.4463 172.859 65.1813 172.791 65.6101C172.859 65.4559 172.864 67.2338 172.845 68.7177C172.845 68.737 172.98 70.0909 173.068 71.2569C173.068 71.2954 173.068 71.3292 173.077 71.3629C173.077 71.4448 173.087 71.5267 173.092 71.6038C173.106 71.8399 173.121 72.0615 173.131 72.2494V72.3795C173.145 73.001 173.101 74.114 173.034 75.1114Z" fill="black"/>
<path d="M94.6503 97.7048C94.6503 97.642 94.6503 97.5841 94.6503 97.5214C94.6503 97.4635 94.6503 97.4055 94.6503 97.3525C94.6503 97.3138 94.6503 97.2801 94.6503 97.2463C94.6503 97.2077 94.6503 97.1642 94.6503 97.1256V97.0532C94.6503 97.0195 94.6503 96.9808 94.6503 96.9519V96.9326C94.6503 96.9326 94.6503 96.894 94.6503 96.8795C94.6503 96.865 94.6503 96.8505 94.6503 96.8312C94.6503 96.7926 94.6503 96.754 94.6456 96.7251C94.6456 96.6527 94.641 96.6141 94.641 96.6141V96.5996C94.6363 96.5079 94.6222 96.421 94.6175 96.3341C95.1329 92.0774 93.8304 87.8159 92.7763 84.1576C92.7763 84.1576 91.4738 81.8652 90.8648 81.1557C90.8413 81.0978 90.8179 81.0447 90.7945 80.9916C90.0824 79.4038 89.1125 77.8498 87.9225 76.4261H87.9178C87.0464 75.2533 85.9548 74.0274 84.5914 72.9174C84.5727 72.9029 84.5492 72.8836 84.5352 72.8691C82.5253 71.2524 81.1057 70.234 80.1827 69.6163C80.1124 69.5535 80.0469 69.4908 79.9766 69.4232C79.672 69.2447 79.3675 69.0709 79.0677 68.9117C78.899 68.82 78.8194 68.7765 78.8194 68.7765H78.81C74.42 66.4262 70.091 65.4658 65.092 65.4899C64.8203 65.6154 59.5495 65.6588 56.1528 65.5719C56.1528 65.5719 56.1481 65.5719 56.1435 65.5719C55.8577 65.5526 53.5479 65.3934 53.3043 65.3596C53.0935 65.3403 52.9014 65.3354 52.728 65.3354H52.6858C52.386 65.3403 52.133 65.3596 51.9175 65.3934C51.7769 65.4127 51.6458 65.4368 51.5286 65.4609C51.5286 65.4609 51.5052 65.4609 51.4583 65.4706C51.4396 65.4706 51.4209 65.4754 51.3974 65.4802C51.3787 65.4802 51.36 65.4851 51.3318 65.4899C51.3084 65.4899 51.285 65.4995 51.2569 65.5044C51.0039 65.5478 50.6478 65.6105 50.4979 65.6443C50.4557 65.654 50.4042 65.6588 50.3433 65.6588C50.2355 65.6588 50.1044 65.6492 49.9872 65.6347C49.9544 65.6298 49.9263 65.625 49.8982 65.6202C49.7904 65.6057 49.6967 65.5912 49.6593 65.5864C49.5468 65.5768 48.7691 65.7119 48.5114 65.6926H48.4739C48.2022 65.6733 47.8602 65.7167 47.5603 65.7939C47.5463 65.7939 47.5275 65.7988 47.5088 65.8036C47.4994 65.8036 47.4854 65.8132 47.4713 65.8132C46.3 66.0739 44.1871 66.6964 44.1871 66.6964C43.0533 66.9136 42.135 67.3528 41.4603 67.5362C39.3052 68.4146 37.4733 69.5294 36.0444 70.847C36.0444 70.847 35.9413 70.9435 35.7867 71.0883C35.5103 71.3344 35.0652 71.7205 34.7185 71.9473C34.6435 71.9956 34.5732 72.039 34.5123 72.0728C34.503 72.0728 34.4889 72.0825 34.4795 72.0921C34.4467 72.1066 34.4093 72.1307 34.3671 72.1645C34.339 72.1838 34.3109 72.208 34.2781 72.2273C34.1375 72.3334 33.9642 72.4734 33.7814 72.6423C33.7533 72.6664 33.7252 72.6906 33.6924 72.7195C33.5612 72.8354 33.4254 72.9608 33.2895 73.0815C32.9709 73.3759 32.657 73.6751 32.4134 73.9068C32.3338 73.9792 32.2494 74.066 32.1698 74.1481C32.048 74.2639 31.9824 74.3363 31.9824 74.3363C31.9824 74.3363 31.973 74.346 31.9636 74.3556C31.8371 74.4618 31.2 75.0216 30.4503 75.8373C30.0146 76.3151 29.5321 76.8797 29.0823 77.5023C27.9344 79.0949 28.1031 79.0322 27.3582 80.2339C27.3347 80.2725 27.3066 80.3111 27.2832 80.3546C27.227 80.4415 27.1661 80.538 27.1005 80.6393C27.0677 80.6924 27.0302 80.7503 26.9974 80.8034C26.9225 80.9192 26.8475 81.0399 26.7725 81.1606C26.6976 81.286 26.6179 81.4163 26.5383 81.5467C26.1588 82.1934 25.7559 82.9366 25.3717 83.7233C24.6923 85.1325 24.0833 86.6817 23.8069 88.0427C23.7881 88.1199 23.7741 88.202 23.76 88.2744V88.284C23.6241 89.0562 23.5398 90.3255 23.493 91.701C23.3383 93.2647 23.165 94.8766 23.0572 96.2424C23.1088 97.5793 22.7574 98.6266 22.9026 99.3457C22.9026 99.3457 22.9026 99.3795 22.8933 99.4374C22.8839 99.5773 22.8745 99.8717 22.9261 100.21C23.4602 104.09 25.0437 108.091 26.7725 111.86C26.7772 111.86 26.7772 111.87 26.7772 111.87C26.8194 111.971 27.5456 113.515 28.1968 114.457C28.2858 114.587 28.3795 114.703 28.4639 114.804C28.4685 114.814 28.4779 114.823 28.4873 114.828C28.506 114.852 28.5341 114.881 28.5576 114.91C29.5602 116.093 30.5862 117.198 31.645 118.245C31.7341 118.337 31.8278 118.428 31.9121 118.515C31.9683 118.568 32.0198 118.622 32.0714 118.675C32.1838 118.781 32.2963 118.887 32.4087 119.003C32.4415 119.032 32.479 119.061 32.5118 119.094C32.5493 119.128 32.5867 119.162 32.6289 119.201C34.175 120.653 35.8148 121.99 37.6139 123.255C38.7805 123.897 39.1037 124.022 39.8768 124.495C39.9002 124.509 39.9142 124.519 39.9142 124.519C39.9142 124.519 40.3828 124.953 41.4603 125.446C41.4603 125.446 41.4603 125.446 41.465 125.446C42.2146 125.788 43.2641 126.16 44.6556 126.43C47.3167 127.024 49.9732 127.555 53.2762 127.362C52.8967 127.439 64.6094 127.241 65.1107 127.203C67.9499 127.28 70.3534 127.342 73.1176 126.343C73.1176 126.343 73.7922 126.15 74.5091 126.001C74.5091 126.001 74.5184 126.001 74.5231 126.001C74.6168 125.981 74.7152 125.962 74.8136 125.943C74.8183 125.943 74.8323 125.943 74.837 125.943C75.6475 125.793 76.7392 125.364 76.7392 125.364C80.178 123.245 83.05 121.363 85.8142 118.245C86.3671 117.565 87.2151 117.169 87.4446 116.826C87.4821 116.792 87.5149 116.759 87.543 116.73H87.5524L87.6414 116.633L87.7445 116.522L88.1146 116.126L88.4426 115.774C89.0095 115.04 89.5155 114.481 89.8715 113.858H89.8809C89.8809 113.858 89.8809 113.844 89.8856 113.839C89.9324 113.771 90.2042 113.375 90.6961 112.463C90.7055 112.439 90.7195 112.42 90.7336 112.396C91.0194 111.855 91.3848 111.141 91.8205 110.219C93.0574 107.603 93.6946 105.644 94.2474 102.893C94.2896 102.705 94.3224 102.516 94.3552 102.333C94.3833 102.188 94.4114 102.044 94.4301 101.899C94.4442 101.807 94.4536 101.72 94.4723 101.638C94.4817 101.556 94.491 101.474 94.5051 101.392C94.5145 101.3 94.5238 101.213 94.5379 101.122C94.5473 101.049 94.5566 100.977 94.5613 100.905C94.566 100.837 94.5754 100.769 94.5801 100.697C94.7019 99.6642 94.7393 98.6169 94.7019 97.5696V97.6951L94.6503 97.7048ZM30.1271 76.2668C30.1271 76.2668 30.1271 76.2475 30.1411 76.2571C30.1411 76.2571 30.1318 76.2571 30.1271 76.2668ZM82.7548 101.136C82.7548 101.136 82.1926 101.783 82.0896 102.212C82.0896 102.27 82.0896 102.328 82.0896 102.386C82.0802 102.97 81.8881 103.318 81.5133 103.873C80.848 105.972 79.6627 108.182 77.7043 109.679C76.0645 111.71 74.2889 112.927 71.9088 113.815C69.5475 114.799 67.5001 115.475 64.6516 115.513C64.5438 115.373 53.2715 115.267 52.9576 115.518C49.4344 115.301 46.464 114.635 43.667 113.018C41.1558 111.208 38.7851 109.08 37.1313 105.933C37.1266 105.933 37.1172 105.938 37.1079 105.943C37.0985 105.929 37.0891 105.914 37.0798 105.895C37.0657 105.871 37.0517 105.847 37.0376 105.822C36.9814 105.731 36.9252 105.634 36.8736 105.543C36.8221 105.456 36.7752 105.369 36.7331 105.296C36.6815 105.205 36.6347 105.132 36.5972 105.07C36.5831 105.041 36.5691 105.012 36.555 104.992C35.6086 103.192 35.1401 101.112 34.8497 99.0706V99.0561C34.7466 97.42 34.7934 96.0494 34.8028 95.7502V95.6922C34.8262 95.3785 34.8075 95.0938 34.8778 94.7897C34.934 94.254 34.9855 92.7048 34.9855 92.6131C35.2666 91.4259 35.6321 90.3255 36.3301 89.0321C36.6487 87.8304 37.2391 86.7976 38.0074 86.1267C38.0074 86.1267 40.1063 83.4916 40.5186 82.9704C40.5233 82.9704 40.5233 82.9656 40.528 82.9607C42.0225 81.3391 43.9997 79.9057 45.6957 79.0901C45.7519 79.0515 45.8175 79.0129 45.8784 78.9791C45.9299 78.9502 45.9768 78.9212 46.0283 78.8971C46.6233 78.593 47.2933 78.4627 47.9633 78.3324C47.9633 78.3324 48.0007 78.3276 48.0757 78.3083C48.0944 78.3083 48.1179 78.2986 48.146 78.2938C48.1694 78.2938 48.1835 78.2841 48.2116 78.2793C48.2772 78.26 48.3568 78.2407 48.4458 78.2214C48.8675 78.1249 49.514 77.9656 50.1231 77.8112C50.1278 77.8112 50.1325 77.8112 50.1418 77.8112C50.348 77.7581 50.6666 77.7243 51.0367 77.7002C51.5614 77.6616 52.1986 77.6471 52.8123 77.6471C53.9602 77.6423 55.005 77.6664 55.005 77.6664H55.0425C55.3142 77.6664 56.8978 77.6664 58.2471 77.6664C58.3267 77.6664 58.4064 77.6664 58.4813 77.6664C58.9311 77.6664 59.3434 77.6616 59.6526 77.6519V77.6616C59.5683 77.6857 64.586 77.4396 64.8765 77.4589C68.2544 77.6857 71.178 78.4482 74.0312 80.2001C76.7907 82.01 79.2082 84.0225 80.8527 87.1402C82.3941 89.7078 83.3592 93.1488 83.1062 96.3872C83.2187 97.9364 83.1765 99.8814 82.7548 101.136Z" fill="black"/>
</svg>
