<svg width="64" height="64" viewBox="0 0 64 64" fill="none" xmlns="http://www.w3.org/2000/svg">
<rect width="64" height="64" fill="white"/>
<path d="M56.5008 24.5261H56.5023C56.4897 24.7212 56.4739 24.9037 56.458 25.0296C56.458 25.039 56.458 25.05 56.4549 25.0594C56.4549 25.0799 56.4485 25.0988 56.4469 25.1161C56.4438 25.1365 56.4406 25.1538 56.4374 25.1664C56.4343 25.179 56.4311 25.1885 56.4295 25.1947L56.3583 25.2042L56.2665 25.2183L56.2158 25.2262L56.1478 25.2357H56.1319C55.4592 25.3411 46.357 25.3222 46.357 25.2734C46.1908 25.4543 46.2589 41.6179 46.2763 41.6006C46.1702 41.544 42.3014 41.5487 42.3822 41.4921C42.3125 41.544 42.2397 37.9774 42.208 36.7346V36.7283C42.208 36.6795 42.208 36.6339 42.2049 36.593C42.2096 36.5568 42.2144 36.4577 42.2191 36.3082C42.2634 35.0354 42.3125 30.0766 42.3172 29.7603V29.7446C42.3109 27.4319 42.322 25.3458 42.3774 25.3049C42.3315 25.2545 36.6755 25.2451 36.0819 25.2687C35.9806 25.264 35.8555 25.2577 35.7463 25.2467C35.7463 25.2467 35.7384 25.2451 35.7352 25.2451C35.6861 25.2404 35.6402 25.2325 35.6022 25.2262H35.5991C35.2065 25.2325 32.0864 25.3458 32.02 25.3348C31.9535 25.2703 32.0659 21.3623 32.1703 21.334C32.1703 21.3544 32.9998 21.3702 34.3279 21.3843H34.415C39.9238 21.4378 53.6577 21.4331 53.596 21.4142C53.6055 21.4174 53.615 21.4189 53.6245 21.4189H53.6387V21.4174C53.6419 21.4174 53.6466 21.4189 53.6546 21.4189C53.6894 21.4221 53.7701 21.4268 53.8778 21.43C54.082 21.4378 54.3843 21.4394 54.6708 21.4174C54.674 21.4158 54.6787 21.4158 54.6819 21.4158C54.6819 21.4142 54.6867 21.4142 54.6898 21.4142C54.6962 21.4142 54.7009 21.4142 54.7072 21.4126C54.7183 21.4126 54.7278 21.4111 54.7389 21.4095C54.7547 21.4079 54.7706 21.4064 54.788 21.4048C55.1837 21.3702 56.4438 21.2836 56.4216 21.4237C56.4438 21.3733 56.4454 21.9538 56.439 22.4384C56.439 22.4447 56.4834 22.8868 56.5118 23.2675C56.5118 23.2801 56.5118 23.2911 56.515 23.3021C56.515 23.3289 56.5182 23.3556 56.5198 23.3808C56.5245 23.4579 56.5293 23.5302 56.5324 23.5916V23.6341C56.5372 23.837 56.5229 24.2005 56.5008 24.5261Z" fill="black"/>
<path d="M30.9062 31.9036C30.9062 31.8831 30.9062 31.8642 30.9062 31.8437C30.9062 31.8248 30.9062 31.8059 30.9062 31.7885C30.9062 31.7759 30.9062 31.7649 30.9062 31.7538C30.9062 31.7412 30.9062 31.7271 30.9062 31.7145V31.6908C30.9062 31.6798 30.9062 31.6672 30.9062 31.6577V31.6514C30.9062 31.6514 30.9062 31.6388 30.9062 31.6341C30.9062 31.6294 30.9062 31.6246 30.9062 31.6183C30.9062 31.6057 30.9062 31.5931 30.9047 31.5837C30.9047 31.56 30.9031 31.5474 30.9031 31.5474V31.5427C30.9016 31.5127 30.897 31.4844 30.8955 31.456C31.0638 30.0661 30.6385 28.6745 30.2943 27.48C30.2943 27.48 29.869 26.7314 29.6701 26.4998C29.6624 26.4809 29.6548 26.4635 29.6471 26.4462C29.4146 25.9277 29.0979 25.4203 28.7094 24.9554H28.7078C28.4233 24.5725 28.0668 24.1722 27.6216 23.8097C27.6155 23.805 27.6079 23.7987 27.6033 23.794C26.947 23.266 26.4835 22.9335 26.1821 22.7318C26.1591 22.7113 26.1377 22.6908 26.1148 22.6688C26.0153 22.6105 25.9159 22.5537 25.818 22.5017C25.7629 22.4718 25.7369 22.4576 25.7369 22.4576H25.7338C24.3004 21.6901 22.8868 21.3765 21.2545 21.3844C21.1658 21.4254 19.4447 21.4396 18.3356 21.4112C18.3356 21.4112 18.334 21.4112 18.3325 21.4112C18.2392 21.4049 17.485 21.3529 17.4054 21.3419C17.3366 21.3356 17.2739 21.334 17.2173 21.334H17.2035C17.1056 21.3356 17.023 21.3419 16.9526 21.3529C16.9067 21.3592 16.8639 21.3671 16.8256 21.375C16.8256 21.375 16.818 21.375 16.8027 21.3781C16.7966 21.3781 16.7904 21.3797 16.7828 21.3813C16.7767 21.3813 16.7706 21.3828 16.7614 21.3844C16.7537 21.3844 16.7461 21.3876 16.7369 21.3891C16.6543 21.4033 16.538 21.4238 16.4891 21.4348C16.4753 21.438 16.4585 21.4396 16.4386 21.4396C16.4034 21.4396 16.3606 21.4364 16.3223 21.4317C16.3116 21.4301 16.3024 21.4285 16.2933 21.427C16.2581 21.4222 16.2275 21.4175 16.2152 21.4159C16.1785 21.4128 15.9246 21.4569 15.8404 21.4506H15.8282C15.7395 21.4443 15.6278 21.4585 15.5299 21.4837C15.5253 21.4837 15.5192 21.4853 15.513 21.4868C15.51 21.4868 15.5054 21.49 15.5008 21.49C15.1183 21.5751 14.4284 21.7784 14.4284 21.7784C14.0582 21.8493 13.7583 21.9927 13.538 22.0526C12.8343 22.3394 12.2361 22.7034 11.7695 23.1337C11.7695 23.1337 11.7359 23.1652 11.6854 23.2125C11.5951 23.2928 11.4498 23.4189 11.3366 23.493C11.3121 23.5087 11.2892 23.5229 11.2693 23.5339C11.2662 23.5339 11.2616 23.5371 11.2586 23.5402C11.2479 23.545 11.2356 23.5529 11.2219 23.5639C11.2127 23.5702 11.2035 23.5781 11.1928 23.5844C11.1469 23.619 11.0903 23.6647 11.0306 23.7199C11.0215 23.7278 11.0123 23.7357 11.0016 23.7451C10.9587 23.7829 10.9144 23.8239 10.87 23.8633C10.766 23.9594 10.6635 24.0571 10.5839 24.1328C10.5579 24.1564 10.5304 24.1848 10.5044 24.2116C10.4646 24.2494 10.4432 24.273 10.4432 24.273C10.4432 24.273 10.4401 24.2762 10.4371 24.2793C10.3958 24.314 10.1877 24.4968 9.94293 24.7631C9.80065 24.9192 9.64308 25.1035 9.49622 25.3068C9.12141 25.8269 9.17648 25.8064 8.93324 26.1988C8.92559 26.2114 8.91641 26.224 8.90876 26.2382C8.8904 26.2666 8.87052 26.2981 8.8491 26.3312C8.83839 26.3485 8.82615 26.3674 8.81544 26.3848C8.79097 26.4226 8.76649 26.462 8.74201 26.5014C8.71753 26.5423 8.69153 26.5849 8.66552 26.6274C8.5416 26.8386 8.41004 27.0813 8.28459 27.3382C8.06277 27.7983 7.86389 28.3042 7.77363 28.7486C7.76751 28.7738 7.76292 28.8006 7.75833 28.8242V28.8274C7.71397 29.0795 7.68643 29.494 7.67113 29.9431C7.62065 30.4537 7.56404 30.9801 7.52886 31.4261C7.54568 31.8626 7.43095 32.2046 7.47837 32.4394C7.47837 32.4394 7.47837 32.4504 7.47531 32.4693C7.47225 32.515 7.46919 32.6111 7.48602 32.7215C7.66042 33.9885 8.1775 35.2949 8.74201 36.5257C8.74354 36.5257 8.74354 36.5288 8.74354 36.5288C8.75731 36.5619 8.99443 37.0662 9.20708 37.3735C9.23615 37.4161 9.26674 37.4539 9.29428 37.487C9.29581 37.4901 9.29887 37.4933 9.30193 37.4949C9.30805 37.5027 9.31723 37.5122 9.32488 37.5217C9.65226 37.9077 9.98729 38.2686 10.333 38.6106C10.3621 38.6405 10.3927 38.6705 10.4202 38.6988C10.4386 38.7162 10.4554 38.7335 10.4722 38.7509C10.509 38.7855 10.5457 38.8202 10.5824 38.858C10.5931 38.8675 10.6053 38.8769 10.6161 38.888C10.6283 38.899 10.6405 38.91 10.6543 38.9226C11.1591 39.397 11.6946 39.8335 12.282 40.2464C12.663 40.456 12.7685 40.497 13.0209 40.6514C13.0286 40.6561 13.0332 40.6593 13.0332 40.6593C13.0332 40.6593 13.1862 40.8011 13.538 40.9618C13.538 40.9618 13.538 40.9618 13.5396 40.9618C13.7843 41.0737 14.127 41.1951 14.5814 41.2833C15.4503 41.4772 16.3177 41.6505 17.3963 41.5875C17.2723 41.6127 21.0969 41.5481 21.2606 41.5355C22.1877 41.5607 22.9725 41.5812 23.8751 41.255C23.8751 41.255 24.0954 41.1919 24.3294 41.1431C24.3294 41.1431 24.3325 41.1431 24.334 41.1431C24.3646 41.1368 24.3968 41.1305 24.4289 41.1242C24.4304 41.1242 24.435 41.1242 24.4365 41.1242C24.7012 41.0753 25.0576 40.9351 25.0576 40.9351C26.1805 40.2432 27.1183 39.6286 28.0209 38.6106C28.2014 38.3884 28.4783 38.2592 28.5533 38.1473C28.5656 38.1363 28.5763 38.1252 28.5854 38.1158H28.5885L28.6176 38.0842L28.6512 38.048L28.7721 37.9188L28.8792 37.8037C29.0643 37.5642 29.2295 37.3814 29.3458 37.1781H29.3488C29.3488 37.1781 29.3488 37.1734 29.3504 37.1718C29.3656 37.1497 29.4544 37.0205 29.615 36.7227C29.6181 36.7148 29.6227 36.7085 29.6273 36.7006C29.7206 36.5241 29.8399 36.2909 29.9822 35.9899C30.386 35.1357 30.5941 34.4959 30.7746 33.5977C30.7884 33.5362 30.7991 33.4747 30.8098 33.4148C30.819 33.3676 30.8282 33.3203 30.8343 33.273C30.8389 33.2431 30.8419 33.2147 30.8481 33.1879C30.8511 33.1611 30.8542 33.1343 30.8588 33.1075C30.8618 33.0776 30.8649 33.0492 30.8695 33.0193C30.8725 32.9957 30.8756 32.972 30.8771 32.9484C30.8787 32.9263 30.8817 32.9043 30.8832 32.8806C30.923 32.5434 30.9353 32.2014 30.923 31.8594V31.9004L30.9062 31.9036ZM9.83737 24.9034C9.83737 24.9034 9.83737 24.8971 9.84196 24.9003C9.84196 24.9003 9.8389 24.9003 9.83737 24.9034ZM27.022 33.024C27.022 33.024 26.8384 33.2352 26.8047 33.3755C26.8047 33.3944 26.8047 33.4133 26.8047 33.4322C26.8017 33.6229 26.7389 33.7363 26.6165 33.9176C26.3993 34.6031 26.0123 35.3248 25.3728 35.8134C24.8374 36.4768 24.2575 36.874 23.4804 37.1639C22.7094 37.4854 22.0408 37.706 21.1107 37.7186C21.0755 37.6729 17.3947 37.6383 17.2922 37.7202C16.1418 37.6493 15.1719 37.4318 14.2586 36.9039C13.4386 36.3129 12.6645 35.618 12.1245 34.5905C12.1229 34.5905 12.1199 34.592 12.1168 34.5936C12.1138 34.5889 12.1107 34.5842 12.1076 34.5779C12.103 34.57 12.0985 34.5621 12.0939 34.5542C12.0755 34.5243 12.0572 34.4928 12.0403 34.4628C12.0235 34.4345 12.0082 34.4061 11.9944 34.3825C11.9776 34.3525 11.9623 34.3289 11.9501 34.3084C11.9455 34.2989 11.9409 34.2895 11.9363 34.2832C11.6273 33.6954 11.4743 33.0161 11.3794 32.3495V32.3448C11.3458 31.8106 11.3611 31.363 11.3641 31.2653V31.2464C11.3718 31.144 11.3657 31.051 11.3886 30.9517C11.407 30.7768 11.4238 30.2709 11.4238 30.241C11.5156 29.8533 11.6349 29.494 11.8629 29.0717C11.9669 28.6793 12.1597 28.342 12.4105 28.123C12.4105 28.123 13.0959 27.2625 13.2305 27.0923C13.2321 27.0923 13.2321 27.0908 13.2336 27.0892C13.7216 26.5597 14.3672 26.0916 14.921 25.8253C14.9394 25.8127 14.9608 25.8001 14.9807 25.7891C14.9975 25.7796 15.0128 25.7701 15.0296 25.7623C15.2239 25.663 15.4427 25.6204 15.6614 25.5779C15.6614 25.5779 15.6737 25.5763 15.6981 25.57C15.7043 25.57 15.7119 25.5669 15.7211 25.5653C15.7287 25.5653 15.7333 25.5621 15.7425 25.5606C15.7639 25.5543 15.7899 25.5479 15.819 25.5416C15.9567 25.5101 16.1678 25.4581 16.3667 25.4077C16.3682 25.4077 16.3697 25.4077 16.3728 25.4077C16.4401 25.3904 16.5441 25.3793 16.665 25.3714C16.8363 25.3588 17.0444 25.3541 17.2448 25.3541C17.6196 25.3525 17.9608 25.3604 17.9608 25.3604H17.973C18.0617 25.3604 18.5788 25.3604 19.0194 25.3604C19.0454 25.3604 19.0714 25.3604 19.0959 25.3604C19.2428 25.3604 19.3774 25.3588 19.4784 25.3557V25.3588C19.4508 25.3667 21.0893 25.2863 21.1841 25.2927C22.2871 25.3667 23.2417 25.6157 24.1734 26.1878C25.0745 26.7787 25.8639 27.4359 26.4008 28.4539C26.9042 29.2923 27.2193 30.4159 27.1367 31.4733C27.1734 31.9792 27.1596 32.6143 27.022 33.024Z" fill="black"/>
</svg>
