<svg width="128" height="128" viewBox="0 0 128 128" fill="none" xmlns="http://www.w3.org/2000/svg">
<rect width="128" height="128" fill="white"/>
<path d="M113.002 49.0522H113.005C112.979 49.4424 112.948 49.8074 112.916 50.0591C112.916 50.078 112.916 50.1 112.91 50.1189C112.91 50.1598 112.897 50.1976 112.894 50.2322C112.888 50.2731 112.881 50.3077 112.875 50.3329C112.869 50.358 112.862 50.3769 112.859 50.3895L112.717 50.4084L112.533 50.4367L112.432 50.4524L112.296 50.4713H112.264C110.918 50.6821 92.714 50.6444 92.714 50.5468C92.3816 50.9087 92.5177 83.2359 92.5526 83.2013C92.3404 83.088 84.6028 83.0974 84.7643 82.9842C84.625 83.088 84.4794 75.9549 84.416 73.4691V73.4565C84.416 73.359 84.416 73.2677 84.4097 73.1859C84.4192 73.1136 84.4287 72.9153 84.4382 72.6164C84.5269 70.0709 84.625 60.1531 84.6345 59.5207V59.4892C84.6218 54.8638 84.644 50.6916 84.7548 50.6098C84.663 50.5091 73.351 50.4902 72.1638 50.5374C71.9611 50.5279 71.711 50.5154 71.4926 50.4933C71.4926 50.4933 71.4768 50.4902 71.4704 50.4902C71.3723 50.4807 71.2805 50.465 71.2045 50.4524H71.1981C70.413 50.465 64.1729 50.6916 64.0399 50.6695C63.9069 50.5405 64.1317 42.7246 64.3407 42.668C64.3407 42.7089 65.9996 42.7403 68.6559 42.7687H68.83C79.8476 42.8756 107.315 42.8662 107.192 42.8284C107.211 42.8347 107.23 42.8379 107.249 42.8379H107.277V42.8347C107.284 42.8347 107.293 42.8379 107.309 42.8379C107.379 42.8442 107.54 42.8536 107.756 42.8599C108.164 42.8756 108.769 42.8788 109.342 42.8347C109.348 42.8316 109.357 42.8316 109.364 42.8316C109.364 42.8284 109.373 42.8284 109.38 42.8284C109.392 42.8284 109.402 42.8284 109.414 42.8253C109.437 42.8253 109.456 42.8221 109.478 42.819C109.509 42.8159 109.541 42.8127 109.576 42.8096C110.367 42.7403 112.888 42.5673 112.843 42.8473C112.888 42.7466 112.891 43.9077 112.878 44.8768C112.878 44.8894 112.967 45.7736 113.024 46.535C113.024 46.5602 113.024 46.5822 113.03 46.6042C113.03 46.6577 113.036 46.7112 113.04 46.7616C113.049 46.9158 113.059 47.0605 113.065 47.1832V47.2682C113.074 47.6741 113.046 48.4009 113.002 49.0522Z" fill="black"/>
<path d="M61.8124 63.8071C61.8124 63.7661 61.8124 63.7283 61.8124 63.6873C61.8124 63.6495 61.8124 63.6117 61.8124 63.577C61.8124 63.5518 61.8124 63.5298 61.8124 63.5077C61.8124 63.4825 61.8124 63.4541 61.8124 63.4289V63.3816C61.8124 63.3596 61.8124 63.3343 61.8124 63.3154V63.3028C61.8124 63.3028 61.8124 63.2776 61.8124 63.2682C61.8124 63.2587 61.8124 63.2493 61.8124 63.2366C61.8124 63.2114 61.8124 63.1862 61.8093 63.1673C61.8093 63.12 61.8063 63.0948 61.8063 63.0948V63.0854C61.8032 63.0255 61.794 62.9687 61.791 62.912C62.1275 60.1321 61.2769 57.3491 60.5885 54.96C60.5885 54.96 59.7379 53.4629 59.3402 52.9996C59.3249 52.9618 59.3096 52.9271 59.2943 52.8924C58.8292 51.8555 58.1959 50.8406 57.4187 49.9108H57.4156C56.8466 49.1449 56.1336 48.3444 55.2433 47.6195C55.231 47.61 55.2158 47.5974 55.2066 47.5879C53.894 46.5321 52.9669 45.8671 52.3641 45.4636C52.3183 45.4226 52.2754 45.3817 52.2295 45.3375C52.0306 45.2209 51.8318 45.1075 51.6359 45.0035C51.5258 44.9436 51.4738 44.9152 51.4738 44.9152H51.4677C48.6008 43.3803 45.7736 42.7531 42.509 42.7688C42.3315 42.8508 38.8894 42.8791 36.6711 42.8224C36.6711 42.8224 36.6681 42.8224 36.665 42.8224C36.4784 42.8098 34.97 42.7058 34.8109 42.6837C34.6732 42.6711 34.5477 42.668 34.4345 42.668H34.407C34.2112 42.6711 34.046 42.6837 33.9052 42.7058C33.8134 42.7184 33.7278 42.7342 33.6513 42.7499C33.6513 42.7499 33.636 42.7499 33.6054 42.7562C33.5931 42.7562 33.5809 42.7594 33.5656 42.7625C33.5534 42.7625 33.5411 42.7657 33.5228 42.7688C33.5075 42.7688 33.4922 42.7751 33.4738 42.7783C33.3086 42.8066 33.0761 42.8476 32.9781 42.8697C32.9506 42.876 32.9169 42.8791 32.8772 42.8791C32.8068 42.8791 32.7211 42.8728 32.6446 42.8634C32.6232 42.8602 32.6049 42.8571 32.5865 42.8539C32.5161 42.8445 32.4549 42.835 32.4305 42.8319C32.357 42.8256 31.8491 42.9138 31.6808 42.9012H31.6564C31.4789 42.8886 31.2556 42.917 31.0597 42.9674C31.0506 42.9674 31.0383 42.9705 31.0261 42.9737C31.02 42.9737 31.0108 42.98 31.0016 42.98C30.2367 43.1502 28.8568 43.5568 28.8568 43.5568C28.1163 43.6986 27.5166 43.9854 27.0761 44.1052C25.6686 44.6788 24.4723 45.4069 23.5391 46.2673C23.5391 46.2673 23.4718 46.3304 23.3708 46.4249C23.1903 46.5857 22.8996 46.8378 22.6732 46.9859C22.6243 47.0175 22.5784 47.0458 22.5386 47.0679C22.5325 47.0679 22.5233 47.0742 22.5172 47.0805C22.4957 47.09 22.4713 47.1057 22.4437 47.1278C22.4254 47.1404 22.407 47.1561 22.3856 47.1687C22.2938 47.2381 22.1806 47.3295 22.0613 47.4398C22.0429 47.4556 22.0246 47.4713 22.0031 47.4902C21.9175 47.5659 21.8287 47.6478 21.74 47.7266C21.532 47.9189 21.327 48.1143 21.1679 48.2656C21.1158 48.3129 21.0608 48.3696 21.0088 48.4232C20.9292 48.4988 20.8864 48.5461 20.8864 48.5461C20.8864 48.5461 20.8802 48.5524 20.8741 48.5587C20.7915 48.628 20.3754 48.9936 19.8859 49.5263C19.6013 49.8383 19.2862 50.2071 18.9924 50.6137C18.2428 51.6538 18.353 51.6128 17.8665 52.3976C17.8512 52.4228 17.8328 52.448 17.8175 52.4764C17.7808 52.5331 17.741 52.5962 17.6982 52.6623C17.6768 52.697 17.6523 52.7348 17.6309 52.7695C17.5819 52.8451 17.533 52.9239 17.484 53.0027C17.4351 53.0847 17.3831 53.1698 17.331 53.2549C17.0832 53.6772 16.8201 54.1626 16.5692 54.6763C16.1255 55.5967 15.7278 56.6084 15.5473 57.4972C15.535 57.5476 15.5258 57.6012 15.5167 57.6485V57.6548C15.4279 58.1591 15.3729 58.988 15.3423 59.8863C15.2413 60.9075 15.1281 61.9602 15.0577 62.8521C15.0914 63.7252 14.8619 64.4091 14.9567 64.8787C14.9567 64.8787 14.9567 64.9008 14.9506 64.9386C14.9445 65.03 14.9384 65.2223 14.972 65.4429C15.3208 67.977 16.355 70.5898 17.484 73.0514C17.4871 73.0514 17.4871 73.0577 17.4871 73.0577C17.5146 73.1239 17.9889 74.1324 18.4142 74.747C18.4723 74.8321 18.5335 74.9078 18.5886 74.974C18.5916 74.9803 18.5977 74.9866 18.6039 74.9897C18.6161 75.0055 18.6345 75.0244 18.6498 75.0433C19.3045 75.8155 19.9746 76.5373 20.6661 77.2212C20.7242 77.2811 20.7854 77.341 20.8405 77.3977C20.8772 77.4324 20.9108 77.467 20.9445 77.5017C21.0179 77.571 21.0914 77.6404 21.1648 77.716C21.1862 77.7349 21.2107 77.7539 21.2321 77.7759C21.2566 77.798 21.2811 77.82 21.3086 77.8453C22.3183 78.7939 23.3892 79.667 24.5641 80.4928C25.3259 80.912 25.537 80.9939 26.0419 81.3028C26.0572 81.3122 26.0664 81.3185 26.0664 81.3185C26.0664 81.3185 26.3723 81.6022 27.0761 81.9237C27.0761 81.9237 27.0761 81.9237 27.0791 81.9237C27.5687 82.1475 28.254 82.3902 29.1627 82.5667C30.9006 82.9543 32.6355 83.301 34.7925 83.175C34.5447 83.2254 42.1938 83.0962 42.5212 83.0709C44.3754 83.1214 45.945 83.1623 47.7502 82.5099C47.7502 82.5099 48.1908 82.3839 48.6589 82.2861C48.6589 82.2861 48.665 82.2861 48.6681 82.2861C48.7293 82.2735 48.7935 82.2609 48.8578 82.2483C48.8608 82.2483 48.87 82.2483 48.8731 82.2483C49.4024 82.1506 50.1153 81.8701 50.1153 81.8701C52.3611 80.4865 54.2367 79.2573 56.0419 77.2212C56.4029 76.7768 56.9567 76.5183 57.1066 76.2946C57.1311 76.2725 57.1525 76.2504 57.1709 76.2315H57.177L57.2351 76.1685L57.3024 76.096L57.5442 75.8376L57.7583 75.6075C58.1285 75.1284 58.459 74.7628 58.6915 74.3562H58.6976C58.6976 74.3562 58.6976 74.3468 58.7007 74.3436C58.7313 74.2995 58.9088 74.041 59.23 73.4453C59.2361 73.4296 59.2453 73.417 59.2545 73.4012C59.4411 73.0482 59.6798 72.5817 59.9643 71.9797C60.7721 70.2715 61.1882 68.9918 61.5492 67.1953C61.5768 67.0724 61.5982 66.9495 61.6196 66.8297C61.638 66.7351 61.6563 66.6406 61.6686 66.546C61.6778 66.4862 61.6839 66.4294 61.6961 66.3758C61.7022 66.3223 61.7083 66.2687 61.7175 66.2151C61.7236 66.1552 61.7298 66.0985 61.7389 66.0386C61.7451 65.9913 61.7512 65.944 61.7542 65.8968C61.7573 65.8526 61.7634 65.8085 61.7665 65.7612C61.846 65.0868 61.8705 64.4028 61.846 63.7189V63.8008L61.8124 63.8071ZM19.6747 49.8068C19.6747 49.8068 19.6747 49.7942 19.6839 49.8005C19.6839 49.8005 19.6778 49.8005 19.6747 49.8068ZM54.0439 66.0481C54.0439 66.0481 53.6767 66.4704 53.6094 66.7509C53.6094 66.7887 53.6094 66.8265 53.6094 66.8644C53.6033 67.2457 53.4779 67.4727 53.2331 67.8351C52.7986 69.2062 52.0245 70.6497 50.7456 71.6267C49.6747 72.9537 48.5151 73.7479 46.9608 74.3278C45.4187 74.9708 44.0816 75.4121 42.2214 75.4373C42.151 75.3459 34.7895 75.2765 34.5845 75.4404C32.2836 75.2986 30.3438 74.8636 28.5172 73.8078C26.8772 72.6259 25.329 71.2359 24.2489 69.1809C24.2459 69.1809 24.2398 69.1841 24.2336 69.1872C24.2275 69.1778 24.2214 69.1683 24.2153 69.1557C24.2061 69.14 24.1969 69.1242 24.1877 69.1085C24.151 69.0486 24.1143 68.9855 24.0806 68.9256C24.047 68.8689 24.0164 68.8122 23.9889 68.7649C23.9552 68.705 23.9246 68.6577 23.9001 68.6168C23.8909 68.5979 23.8818 68.579 23.8726 68.5663C23.2545 67.3907 22.9486 66.0323 22.7589 64.6991V64.6896C22.6916 63.6212 22.7222 62.726 22.7283 62.5306V62.4928C22.7436 62.2879 22.7313 62.102 22.7772 61.9034C22.8139 61.5536 22.8476 60.5418 22.8476 60.482C23.0312 59.7066 23.2698 58.988 23.7257 58.1433C23.9338 57.3585 24.3193 56.684 24.8211 56.2459C24.8211 56.2459 26.1918 54.5251 26.4611 54.1847C26.4641 54.1847 26.4641 54.1815 26.4672 54.1784C27.4432 53.1194 28.7344 52.1833 29.842 51.6506C29.8787 51.6254 29.9215 51.6002 29.9613 51.5781C29.995 51.5592 30.0256 51.5403 30.0592 51.5245C30.4478 51.326 30.8853 51.2409 31.3229 51.1558C31.3229 51.1558 31.3473 51.1526 31.3963 51.14C31.4085 51.14 31.4238 51.1337 31.4422 51.1306C31.4575 51.1306 31.4667 51.1243 31.485 51.1211C31.5279 51.1085 31.5799 51.0959 31.638 51.0833C31.9134 51.0203 32.3356 50.9162 32.7334 50.8154C32.7364 50.8154 32.7395 50.8154 32.7456 50.8154C32.8802 50.7807 33.0883 50.7587 33.33 50.7429C33.6727 50.7177 34.0888 50.7082 34.4896 50.7082C35.2392 50.7051 35.9215 50.7208 35.9215 50.7208H35.946C36.1235 50.7208 37.1576 50.7208 38.0388 50.7208C38.0908 50.7208 38.1428 50.7208 38.1918 50.7208C38.4855 50.7208 38.7548 50.7177 38.9567 50.7114V50.7177C38.9016 50.7334 42.1785 50.5727 42.3682 50.5853C44.5743 50.7334 46.4835 51.2314 48.3468 52.3755C50.149 53.5575 51.7277 54.8718 52.8017 56.9078C53.8083 58.5846 54.4386 60.8318 54.2734 62.9467C54.3468 63.9584 54.3193 65.2286 54.0439 66.0481Z" fill="black"/>
</svg>
