<svg width="16" height="16" viewBox="0 0 16 16" fill="none" xmlns="http://www.w3.org/2000/svg">
<rect width="16" height="16" fill="white"/>
<path d="M14.1252 6.13153H14.1256C14.1224 6.1803 14.1185 6.22592 14.1145 6.25739C14.1145 6.25975 14.1145 6.2625 14.1137 6.26486C14.1137 6.26998 14.1121 6.27469 14.1117 6.27902C14.1109 6.28413 14.1102 6.28846 14.1094 6.29161C14.1086 6.29475 14.1078 6.29711 14.1074 6.29869L14.0896 6.30105L14.0666 6.30459L14.054 6.30655L14.0369 6.30891H14.033C13.8648 6.33527 11.5893 6.33055 11.5893 6.31835C11.5477 6.36358 11.5647 10.4045 11.5691 10.4002C11.5426 10.386 10.5754 10.3872 10.5955 10.373C10.5781 10.386 10.5599 9.49436 10.552 9.18364V9.18207C10.552 9.16987 10.552 9.15847 10.5512 9.14824C10.5524 9.1392 10.5536 9.11442 10.5548 9.07705C10.5659 8.75886 10.5781 7.51914 10.5793 7.44008V7.43615C10.5777 6.85798 10.5805 6.33645 10.5944 6.32622C10.5829 6.31363 9.16888 6.31127 9.02047 6.31717C8.99514 6.31599 8.96388 6.31442 8.93657 6.31167C8.93657 6.31167 8.93459 6.31127 8.9338 6.31127C8.92153 6.31009 8.91006 6.30813 8.90056 6.30655H8.89977C8.80162 6.30813 8.02161 6.33645 8.00499 6.33369C7.98837 6.31757 8.01646 5.34058 8.04258 5.3335C8.04258 5.33861 8.24995 5.34254 8.58198 5.34608H8.60375C9.98094 5.35945 13.4144 5.35827 13.399 5.35356C13.4014 5.35434 13.4037 5.35474 13.4061 5.35474H13.4097V5.35434C13.4105 5.35434 13.4117 5.35474 13.4136 5.35474C13.4223 5.35552 13.4425 5.3567 13.4694 5.35749C13.5205 5.35945 13.5961 5.35985 13.6677 5.35434C13.6685 5.35395 13.6697 5.35395 13.6705 5.35395C13.6705 5.35356 13.6717 5.35356 13.6725 5.35356C13.674 5.35356 13.6752 5.35356 13.6768 5.35316C13.6796 5.35316 13.682 5.35277 13.6847 5.35238C13.6887 5.35198 13.6926 5.35159 13.697 5.3512C13.7959 5.34254 14.1109 5.32091 14.1054 5.35591C14.1109 5.34333 14.1113 5.48846 14.1098 5.6096C14.1098 5.61118 14.1208 5.7217 14.128 5.81688C14.128 5.82002 14.128 5.82278 14.1288 5.82553C14.1288 5.83222 14.1295 5.8389 14.1299 5.8452C14.1311 5.86447 14.1323 5.88256 14.1331 5.8979V5.90852C14.1343 5.95926 14.1307 6.05011 14.1252 6.13153Z" fill="black"/>
<path d="M7.72655 7.97589C7.72655 7.97077 7.72655 7.96604 7.72655 7.96092C7.72655 7.95619 7.72655 7.95146 7.72655 7.94713C7.72655 7.94398 7.72655 7.94122 7.72655 7.93846C7.72655 7.93531 7.72655 7.93176 7.72655 7.92861V7.9227C7.72655 7.91995 7.72655 7.91679 7.72655 7.91443V7.91285C7.72655 7.91285 7.72655 7.9097 7.72655 7.90852C7.72655 7.90734 7.72655 7.90616 7.72655 7.90458C7.72655 7.90143 7.72655 7.89828 7.72616 7.89591C7.72616 7.89 7.72578 7.88685 7.72578 7.88685V7.88567C7.7254 7.87818 7.72425 7.87109 7.72387 7.864C7.76594 7.51651 7.65962 7.16863 7.57356 6.87C7.57356 6.87 7.46724 6.68286 7.41752 6.62495C7.41561 6.62022 7.4137 6.61589 7.41178 6.61155C7.35365 6.48193 7.27448 6.35507 7.17734 6.23885H7.17696C7.10582 6.14312 7.01671 6.04305 6.90541 5.95243C6.90388 5.95125 6.90197 5.94967 6.90082 5.94849C6.73675 5.81651 6.62086 5.73338 6.54552 5.68295C6.53978 5.67783 6.53443 5.67271 6.52869 5.66719C6.50383 5.65262 6.47897 5.63843 6.45449 5.62543C6.44073 5.61795 6.43422 5.6144 6.43422 5.6144H6.43346C6.0751 5.42253 5.7217 5.34413 5.31362 5.3461C5.29144 5.35635 4.86118 5.35989 4.58389 5.3528C4.58389 5.3528 4.58351 5.3528 4.58313 5.3528C4.5598 5.35122 4.37125 5.33822 4.35136 5.33547C4.33415 5.33389 4.31847 5.3335 4.30432 5.3335H4.30088C4.2764 5.33389 4.25575 5.33547 4.23815 5.33822C4.22668 5.3398 4.21597 5.34177 4.20641 5.34374C4.20641 5.34374 4.2045 5.34374 4.20067 5.34453C4.19914 5.34453 4.19761 5.34492 4.1957 5.34532C4.19417 5.34532 4.19264 5.34571 4.19035 5.3461C4.18843 5.3461 4.18652 5.34689 4.18423 5.34729C4.16357 5.35083 4.13451 5.35595 4.12227 5.35871C4.11883 5.3595 4.11462 5.35989 4.10965 5.35989C4.10085 5.35989 4.09014 5.3591 4.08058 5.35792C4.0779 5.35753 4.07561 5.35713 4.07331 5.35674C4.06452 5.35556 4.05687 5.35438 4.05381 5.35398C4.04463 5.35319 3.98114 5.36423 3.96011 5.36265H3.95705C3.93486 5.36107 3.90694 5.36462 3.88247 5.37092C3.88132 5.37092 3.87979 5.37132 3.87826 5.37171C3.87749 5.37171 3.87635 5.3725 3.8752 5.3725C3.77959 5.39377 3.6071 5.4446 3.6071 5.4446C3.51454 5.46233 3.43958 5.49818 3.38451 5.51315C3.20858 5.58485 3.05904 5.67586 2.94239 5.78342C2.94239 5.78342 2.93397 5.7913 2.92135 5.80311C2.89879 5.82321 2.86245 5.85473 2.83415 5.87324C2.82803 5.87718 2.82229 5.88073 2.81732 5.88349C2.81656 5.88349 2.81541 5.88427 2.81465 5.88506C2.81197 5.88624 2.80891 5.88821 2.80547 5.89097C2.80317 5.89255 2.80088 5.89452 2.7982 5.89609C2.78673 5.90476 2.77258 5.91619 2.75766 5.92998C2.75536 5.93194 2.75307 5.93391 2.75039 5.93628C2.73968 5.94573 2.72859 5.95598 2.7175 5.96583C2.69149 5.98986 2.66587 6.01429 2.64598 6.0332C2.63948 6.03911 2.6326 6.0462 2.62609 6.0529C2.61615 6.06235 2.6108 6.06826 2.6108 6.06826C2.6108 6.06826 2.61003 6.06905 2.60927 6.06984C2.59894 6.0785 2.54693 6.1242 2.48573 6.19079C2.45016 6.22979 2.41077 6.27589 2.37405 6.32671C2.28035 6.45672 2.29412 6.4516 2.23331 6.5497C2.2314 6.55285 2.2291 6.556 2.22719 6.55955C2.2226 6.56664 2.21763 6.57452 2.21227 6.58279C2.2096 6.58713 2.20654 6.59185 2.20386 6.59619C2.19774 6.60564 2.19162 6.61549 2.1855 6.62534C2.17938 6.63559 2.17288 6.64622 2.16638 6.65686C2.1354 6.70965 2.10251 6.77032 2.07115 6.83454C2.01569 6.94958 1.96597 7.07605 1.94341 7.18715C1.94188 7.19345 1.94073 7.20015 1.93958 7.20606V7.20685C1.92849 7.26989 1.92161 7.3735 1.91778 7.48578C1.90516 7.61343 1.89101 7.74502 1.88221 7.85652C1.88642 7.96565 1.85774 8.05114 1.86959 8.10984C1.86959 8.10984 1.86959 8.1126 1.86883 8.11733C1.86806 8.12875 1.8673 8.15279 1.87151 8.18036C1.91511 8.49712 2.04438 8.82373 2.1855 9.13142C2.18589 9.13142 2.18589 9.13221 2.18589 9.13221C2.18933 9.14048 2.24861 9.26655 2.30177 9.34338C2.30904 9.35402 2.31669 9.36347 2.32357 9.37175C2.32395 9.37253 2.32472 9.37332 2.32548 9.37371C2.32701 9.37568 2.32931 9.37805 2.33122 9.38041C2.41306 9.47694 2.49682 9.56716 2.58326 9.65265C2.59053 9.66014 2.59817 9.66762 2.60506 9.67471C2.60965 9.67905 2.61386 9.68338 2.61806 9.68771C2.62724 9.69638 2.63642 9.70505 2.6456 9.7145C2.64828 9.71687 2.65134 9.71923 2.65401 9.72199C2.65707 9.72475 2.66013 9.72751 2.66357 9.73066C2.78979 9.84924 2.92365 9.95837 3.07051 10.0616C3.16574 10.114 3.19213 10.1242 3.25524 10.1628C3.25715 10.164 3.2583 10.1648 3.2583 10.1648C3.2583 10.1648 3.29654 10.2003 3.38451 10.2405C3.38451 10.2405 3.38451 10.2405 3.38489 10.2405C3.44608 10.2684 3.53175 10.2988 3.64534 10.3208C3.86258 10.3693 4.07943 10.4126 4.34906 10.3969C4.31809 10.4032 5.27423 10.387 5.31515 10.3839C5.54692 10.3902 5.74312 10.3953 5.96877 10.3137C5.96877 10.3137 6.02385 10.298 6.08236 10.2858C6.08236 10.2858 6.08313 10.2858 6.08351 10.2858C6.09116 10.2842 6.09919 10.2826 6.10722 10.281C6.1076 10.281 6.10875 10.281 6.10913 10.281C6.1753 10.2688 6.26441 10.2338 6.26441 10.2338C6.54514 10.0608 6.77958 9.90716 7.00523 9.65265C7.05036 9.5971 7.11959 9.56479 7.13833 9.53682C7.14139 9.53406 7.14406 9.53131 7.14636 9.52894H7.14712L7.15439 9.52106L7.16281 9.512L7.19302 9.47969L7.21979 9.45093C7.26607 9.39105 7.30737 9.34535 7.33644 9.29453H7.33721C7.33721 9.29453 7.33721 9.29334 7.33759 9.29295C7.34141 9.28743 7.36359 9.25513 7.40375 9.18067C7.40452 9.1787 7.40567 9.17712 7.40681 9.17515C7.43014 9.13103 7.45997 9.07272 7.49554 8.99747C7.59651 8.78393 7.64853 8.62398 7.69366 8.39941C7.6971 8.38405 7.69978 8.36868 7.70245 8.35371C7.70475 8.34189 7.70704 8.33007 7.70857 8.31825C7.70972 8.31077 7.71048 8.30368 7.71201 8.29698C7.71278 8.29028 7.71354 8.28358 7.71469 8.27689C7.71546 8.2694 7.71622 8.26231 7.71737 8.25482C7.71813 8.24892 7.7189 8.24301 7.71928 8.2371C7.71966 8.23158 7.72043 8.22606 7.72081 8.22015C7.73075 8.13584 7.73381 8.05035 7.73075 7.96486V7.9751L7.72655 7.97589ZM2.45934 6.22585C2.45934 6.22585 2.45934 6.22427 2.46049 6.22506C2.46049 6.22506 2.45972 6.22506 2.45934 6.22585ZM6.75549 8.25601C6.75549 8.25601 6.70959 8.3088 6.70118 8.34386C6.70118 8.34859 6.70118 8.35332 6.70118 8.35805C6.70041 8.40572 6.68473 8.43408 6.65414 8.47939C6.59983 8.65077 6.50307 8.83121 6.3432 8.95334C6.20934 9.11921 6.06439 9.21849 5.8701 9.29098C5.67734 9.37135 5.51021 9.42651 5.27767 9.42966C5.26888 9.41823 4.34868 9.40957 4.32306 9.43005C4.03545 9.41232 3.79297 9.35796 3.56464 9.22597C3.35965 9.07823 3.16612 8.90449 3.03112 8.64762C3.03073 8.64762 3.02997 8.64801 3.0292 8.64841C3.02844 8.64722 3.02767 8.64604 3.02691 8.64447C3.02576 8.6425 3.02461 8.64053 3.02347 8.63856C3.01888 8.63107 3.01429 8.62319 3.01008 8.61571C3.00587 8.60861 3.00205 8.60152 2.99861 8.59561C2.9944 8.58813 2.99058 8.58222 2.98752 8.5771C2.98637 8.57473 2.98522 8.57237 2.98407 8.57079C2.90682 8.42384 2.86857 8.25404 2.84486 8.08739V8.0862C2.83645 7.95265 2.84027 7.84076 2.84103 7.81633V7.8116C2.84295 7.78599 2.84142 7.76275 2.84715 7.73793C2.85174 7.6942 2.85595 7.56773 2.85595 7.56025C2.8789 7.46333 2.90873 7.3735 2.96572 7.26792C2.99172 7.16982 3.03991 7.08551 3.10264 7.03074C3.10264 7.03074 3.27398 6.81563 3.30763 6.77308C3.30802 6.77308 3.30802 6.77269 3.3084 6.77229C3.4304 6.63992 3.5918 6.52291 3.73025 6.45633C3.73484 6.45317 3.74019 6.45002 3.74516 6.44726C3.74937 6.4449 3.7532 6.44254 3.7574 6.44057C3.80598 6.41575 3.86067 6.40511 3.91536 6.39447C3.91536 6.39447 3.91842 6.39408 3.92454 6.3925C3.92607 6.3925 3.92798 6.39171 3.93027 6.39132C3.93219 6.39132 3.93333 6.39053 3.93563 6.39014C3.94098 6.38856 3.94748 6.38699 3.95475 6.38541C3.98917 6.37753 4.04195 6.36453 4.09167 6.35192C4.09205 6.35192 4.09244 6.35192 4.0932 6.35192C4.11003 6.34759 4.13604 6.34483 4.16625 6.34286C4.20909 6.33971 4.2611 6.33853 4.3112 6.33853C4.4049 6.33813 4.49019 6.3401 4.49019 6.3401H4.49325C4.51543 6.3401 4.6447 6.3401 4.75485 6.3401C4.76135 6.3401 4.76786 6.3401 4.77398 6.3401C4.81069 6.3401 4.84435 6.33971 4.86959 6.33892V6.33971C4.86271 6.34168 5.27232 6.32159 5.29603 6.32316C5.57178 6.34168 5.81044 6.40393 6.04335 6.54694C6.26862 6.69468 6.46597 6.85897 6.60021 7.11348C6.72604 7.32307 6.80482 7.60398 6.78417 7.86833C6.79335 7.9948 6.78991 8.15357 6.75549 8.25601Z" fill="black"/>
</svg>
