<svg width="96" height="96" viewBox="0 0 96 96" fill="none" xmlns="http://www.w3.org/2000/svg">
<rect width="96" height="96" fill="white"/>
<path d="M84.7511 36.7892H84.7535C84.7345 37.0818 84.7108 37.3555 84.687 37.5443C84.687 37.5585 84.687 37.575 84.6823 37.5892C84.6823 37.6199 84.6728 37.6482 84.6704 37.6741C84.6657 37.7048 84.6609 37.7308 84.6562 37.7496C84.6514 37.7685 84.6467 37.7827 84.6443 37.7921L84.5374 37.8063L84.3997 37.8275L84.3237 37.8393L84.2216 37.8535H84.1979C83.1887 38.0116 69.5355 37.9833 69.5355 37.9101C69.2862 38.1815 69.3883 62.4269 69.4144 62.401C69.2553 62.316 63.4521 62.3231 63.5732 62.2381C63.4687 62.316 63.3595 56.9661 63.312 55.1018V55.0924C63.312 55.0192 63.312 54.9508 63.3073 54.8895C63.3144 54.8352 63.3215 54.6865 63.3287 54.4623C63.3951 52.5532 63.4687 45.1148 63.4759 44.6405V44.6169C63.4664 41.1479 63.483 38.0187 63.5661 37.9573C63.4972 37.8818 55.0133 37.8676 54.1228 37.903C53.9709 37.896 53.7833 37.8865 53.6194 37.87C53.6194 37.87 53.6076 37.8676 53.6028 37.8676C53.5292 37.8606 53.4603 37.8488 53.4034 37.8393H53.3986C52.8097 37.8488 48.1297 38.0187 48.0299 38.0022C47.9302 37.9054 48.0988 32.0435 48.2555 32.001C48.2555 32.0317 49.4997 32.0553 51.4919 32.0765H51.6225C59.8857 32.1567 80.4866 32.1496 80.394 32.1213C80.4082 32.1261 80.4225 32.1284 80.4367 32.1284H80.4581V32.1261C80.4628 32.1261 80.47 32.1284 80.4818 32.1284C80.5341 32.1331 80.6552 32.1402 80.8166 32.1449C81.1229 32.1567 81.5765 32.1591 82.0063 32.1261C82.011 32.1237 82.0181 32.1237 82.0229 32.1237C82.0229 32.1213 82.03 32.1213 82.0347 32.1213C82.0442 32.1213 82.0514 32.1213 82.0609 32.119C82.0775 32.119 82.0917 32.1166 82.1084 32.1143C82.1321 32.1119 82.1558 32.1095 82.182 32.1072C82.7756 32.0553 84.6657 31.9255 84.6324 32.1355C84.6657 32.06 84.668 32.9308 84.6585 33.6576C84.6585 33.6671 84.725 34.3302 84.7678 34.9013C84.7678 34.9201 84.7678 34.9367 84.7725 34.9532C84.7725 34.9933 84.7773 35.0334 84.7796 35.0712C84.7868 35.1868 84.7939 35.2954 84.7986 35.3874V35.4511C84.8058 35.7555 84.7844 36.3007 84.7511 36.7892Z" fill="black"/>
<path d="M46.3593 47.8553C46.3593 47.8246 46.3593 47.7962 46.3593 47.7655C46.3593 47.7371 46.3593 47.7088 46.3593 47.6828C46.3593 47.6639 46.3593 47.6473 46.3593 47.6308C46.3593 47.6119 46.3593 47.5906 46.3593 47.5717V47.5362C46.3593 47.5197 46.3593 47.5008 46.3593 47.4866V47.4771C46.3593 47.4771 46.3593 47.4582 46.3593 47.4511C46.3593 47.444 46.3593 47.4369 46.3593 47.4275C46.3593 47.4086 46.3593 47.3897 46.357 47.3755C46.357 47.34 46.3547 47.3211 46.3547 47.3211V47.314C46.3524 47.2691 46.3455 47.2266 46.3432 47.184C46.5956 45.0991 45.9577 43.0118 45.4414 41.22C45.4414 41.22 44.8034 40.0972 44.5051 39.7497C44.4937 39.7213 44.4822 39.6953 44.4707 39.6693C44.1219 38.8916 43.6469 38.1304 43.064 37.4331H43.0617C42.6349 36.8587 42.1002 36.2583 41.4325 35.7146C41.4233 35.7075 41.4118 35.698 41.4049 35.691C40.4205 34.8991 39.7252 34.4003 39.2731 34.0977C39.2387 34.067 39.2066 34.0363 39.1721 34.0032C39.023 33.9157 38.8738 33.8306 38.727 33.7526C38.6444 33.7077 38.6053 33.6864 38.6053 33.6864H38.6008C36.4506 32.5352 34.3302 32.0648 31.8817 32.0766C31.7486 32.1381 29.1671 32.1594 27.5034 32.1168C27.5034 32.1168 27.5011 32.1168 27.4988 32.1168C27.3588 32.1073 26.2275 32.0293 26.1082 32.0128C26.0049 32.0033 25.9108 32.001 25.8259 32.001H25.8053C25.6584 32.0033 25.5345 32.0128 25.4289 32.0293C25.3601 32.0388 25.2958 32.0506 25.2385 32.0624C25.2385 32.0624 25.227 32.0624 25.204 32.0672C25.1949 32.0672 25.1857 32.0695 25.1742 32.0719C25.165 32.0719 25.1558 32.0743 25.1421 32.0766C25.1306 32.0766 25.1191 32.0813 25.1054 32.0837C24.9814 32.105 24.807 32.1357 24.7336 32.1523C24.713 32.157 24.6877 32.1594 24.6579 32.1594C24.6051 32.1594 24.5408 32.1546 24.4835 32.1475C24.4674 32.1452 24.4536 32.1428 24.4399 32.1404C24.3871 32.1334 24.3412 32.1263 24.3228 32.1239C24.2678 32.1192 23.8868 32.1854 23.7606 32.1759H23.7423C23.6092 32.1664 23.4417 32.1877 23.2948 32.2255C23.2879 32.2255 23.2787 32.2279 23.2696 32.2303C23.265 32.2303 23.2581 32.235 23.2512 32.235C22.6775 32.3626 21.6426 32.6676 21.6426 32.6676C21.0873 32.774 20.6375 32.9891 20.307 33.0789C19.2515 33.5091 18.3542 34.0552 17.6543 34.7005C17.6543 34.7005 17.6038 34.7478 17.5281 34.8187C17.3927 34.9392 17.1747 35.1284 17.0049 35.2395C16.9682 35.2631 16.9338 35.2844 16.9039 35.3009C16.8993 35.3009 16.8925 35.3056 16.8879 35.3104C16.8718 35.3175 16.8535 35.3293 16.8328 35.3458C16.819 35.3553 16.8053 35.3671 16.7892 35.3766C16.7204 35.4286 16.6355 35.4971 16.546 35.5799C16.5322 35.5917 16.5184 35.6035 16.5024 35.6177C16.4381 35.6744 16.3716 35.7359 16.305 35.795C16.149 35.9392 15.9952 36.0857 15.8759 36.1992C15.8369 36.2346 15.7956 36.2772 15.7566 36.3174C15.6969 36.3741 15.6648 36.4096 15.6648 36.4096C15.6648 36.4096 15.6602 36.4143 15.6556 36.419C15.5936 36.471 15.2816 36.7452 14.9144 37.1447C14.701 37.3787 14.4646 37.6553 14.2443 37.9603C13.6821 38.7403 13.7647 38.7096 13.3999 39.2982C13.3884 39.3171 13.3746 39.336 13.3631 39.3573C13.3356 39.3998 13.3058 39.4471 13.2736 39.4968C13.2576 39.5228 13.2392 39.5511 13.2232 39.5771C13.1864 39.6339 13.1497 39.693 13.113 39.752C13.0763 39.8135 13.0373 39.8773 12.9983 39.9412C12.8124 40.2579 12.6151 40.6219 12.4269 41.0073C12.0941 41.6975 11.7958 42.4563 11.6604 43.1229C11.6513 43.1607 11.6444 43.2009 11.6375 43.2364V43.2411C11.5709 43.6193 11.5296 44.241 11.5067 44.9147C11.431 45.6806 11.3461 46.4701 11.2933 47.1391C11.3185 47.7939 11.1464 48.3068 11.2176 48.659C11.2176 48.659 11.2176 48.6756 11.213 48.704C11.2084 48.7725 11.2038 48.9167 11.229 49.0822C11.4906 50.9827 12.2663 52.9424 13.113 54.7885C13.1153 54.7885 13.1153 54.7932 13.1153 54.7932C13.136 54.8429 13.4916 55.5993 13.8106 56.0603C13.8542 56.1241 13.9001 56.1808 13.9414 56.2305C13.9437 56.2352 13.9483 56.2399 13.9529 56.2423C13.9621 56.2541 13.9758 56.2683 13.9873 56.2825C14.4784 56.8616 14.9809 57.4029 15.4996 57.9159C15.5432 57.9608 15.589 58.0057 15.6304 58.0483C15.6579 58.0743 15.6831 58.1003 15.7084 58.1263C15.7634 58.1783 15.8185 58.2303 15.8736 58.287C15.8897 58.3012 15.908 58.3154 15.9241 58.3319C15.9424 58.3485 15.9608 58.365 15.9814 58.3839C16.7387 59.0955 17.5419 59.7502 18.4231 60.3696C18.9944 60.684 19.1528 60.7454 19.5314 60.9771C19.5429 60.9842 19.5498 60.9889 19.5498 60.9889C19.5498 60.9889 19.7793 61.2017 20.307 61.4428C20.307 61.4428 20.307 61.4428 20.3093 61.4428C20.6765 61.6106 21.1905 61.7926 21.8721 61.925C23.1755 62.2157 24.4766 62.4758 26.0944 62.3812C25.9085 62.419 31.6454 62.3221 31.8909 62.3032C33.2815 62.341 34.4587 62.3718 35.8126 61.8824C35.8126 61.8824 36.1431 61.7879 36.4942 61.7146C36.4942 61.7146 36.4988 61.7146 36.5011 61.7146C36.547 61.7052 36.5951 61.6957 36.6433 61.6862C36.6456 61.6862 36.6525 61.6862 36.6548 61.6862C37.0518 61.613 37.5865 61.4026 37.5865 61.4026C39.2708 60.3648 40.6775 59.4429 42.0314 57.9159C42.3022 57.5826 42.7175 57.3888 42.83 57.2209C42.8483 57.2044 42.8644 57.1878 42.8782 57.1736H42.8827L42.9263 57.1264L42.9768 57.072L43.1581 56.8782L43.3187 56.7056C43.5964 56.3463 43.8442 56.0721 44.0186 55.7672H44.0232C44.0232 55.7672 44.0232 55.7601 44.0255 55.7577C44.0485 55.7246 44.1816 55.5308 44.4225 55.084C44.4271 55.0722 44.434 55.0627 44.4409 55.0509C44.5809 54.7862 44.7598 54.4363 44.9733 53.9848C45.5791 52.7036 45.8912 51.7439 46.1619 50.3965C46.1826 50.3043 46.1987 50.2121 46.2147 50.1223C46.2285 50.0514 46.2423 49.9804 46.2514 49.9095C46.2583 49.8646 46.2629 49.8221 46.2721 49.7819C46.2767 49.7417 46.2813 49.7015 46.2881 49.6613C46.2927 49.6164 46.2973 49.5739 46.3042 49.5289C46.3088 49.4935 46.3134 49.458 46.3157 49.4226C46.318 49.3895 46.3226 49.3564 46.3249 49.3209C46.3845 48.8151 46.4029 48.3021 46.3845 47.7892V47.8506L46.3593 47.8553ZM14.7561 37.3551C14.7561 37.3551 14.7561 37.3456 14.7629 37.3504C14.7629 37.3504 14.7583 37.3504 14.7561 37.3551ZM40.5329 49.536C40.5329 49.536 40.2576 49.8528 40.2071 50.0632C40.2071 50.0915 40.2071 50.1199 40.2071 50.1483C40.2025 50.4343 40.1084 50.6045 39.9248 50.8763C39.599 51.9046 39.0184 52.9873 38.0592 53.7201C37.256 54.7152 36.3863 55.3109 35.2206 55.7459C34.064 56.2281 33.0612 56.559 31.666 56.578C31.6133 56.5094 26.0921 56.4574 25.9383 56.5803C24.2127 56.4739 22.7578 56.1477 21.3879 55.3558C20.1579 54.4694 18.9967 53.4269 18.1867 51.8857C18.1844 51.8857 18.1798 51.8881 18.1752 51.8904C18.1706 51.8833 18.166 51.8763 18.1615 51.8668C18.1546 51.855 18.1477 51.8432 18.1408 51.8313C18.1133 51.7864 18.0857 51.7391 18.0605 51.6942C18.0352 51.6517 18.0123 51.6091 17.9916 51.5737C17.9664 51.5288 17.9435 51.4933 17.9251 51.4626C17.9182 51.4484 17.9113 51.4342 17.9044 51.4248C17.4409 50.543 17.2114 49.5242 17.0692 48.5243V48.5172C17.0187 47.7159 17.0416 47.0445 17.0462 46.898V46.8696C17.0577 46.716 17.0485 46.5765 17.0829 46.4276C17.1105 46.1652 17.1357 45.4064 17.1357 45.3615C17.2734 44.78 17.4524 44.241 17.7943 43.6075C17.9503 43.0189 18.2395 42.513 18.6158 42.1845C18.6158 42.1845 19.6439 40.8938 19.8458 40.6385C19.8481 40.6385 19.8481 40.6361 19.8504 40.6338C20.5824 39.8395 21.5508 39.1374 22.3815 38.738C22.409 38.719 22.4412 38.7001 22.471 38.6836C22.4962 38.6694 22.5192 38.6552 22.5444 38.6434C22.8359 38.4945 23.164 38.4307 23.4921 38.3668C23.4921 38.3668 23.5105 38.3645 23.5472 38.355C23.5564 38.355 23.5679 38.3503 23.5816 38.3479C23.5931 38.3479 23.6 38.3432 23.6138 38.3408C23.6459 38.3314 23.6849 38.3219 23.7285 38.3125C23.935 38.2652 24.2517 38.1872 24.55 38.1115C24.5523 38.1115 24.5546 38.1115 24.5592 38.1115C24.6602 38.0855 24.8162 38.069 24.9975 38.0572C25.2545 38.0383 25.5666 38.0312 25.8672 38.0312C26.4294 38.0288 26.9412 38.0406 26.9412 38.0406H26.9595C27.0926 38.0406 27.8682 38.0406 28.5291 38.0406C28.5681 38.0406 28.6071 38.0406 28.6439 38.0406C28.8641 38.0406 29.0661 38.0383 29.2175 38.0335V38.0383C29.1762 38.0501 31.6339 37.9295 31.7762 37.939C33.4307 38.0501 34.8626 38.4236 36.2601 39.2816C37.6117 40.1681 38.7958 41.1538 39.6013 42.6809C40.3562 43.9384 40.8289 45.6239 40.705 47.21C40.7601 47.9688 40.7395 48.9214 40.5329 49.536Z" fill="black"/>
</svg>
