<svg width="310" height="310" viewBox="0 0 310 310" fill="none" xmlns="http://www.w3.org/2000/svg">
<rect width="310" height="310" fill="white"/>
<path d="M268.51 118.798H268.518C268.456 119.743 268.38 120.627 268.303 121.237C268.303 121.283 268.303 121.336 268.288 121.382C268.288 121.481 268.257 121.572 268.249 121.656C268.234 121.755 268.219 121.839 268.203 121.9C268.188 121.961 268.173 122.007 268.165 122.037L267.82 122.083L267.375 122.151L267.13 122.189L266.8 122.235H266.723C263.465 122.746 219.376 122.654 219.376 122.418C218.571 123.294 218.901 201.587 218.985 201.503C218.471 201.229 199.732 201.252 200.123 200.977C199.786 201.229 199.433 183.953 199.28 177.933V177.902C199.28 177.666 199.28 177.445 199.264 177.247C199.287 177.072 199.31 176.592 199.333 175.868C199.548 169.703 199.786 145.683 199.809 144.152V144.075C199.778 132.873 199.832 122.769 200.1 122.57C199.878 122.327 172.481 122.281 169.606 122.395C169.115 122.372 168.51 122.342 167.981 122.288C167.981 122.288 167.942 122.281 167.927 122.281C167.689 122.258 167.467 122.22 167.283 122.189H167.267C165.366 122.22 150.253 122.769 149.931 122.715C149.609 122.403 150.153 103.474 150.66 103.336C150.66 103.435 154.677 103.512 161.11 103.58H161.532C188.215 103.839 254.739 103.817 254.44 103.725C254.486 103.74 254.532 103.748 254.578 103.748H254.647V103.74C254.662 103.74 254.685 103.748 254.724 103.748C254.892 103.763 255.283 103.786 255.805 103.801C256.794 103.839 258.259 103.847 259.646 103.74C259.662 103.733 259.685 103.733 259.7 103.733C259.7 103.725 259.723 103.725 259.738 103.725C259.769 103.725 259.792 103.725 259.823 103.717C259.876 103.717 259.922 103.71 259.976 103.702C260.053 103.695 260.129 103.687 260.214 103.679C262.131 103.512 268.234 103.093 268.127 103.771C268.234 103.527 268.242 106.339 268.211 108.686C268.211 108.716 268.426 110.858 268.564 112.702C268.564 112.763 268.564 112.816 268.579 112.87C268.579 112.999 268.594 113.129 268.602 113.251C268.625 113.624 268.648 113.975 268.663 114.272V114.478C268.686 115.461 268.617 117.221 268.51 118.798Z" fill="black"/>
<path d="M149.702 154.533C149.702 154.434 149.702 154.342 149.702 154.243C149.702 154.151 149.702 154.06 149.702 153.976C149.702 153.915 149.702 153.861 149.702 153.808C149.702 153.747 149.702 153.678 149.702 153.617V153.502C149.702 153.449 149.702 153.388 149.702 153.342V153.311C149.702 153.311 149.702 153.25 149.702 153.228C149.702 153.205 149.702 153.182 149.702 153.151C149.702 153.09 149.702 153.029 149.695 152.983C149.695 152.869 149.687 152.808 149.687 152.808V152.785C149.68 152.64 149.658 152.502 149.65 152.365C150.465 145.632 148.405 138.892 146.738 133.106C146.738 133.106 144.678 129.48 143.715 128.358C143.678 128.267 143.641 128.183 143.604 128.099C142.477 125.587 140.943 123.13 139.061 120.878H139.054C137.675 119.023 135.949 117.084 133.793 115.328C133.763 115.305 133.726 115.275 133.704 115.252C130.525 112.695 128.279 111.084 126.82 110.107C126.708 110.008 126.605 109.909 126.494 109.802C126.012 109.519 125.53 109.245 125.056 108.993C124.789 108.848 124.663 108.779 124.663 108.779H124.648C117.705 105.062 110.858 103.543 102.952 103.581C102.522 103.779 94.1855 103.848 88.8131 103.71C88.8131 103.71 88.8057 103.71 88.7983 103.71C88.3463 103.68 84.6931 103.428 84.3078 103.375C83.9743 103.344 83.6705 103.336 83.3963 103.336H83.3296C82.8554 103.344 82.4552 103.375 82.1144 103.428C81.8921 103.459 81.6846 103.497 81.4993 103.535C81.4993 103.535 81.4623 103.535 81.3882 103.55C81.3586 103.55 81.3289 103.558 81.2919 103.565C81.2622 103.565 81.2326 103.573 81.1881 103.581C81.1511 103.581 81.114 103.596 81.0696 103.604C80.6694 103.672 80.1062 103.772 79.8691 103.825C79.8024 103.84 79.7209 103.848 79.6246 103.848C79.4542 103.848 79.2467 103.833 79.0614 103.81C79.0095 103.802 78.9651 103.794 78.9206 103.787C78.7502 103.764 78.602 103.741 78.5427 103.733C78.3649 103.718 77.1348 103.932 76.7272 103.901H76.668C76.2382 103.871 75.6972 103.939 75.223 104.062C75.2008 104.062 75.1711 104.069 75.1415 104.077C75.1266 104.077 75.1044 104.092 75.0822 104.092C73.2297 104.504 69.8877 105.489 69.8877 105.489C68.0944 105.833 66.6421 106.527 65.575 106.817C62.1664 108.206 59.269 109.97 57.0089 112.054C57.0089 112.054 56.8459 112.206 56.6014 112.435C56.1642 112.825 55.4602 113.435 54.9119 113.794C54.7933 113.87 54.6821 113.939 54.5858 113.992C54.571 113.992 54.5488 114.008 54.5339 114.023C54.4821 114.046 54.4228 114.084 54.3561 114.138C54.3116 114.168 54.2672 114.206 54.2153 114.237C53.993 114.405 53.7188 114.626 53.4298 114.893C53.3854 114.931 53.3409 114.97 53.289 115.015C53.0816 115.199 52.8667 115.397 52.6518 115.588C52.1479 116.053 51.6514 116.527 51.2661 116.893C51.1401 117.008 51.0067 117.145 50.8808 117.275C50.6881 117.458 50.5843 117.572 50.5843 117.572C50.5843 117.572 50.5695 117.588 50.5547 117.603C50.3546 117.771 49.3469 118.656 48.1612 119.946C47.4721 120.702 46.7089 121.595 45.9975 122.58C44.182 125.099 44.4488 125 43.2706 126.9C43.2335 126.961 43.1891 127.022 43.152 127.091C43.0631 127.229 42.9667 127.381 42.863 127.542C42.8111 127.626 42.7519 127.717 42.7 127.801C42.5814 127.984 42.4629 128.175 42.3443 128.366C42.2257 128.564 42.0998 128.771 41.9738 128.977C41.3736 129.999 40.7363 131.175 40.1287 132.419C39.0542 134.648 38.0909 137.098 37.6537 139.251C37.6241 139.373 37.6018 139.503 37.5796 139.617V139.633C37.3647 140.854 37.2313 142.862 37.1572 145.037C36.9127 147.51 36.6385 150.06 36.4681 152.22C36.5496 154.334 35.9938 155.991 36.2235 157.128C36.2235 157.128 36.2235 157.182 36.2087 157.273C36.1939 157.495 36.1791 157.96 36.2606 158.494C37.1053 164.632 39.61 170.96 42.3443 176.921C42.3517 176.921 42.3517 176.936 42.3517 176.936C42.4184 177.097 43.567 179.539 44.597 181.028C44.7378 181.234 44.886 181.417 45.0194 181.577C45.0268 181.593 45.0416 181.608 45.0564 181.616C45.086 181.654 45.1305 181.7 45.1676 181.745C46.7533 183.616 48.3761 185.364 50.0508 187.02C50.1916 187.165 50.3398 187.31 50.4732 187.447C50.5621 187.531 50.6436 187.615 50.7251 187.699C50.903 187.867 51.0808 188.035 51.2587 188.218C51.3105 188.264 51.3698 188.31 51.4217 188.363C51.481 188.417 51.5403 188.47 51.6069 188.531C54.0523 190.829 56.6458 192.943 59.4913 194.943C61.3364 195.959 61.8477 196.157 63.0704 196.905C63.1074 196.928 63.1297 196.943 63.1297 196.943C63.1297 196.943 63.8707 197.63 65.575 198.409C65.575 198.409 65.575 198.409 65.5824 198.409C66.768 198.951 68.4279 199.539 70.6287 199.966C74.8377 200.905 79.0392 201.745 84.2633 201.439C83.6631 201.561 102.188 201.248 102.981 201.187C107.472 201.31 111.273 201.409 115.645 199.829C115.645 199.829 116.712 199.523 117.846 199.287C117.846 199.287 117.861 199.287 117.868 199.287C118.016 199.256 118.172 199.226 118.328 199.195C118.335 199.195 118.357 199.195 118.365 199.195C119.647 198.958 121.373 198.279 121.373 198.279C126.812 194.928 131.355 191.951 135.727 187.02C136.601 185.944 137.942 185.318 138.305 184.776C138.365 184.722 138.416 184.669 138.461 184.623H138.476L138.617 184.471L138.78 184.295L139.365 183.669L139.884 183.112C140.78 181.952 141.581 181.066 142.144 180.081H142.159C142.159 180.081 142.159 180.058 142.166 180.051C142.24 179.944 142.67 179.318 143.448 177.875C143.463 177.837 143.485 177.807 143.507 177.768C143.959 176.914 144.537 175.784 145.226 174.326C147.183 170.189 148.19 167.09 149.065 162.739C149.131 162.441 149.183 162.143 149.235 161.853C149.28 161.624 149.324 161.395 149.354 161.166C149.376 161.021 149.391 160.884 149.42 160.754C149.435 160.624 149.45 160.494 149.472 160.365C149.487 160.22 149.502 160.082 149.524 159.937C149.539 159.823 149.554 159.708 149.561 159.594C149.569 159.487 149.583 159.38 149.591 159.265C149.784 157.632 149.843 155.975 149.784 154.319V154.518L149.702 154.533ZM47.6499 120.626C47.6499 120.626 47.6499 120.595 47.6722 120.611C47.6722 120.611 47.6574 120.611 47.6499 120.626ZM130.888 159.96C130.888 159.96 129.999 160.983 129.836 161.662C129.836 161.754 129.836 161.845 129.836 161.937C129.821 162.861 129.517 163.41 128.924 164.288C127.872 167.609 125.997 171.105 122.9 173.471C120.306 176.685 117.498 178.608 113.733 180.013C109.999 181.57 106.76 182.639 102.255 182.7C102.085 182.478 84.2559 182.31 83.7594 182.707C78.187 182.364 73.489 181.31 69.0652 178.753C65.0934 175.891 61.3438 172.524 58.7281 167.548C58.7207 167.548 58.7058 167.555 58.691 167.563C58.6762 167.54 58.6614 167.517 58.6466 167.486C58.6243 167.448 58.6021 167.41 58.5799 167.372C58.4909 167.227 58.402 167.074 58.3205 166.929C58.239 166.792 58.1649 166.654 58.0982 166.54C58.0167 166.395 57.9426 166.28 57.8833 166.181C57.8611 166.135 57.8389 166.09 57.8166 166.059C56.3198 163.212 55.5788 159.922 55.1193 156.693V156.67C54.9563 154.082 55.0304 151.915 55.0452 151.441V151.35C55.0823 150.854 55.0526 150.403 55.1638 149.922C55.2527 149.075 55.3342 146.625 55.3342 146.48C55.7788 144.602 56.3568 142.862 57.4609 140.816C57.9648 138.915 58.8985 137.282 60.1138 136.221C60.1138 136.221 63.4335 132.053 64.0856 131.228C64.093 131.228 64.093 131.221 64.1004 131.213C66.4642 128.648 69.5913 126.381 72.2738 125.091C72.3627 125.03 72.4664 124.969 72.5627 124.916C72.6443 124.87 72.7184 124.824 72.7999 124.786C73.741 124.305 74.8006 124.099 75.8602 123.893C75.8602 123.893 75.9195 123.885 76.0381 123.855C76.0677 123.855 76.1048 123.839 76.1492 123.832C76.1863 123.832 76.2085 123.817 76.253 123.809C76.3567 123.778 76.4827 123.748 76.6235 123.717C77.2904 123.565 78.313 123.313 79.2763 123.068C79.2837 123.068 79.2911 123.068 79.306 123.068C79.632 122.984 80.1359 122.931 80.7213 122.893C81.5512 122.832 82.559 122.809 83.5297 122.809C85.3452 122.801 86.9977 122.839 86.9977 122.839H87.0569C87.4867 122.839 89.9913 122.839 92.1255 122.839C92.2514 122.839 92.3774 122.839 92.496 122.839C93.2073 122.839 93.8594 122.832 94.3485 122.817V122.832C94.2151 122.87 102.151 122.481 102.611 122.511C107.953 122.87 112.577 124.076 117.09 126.847C121.455 129.709 125.278 132.892 127.879 137.824C130.317 141.884 131.844 147.327 131.444 152.449C131.621 154.899 131.555 157.975 130.888 159.96Z" fill="black"/>
</svg>
