<svg width="70" height="70" viewBox="0 0 70 70" fill="none" xmlns="http://www.w3.org/2000/svg">
<rect width="70" height="70" fill="white"/>
<path d="M60.6312 26.8254H60.6329C60.6191 27.0388 60.6018 27.2384 60.5845 27.376C60.5845 27.3863 60.5845 27.3984 60.581 27.4087C60.581 27.4311 60.5741 27.4517 60.5723 27.4707C60.5689 27.493 60.5654 27.512 60.562 27.5257C60.5585 27.5395 60.555 27.5498 60.5533 27.5567L60.4754 27.567L60.375 27.5825L60.3196 27.5911L60.2451 27.6014H60.2278C59.4919 27.7167 49.5365 27.6961 49.5365 27.6427C49.3547 27.8406 49.4291 45.5196 49.4482 45.5006C49.3322 45.4387 45.1007 45.4438 45.189 45.3819C45.1128 45.4387 45.0331 41.5378 44.9985 40.1784V40.1715C44.9985 40.1181 44.9985 40.0682 44.9951 40.0235C45.0002 39.9839 45.0054 39.8755 45.0106 39.712C45.0591 38.32 45.1128 32.8962 45.118 32.5503V32.5331C45.1111 30.0036 45.1232 27.7219 45.1838 27.6771C45.1336 27.6221 38.9473 27.6118 38.2981 27.6376C38.1872 27.6324 38.0505 27.6255 37.931 27.6135C37.931 27.6135 37.9223 27.6118 37.9189 27.6118C37.8652 27.6066 37.815 27.598 37.7734 27.5911H37.77C37.3406 27.598 33.928 27.7219 33.8553 27.7098C33.7826 27.6393 33.9055 23.365 34.0198 23.334C34.0198 23.3564 34.927 23.3736 36.3797 23.389H36.4749C42.5001 23.4476 57.5216 23.4424 57.4541 23.4217C57.4645 23.4252 57.4749 23.4269 57.4853 23.4269H57.5009V23.4252C57.5043 23.4252 57.5095 23.4269 57.5182 23.4269C57.5563 23.4303 57.6446 23.4355 57.7623 23.4389C57.9856 23.4476 58.3163 23.4493 58.6297 23.4252C58.6332 23.4235 58.6384 23.4235 58.6418 23.4235C58.6418 23.4217 58.647 23.4217 58.6505 23.4217C58.6574 23.4217 58.6626 23.4217 58.6695 23.42C58.6817 23.42 58.6921 23.4183 58.7042 23.4166C58.7215 23.4149 58.7388 23.4131 58.7578 23.4114C59.1907 23.3736 60.5689 23.2789 60.5446 23.4321C60.5689 23.377 60.5706 24.012 60.5637 24.5419C60.5637 24.5488 60.6122 25.0324 60.6433 25.4488C60.6433 25.4625 60.6433 25.4746 60.6468 25.4866C60.6468 25.5159 60.6502 25.5451 60.652 25.5727C60.6572 25.657 60.6624 25.7361 60.6658 25.8033V25.8497C60.671 26.0717 60.6554 26.4692 60.6312 26.8254Z" fill="black"/>
<path d="M33.8038 34.8945C33.8038 34.872 33.8038 34.8514 33.8038 34.829C33.8038 34.8083 33.8038 34.7876 33.8038 34.7686C33.8038 34.7548 33.8038 34.7428 33.8038 34.7307C33.8038 34.7169 33.8038 34.7014 33.8038 34.6876V34.6618C33.8038 34.6497 33.8038 34.6359 33.8038 34.6256V34.6187C33.8038 34.6187 33.8038 34.6049 33.8038 34.5997C33.8038 34.5945 33.8038 34.5894 33.8038 34.5825C33.8038 34.5687 33.8038 34.5549 33.8022 34.5446C33.8022 34.5187 33.8005 34.5049 33.8005 34.5049V34.4997C33.7988 34.467 33.7938 34.436 33.7921 34.4049C33.9762 32.8847 33.511 31.3627 33.1345 30.0562C33.1345 30.0562 32.6694 29.2375 32.4518 28.9841C32.4435 28.9634 32.4351 28.9444 32.4267 28.9255C32.1724 28.3584 31.826 27.8034 31.401 27.2949H31.3994C31.0881 26.8761 30.6983 26.4383 30.2114 26.0418C30.2047 26.0367 30.1963 26.0298 30.1913 26.0246C29.4735 25.4472 28.9665 25.0835 28.6368 24.8629C28.6117 24.8404 28.5883 24.818 28.5632 24.7939C28.4544 24.7301 28.3457 24.6681 28.2386 24.6112C28.1784 24.5785 28.1499 24.5629 28.1499 24.5629H28.1466C26.5787 23.7235 25.0326 23.3805 23.2473 23.3891C23.1502 23.434 21.2678 23.4495 20.0547 23.4184C20.0547 23.4184 20.053 23.4184 20.0514 23.4184C19.9493 23.4115 19.1244 23.3547 19.0374 23.3426C18.9621 23.3357 18.8935 23.334 18.8316 23.334H18.8165C18.7094 23.3357 18.6191 23.3426 18.5421 23.3547C18.4919 23.3616 18.4451 23.3702 18.4032 23.3788C18.4032 23.3788 18.3949 23.3788 18.3781 23.3822C18.3714 23.3822 18.3647 23.384 18.3564 23.3857C18.3497 23.3857 18.343 23.3874 18.3329 23.3891C18.3246 23.3891 18.3162 23.3926 18.3062 23.3943C18.2158 23.4098 18.0886 23.4322 18.0351 23.4443C18.02 23.4477 18.0016 23.4495 17.9799 23.4495C17.9414 23.4495 17.8946 23.446 17.8527 23.4409C17.841 23.4391 17.831 23.4374 17.8209 23.4357C17.7824 23.4305 17.749 23.4253 17.7356 23.4236C17.6954 23.4202 17.4177 23.4684 17.3256 23.4615H17.3123C17.2152 23.4546 17.0931 23.4702 16.986 23.4977C16.981 23.4977 16.9743 23.4995 16.9676 23.5012C16.9642 23.5012 16.9592 23.5046 16.9542 23.5046C16.5359 23.5977 15.7812 23.8201 15.7812 23.8201C15.3763 23.8976 15.0484 24.0545 14.8074 24.12C14.0377 24.4337 13.3835 24.8318 12.8731 25.3024C12.8731 25.3024 12.8363 25.3369 12.7811 25.3886C12.6824 25.4765 12.5234 25.6144 12.3996 25.6954C12.3728 25.7126 12.3477 25.7281 12.326 25.7402C12.3226 25.7402 12.3176 25.7436 12.3143 25.7471C12.3025 25.7523 12.2892 25.7609 12.2741 25.7729C12.2641 25.7798 12.254 25.7885 12.2423 25.7953C12.1921 25.8333 12.1302 25.8833 12.0649 25.9436C12.0549 25.9522 12.0449 25.9608 12.0332 25.9712C11.9863 26.0125 11.9378 26.0573 11.8893 26.1004C11.7755 26.2056 11.6634 26.3124 11.5764 26.3952C11.5479 26.421 11.5178 26.4521 11.4893 26.4814C11.4458 26.5227 11.4224 26.5486 11.4224 26.5486C11.4224 26.5486 11.4191 26.552 11.4157 26.5555C11.3705 26.5934 11.143 26.7933 10.8753 27.0846C10.7196 27.2553 10.5473 27.4569 10.3867 27.6793C9.97672 28.2481 10.037 28.2257 9.77091 28.6549C9.76255 28.6687 9.75251 28.6824 9.74414 28.698C9.72406 28.729 9.70231 28.7635 9.67889 28.7997C9.66717 28.8186 9.65379 28.8393 9.64207 28.8583C9.6153 28.8996 9.58853 28.9427 9.56176 28.9858C9.53499 29.0306 9.50654 29.0772 9.47809 29.1237C9.34256 29.3547 9.19866 29.6201 9.06146 29.9011C8.81883 30.4044 8.60131 30.9577 8.50259 31.4437C8.4959 31.4713 8.49088 31.5006 8.48586 31.5265V31.5299C8.43733 31.8057 8.40721 32.259 8.39048 32.7502C8.33526 33.3087 8.27335 33.8844 8.23487 34.3722C8.25327 34.8496 8.12778 35.2237 8.17965 35.4805C8.17965 35.4805 8.17965 35.4926 8.17631 35.5132C8.17296 35.5632 8.16961 35.6684 8.18802 35.789C8.37877 37.1748 8.94433 38.6037 9.56176 39.9499C9.56343 39.9499 9.56343 39.9533 9.56343 39.9533C9.57849 39.9895 9.83784 40.5411 10.0704 40.8772C10.1022 40.9238 10.1357 40.9651 10.1658 41.0013C10.1675 41.0048 10.1708 41.0082 10.1742 41.0099C10.1809 41.0186 10.1909 41.0289 10.1993 41.0392C10.5573 41.4615 10.9238 41.8562 11.3019 42.2303C11.3337 42.263 11.3672 42.2958 11.3973 42.3268C11.4174 42.3458 11.4358 42.3647 11.4542 42.3837C11.4944 42.4216 11.5345 42.4595 11.5747 42.5009C11.5864 42.5112 11.5998 42.5216 11.6115 42.5336C11.6249 42.5457 11.6383 42.5578 11.6533 42.5716C12.2055 43.0904 12.7911 43.5678 13.4337 44.0194C13.8503 44.2487 13.9658 44.2935 14.2418 44.4624C14.2502 44.4676 14.2552 44.471 14.2552 44.471C14.2552 44.471 14.4226 44.6261 14.8074 44.802C14.8074 44.802 14.8074 44.802 14.8091 44.802C15.0768 44.9243 15.4516 45.0571 15.9486 45.1536C16.899 45.3656 17.8477 45.5552 19.0273 45.4862C18.8918 45.5138 23.0749 45.4432 23.254 45.4294C24.268 45.4569 25.1263 45.4793 26.1136 45.1226C26.1136 45.1226 26.3545 45.0536 26.6105 45.0002C26.6105 45.0002 26.6139 45.0002 26.6155 45.0002C26.649 44.9933 26.6841 44.9864 26.7193 44.9795C26.721 44.9795 26.726 44.9795 26.7276 44.9795C27.0171 44.9261 27.407 44.7727 27.407 44.7727C28.6352 44.016 29.6609 43.3438 30.6481 42.2303C30.8455 41.9872 31.1484 41.8459 31.2304 41.7235C31.2438 41.7115 31.2555 41.6994 31.2655 41.6891H31.2689L31.3006 41.6546L31.3375 41.6149L31.4696 41.4736L31.5868 41.3478C31.7892 41.0858 31.9699 40.8858 32.0971 40.6635H32.1005C32.1005 40.6635 32.1005 40.6583 32.1021 40.6566C32.1189 40.6325 32.2159 40.4911 32.3916 40.1654C32.395 40.1567 32.4 40.1498 32.405 40.1412C32.5071 39.9482 32.6376 39.6931 32.7932 39.3639C33.2349 38.4296 33.4625 37.7298 33.6599 36.7474C33.675 36.6802 33.6867 36.6129 33.6984 36.5474C33.7085 36.4957 33.7185 36.444 33.7252 36.3923C33.7302 36.3596 33.7336 36.3285 33.7402 36.2992C33.7436 36.2699 33.7469 36.2406 33.752 36.2113C33.7553 36.1786 33.7587 36.1475 33.7637 36.1148C33.767 36.0889 33.7704 36.0631 33.772 36.0372C33.7737 36.0131 33.7771 35.989 33.7787 35.9631C33.8222 35.5943 33.8356 35.2202 33.8222 34.8462V34.891L33.8038 34.8945ZM10.7598 27.238C10.7598 27.238 10.7598 27.2311 10.7648 27.2346C10.7648 27.2346 10.7615 27.2346 10.7598 27.238ZM29.5554 36.12C29.5554 36.12 29.3547 36.3509 29.3178 36.5043C29.3178 36.525 29.3178 36.5457 29.3178 36.5664C29.3145 36.775 29.2459 36.8991 29.112 37.0973C28.8744 37.8471 28.4511 38.6365 27.7517 39.1708C27.166 39.8965 26.5319 40.3308 25.6819 40.648C24.8385 40.9996 24.1073 41.2409 23.09 41.2547C23.0515 41.2047 19.0257 41.1668 18.9136 41.2564C17.6553 41.1789 16.5944 40.941 15.5955 40.3636C14.6986 39.7172 13.852 38.9571 13.2613 37.8333C13.2596 37.8333 13.2563 37.835 13.253 37.8367C13.2496 37.8315 13.2463 37.8264 13.2429 37.8195C13.2379 37.8109 13.2329 37.8022 13.2279 37.7936C13.2078 37.7609 13.1877 37.7264 13.1693 37.6937C13.1509 37.6626 13.1342 37.6316 13.1191 37.6057C13.1007 37.573 13.084 37.5471 13.0706 37.5247C13.0655 37.5144 13.0605 37.5041 13.0555 37.4972C12.7175 36.8542 12.5502 36.1113 12.4464 35.3822V35.3771C12.4096 34.7928 12.4264 34.3032 12.4297 34.1964V34.1757C12.4381 34.0637 12.4314 33.962 12.4565 33.8534C12.4766 33.6621 12.495 33.1088 12.495 33.076C12.5954 32.652 12.7259 32.259 12.9752 31.7971C13.089 31.3679 13.2998 30.999 13.5742 30.7594C13.5742 30.7594 14.3238 29.8183 14.4711 29.6322C14.4728 29.6322 14.4728 29.6305 14.4744 29.6287C15.0082 29.0496 15.7143 28.5377 16.32 28.2464C16.3401 28.2326 16.3635 28.2188 16.3853 28.2067C16.4037 28.1964 16.4204 28.186 16.4388 28.1774C16.6513 28.0688 16.8906 28.0223 17.1299 27.9758C17.1299 27.9758 17.1433 27.974 17.17 27.9671C17.1767 27.9671 17.1851 27.9637 17.1951 27.962C17.2035 27.962 17.2085 27.9585 17.2186 27.9568C17.242 27.9499 17.2704 27.943 17.3022 27.9361C17.4528 27.9016 17.6837 27.8448 17.9012 27.7896C17.9029 27.7896 17.9046 27.7896 17.9079 27.7896C17.9816 27.7706 18.0953 27.7586 18.2275 27.75C18.4149 27.7362 18.6425 27.731 18.8617 27.731C19.2716 27.7293 19.6448 27.7379 19.6448 27.7379H19.6582C19.7552 27.7379 20.3208 27.7379 20.8027 27.7379C20.8311 27.7379 20.8596 27.7379 20.8863 27.7379C21.047 27.7379 21.1942 27.7362 21.3046 27.7327V27.7362C21.2745 27.7448 23.0666 27.6569 23.1703 27.6638C24.3767 27.7448 25.4208 28.0171 26.4398 28.6428C27.4254 29.2892 28.2888 30.0079 28.8761 31.1214C29.4266 32.0384 29.7713 33.2673 29.6809 34.4239C29.7211 34.9772 29.706 35.6718 29.5554 36.12Z" fill="black"/>
</svg>
