<svg width="150" height="150" viewBox="0 0 150 150" fill="none" xmlns="http://www.w3.org/2000/svg">
<rect width="150" height="150" fill="white"/>
<path d="M129.924 57.483H129.928C129.898 57.9402 129.861 58.368 129.824 58.663C129.824 58.6851 129.824 58.7109 129.817 58.733C129.817 58.781 129.802 58.8252 129.798 58.8658C129.791 58.9137 129.783 58.9543 129.776 58.9838C129.768 59.0133 129.761 59.0354 129.757 59.0501L129.59 59.0723L129.375 59.1054L129.256 59.1239L129.097 59.146H129.06C127.483 59.3931 106.15 59.3488 106.15 59.2345C105.76 59.6585 105.92 97.542 105.961 97.5014C105.712 97.3687 96.6444 97.3798 96.8337 97.247C96.6704 97.3687 96.4997 89.0095 96.4255 86.0966V86.0818C96.4255 85.9675 96.4255 85.8606 96.4181 85.7647C96.4292 85.6799 96.4404 85.4476 96.4515 85.0973C96.5554 82.1143 96.6704 70.4919 96.6815 69.7507V69.7138C96.6667 64.2935 96.6927 59.4041 96.8225 59.3082C96.7149 59.1902 83.4587 59.1681 82.0674 59.2234C81.83 59.2124 81.5369 59.1976 81.2809 59.1718C81.2809 59.1718 81.2623 59.1681 81.2549 59.1681C81.1399 59.1571 81.0323 59.1386 80.9432 59.1239H80.9358C80.0157 59.1386 72.7031 59.4041 72.5472 59.3783C72.3914 59.2271 72.6548 50.0678 72.8997 50.0015C72.8997 50.0494 74.8438 50.0863 77.9566 50.1195H78.1607C91.0718 50.2448 123.261 50.2338 123.116 50.1895C123.138 50.1969 123.161 50.2006 123.183 50.2006H123.216V50.1969C123.224 50.1969 123.235 50.2006 123.253 50.2006C123.335 50.208 123.524 50.219 123.776 50.2264C124.255 50.2448 124.964 50.2485 125.635 50.1969C125.643 50.1932 125.654 50.1932 125.661 50.1932C125.661 50.1895 125.672 50.1895 125.68 50.1895C125.695 50.1895 125.706 50.1895 125.721 50.1858C125.747 50.1858 125.769 50.1821 125.795 50.1785C125.832 50.1748 125.869 50.1711 125.91 50.1674C126.837 50.0863 129.791 49.8835 129.739 50.2116C129.791 50.0936 129.794 51.4543 129.779 52.59C129.779 52.6047 129.883 53.6408 129.95 54.5332C129.95 54.5627 129.95 54.5885 129.958 54.6143C129.958 54.677 129.965 54.7397 129.969 54.7987C129.98 54.9793 129.991 55.149 129.998 55.2928V55.3923C130.009 55.868 129.976 56.7197 129.924 57.483Z" fill="black"/>
<path d="M72.4366 74.7739C72.4366 74.7259 72.4366 74.6816 72.4366 74.6336C72.4366 74.5892 72.4366 74.5449 72.4366 74.5043C72.4366 74.4747 72.4366 74.4489 72.4366 74.423C72.4366 74.3935 72.4366 74.3602 72.4366 74.3307V74.2753C72.4366 74.2494 72.4366 74.2199 72.4366 74.1977V74.1829C72.4366 74.1829 72.4366 74.1534 72.4366 74.1423C72.4366 74.1312 72.4366 74.1202 72.4366 74.1054C72.4366 74.0758 72.4366 74.0463 72.433 74.0241C72.433 73.9687 72.4294 73.9392 72.4294 73.9392V73.9281C72.4258 73.8579 72.4151 73.7914 72.4115 73.7249C72.8059 70.4673 71.8091 67.2059 71.0024 64.4062C71.0024 64.4062 70.0056 62.6518 69.5395 62.1088C69.5215 62.0645 69.5036 62.0239 69.4857 61.9832C68.9407 60.7681 68.1985 59.5788 67.2877 58.4892H67.2842C66.6172 57.5916 65.7818 56.6535 64.7384 55.804C64.7241 55.7929 64.7061 55.7781 64.6954 55.7671C63.1572 54.5297 62.0708 53.7504 61.3644 53.2776C61.3106 53.2296 61.2604 53.1816 61.2067 53.1299C60.9736 52.9932 60.7405 52.8602 60.5111 52.7384C60.382 52.6682 60.321 52.6349 60.321 52.6349H60.3139C56.9542 50.8362 53.6412 50.1012 49.8154 50.1197C49.6074 50.2157 45.5737 50.2489 42.9742 50.1824C42.9742 50.1824 42.9706 50.1824 42.967 50.1824C42.7483 50.1677 40.9806 50.0458 40.7942 50.0199C40.6328 50.0052 40.4858 50.0015 40.3532 50.0015H40.3209C40.0914 50.0052 39.8978 50.0199 39.7329 50.0458C39.6253 50.0606 39.5249 50.079 39.4353 50.0975C39.4353 50.0975 39.4173 50.0975 39.3815 50.1049C39.3671 50.1049 39.3528 50.1086 39.3349 50.1123C39.3205 50.1123 39.3062 50.116 39.2847 50.1197C39.2667 50.1197 39.2488 50.127 39.2273 50.1307C39.0337 50.164 38.7612 50.212 38.6464 50.2379C38.6142 50.2452 38.5747 50.2489 38.5281 50.2489C38.4457 50.2489 38.3453 50.2415 38.2556 50.2305C38.2305 50.2268 38.209 50.2231 38.1875 50.2194C38.105 50.2083 38.0333 50.1972 38.0046 50.1935C37.9186 50.1861 37.3234 50.2896 37.1262 50.2748H37.0975C36.8895 50.26 36.6278 50.2933 36.3983 50.3523C36.3876 50.3523 36.3732 50.356 36.3589 50.3597C36.3517 50.3597 36.3409 50.3671 36.3302 50.3671C35.4338 50.5666 33.8167 51.043 33.8167 51.043C32.949 51.2092 32.2463 51.5454 31.7299 51.6857C30.0806 52.3579 28.6786 53.2111 27.5851 54.2195C27.5851 54.2195 27.5062 54.2933 27.3878 54.4041C27.1763 54.5925 26.8357 54.888 26.5703 55.0616C26.513 55.0985 26.4592 55.1318 26.4126 55.1576C26.4054 55.1576 26.3947 55.165 26.3875 55.1724C26.3624 55.1835 26.3337 55.2019 26.3014 55.2278C26.2799 55.2426 26.2584 55.261 26.2333 55.2758C26.1257 55.3571 25.9931 55.4642 25.8532 55.5935C25.8317 55.6119 25.8102 55.6304 25.7851 55.6526C25.6847 55.7412 25.5807 55.8372 25.4768 55.9296C25.2329 56.1549 24.9927 56.3839 24.8063 56.5612C24.7453 56.6166 24.6808 56.683 24.6198 56.7458C24.5266 56.8345 24.4764 56.8899 24.4764 56.8899C24.4764 56.8899 24.4692 56.8973 24.462 56.9047C24.3652 56.9859 23.8776 57.4144 23.3039 58.0386C22.9705 58.4042 22.6012 58.8364 22.2569 59.3128C21.3785 60.5317 21.5076 60.4837 20.9375 61.4034C20.9195 61.4329 20.898 61.4625 20.8801 61.4957C20.8371 61.5622 20.7905 61.6361 20.7403 61.7136C20.7152 61.7542 20.6865 61.7986 20.6614 61.8392C20.604 61.9278 20.5466 62.0202 20.4893 62.1125C20.4319 62.2085 20.3709 62.3083 20.31 62.408C20.0196 62.9029 19.7112 63.4717 19.4172 64.0738C18.8973 65.1523 18.4312 66.3379 18.2196 67.3795C18.2053 67.4386 18.1945 67.5014 18.1838 67.5568V67.5642C18.0798 68.1551 18.0152 69.1265 17.9794 70.1792C17.8611 71.3759 17.7284 72.6095 17.6459 73.6548C17.6854 74.6779 17.4165 75.4794 17.5276 76.0297C17.5276 76.0297 17.5276 76.0556 17.5204 76.0999C17.5133 76.207 17.5061 76.4323 17.5455 76.6908C17.9543 79.6604 19.1662 82.7224 20.4893 85.607C20.4929 85.607 20.4929 85.6144 20.4929 85.6144C20.5251 85.692 21.0809 86.8739 21.5793 87.5941C21.6474 87.6938 21.7191 87.7825 21.7837 87.86C21.7872 87.8674 21.7944 87.8748 21.8016 87.8785C21.8159 87.897 21.8374 87.9191 21.8554 87.9413C22.6227 88.8462 23.4079 89.692 24.2182 90.4935C24.2864 90.5637 24.3581 90.6339 24.4226 90.7004C24.4656 90.741 24.5051 90.7816 24.5445 90.8223C24.6306 90.9035 24.7166 90.9848 24.8027 91.0734C24.8278 91.0956 24.8565 91.1177 24.8816 91.1436C24.9102 91.1694 24.9389 91.1953 24.9712 91.2248C26.1544 92.3366 27.4094 93.3597 28.7862 94.3274C29.679 94.8186 29.9264 94.9147 30.518 95.2766C30.536 95.2877 30.5467 95.2951 30.5467 95.2951C30.5467 95.2951 30.9053 95.6275 31.7299 96.0043C31.7299 96.0043 31.7299 96.0043 31.7335 96.0043C32.3072 96.2665 33.1104 96.5509 34.1753 96.7577C36.2119 97.212 38.2449 97.6183 40.7727 97.4706C40.4822 97.5297 49.4461 97.3783 49.8297 97.3487C52.0026 97.4078 53.842 97.4558 55.9574 96.6913C55.9574 96.6913 56.4737 96.5435 57.0223 96.429C57.0223 96.429 57.0295 96.429 57.0331 96.429C57.1048 96.4142 57.1801 96.3995 57.2554 96.3847C57.259 96.3847 57.2697 96.3847 57.2733 96.3847C57.8936 96.2702 58.7291 95.9415 58.7291 95.9415C61.3608 94.32 63.5588 92.8795 65.6742 90.4935C66.0973 89.9727 66.7463 89.6699 66.922 89.4076C66.9507 89.3818 66.9758 89.3559 66.9973 89.3338H67.0045L67.0726 89.2599L67.1515 89.1749L67.4347 88.8721L67.6857 88.6024C68.1196 88.041 68.5068 87.6126 68.7793 87.1361H68.7865C68.7865 87.1361 68.7865 87.125 68.7901 87.1213C68.8259 87.0696 69.0339 86.7668 69.4104 86.0687C69.4175 86.0502 69.4283 86.0355 69.4391 86.017C69.6578 85.6033 69.9375 85.0567 70.2709 84.3512C71.2175 82.3493 71.7051 80.8497 72.1282 78.7444C72.1605 78.6004 72.1856 78.4563 72.2107 78.316C72.2322 78.2052 72.2537 78.0944 72.268 77.9836C72.2788 77.9134 72.286 77.8469 72.3003 77.7841C72.3075 77.7213 72.3147 77.6585 72.3254 77.5958C72.3326 77.5256 72.3398 77.4591 72.3505 77.3889C72.3577 77.3335 72.3649 77.2781 72.3684 77.2227C72.372 77.171 72.3792 77.1193 72.3828 77.0639C72.476 76.2735 72.5047 75.472 72.476 74.6705V74.7665L72.4366 74.7739ZM23.0565 58.3673C23.0565 58.3673 23.0565 58.3525 23.0673 58.3599C23.0673 58.3599 23.0601 58.3599 23.0565 58.3673ZM63.3329 77.4C63.3329 77.4 62.9026 77.8949 62.8237 78.2237C62.8237 78.268 62.8237 78.3123 62.8237 78.3566C62.8166 78.8035 62.6696 79.0695 62.3827 79.4942C61.8736 81.1009 60.9664 82.7925 59.4677 83.9375C58.2127 85.4925 56.8538 86.4233 55.0324 87.1029C53.2253 87.8564 51.6584 88.3734 49.4784 88.403C49.3959 88.2959 40.7691 88.2146 40.5289 88.4067C37.8325 88.2405 35.5593 87.7308 33.4187 86.4934C31.4969 85.1084 29.6826 83.4795 28.4169 81.0714C28.4133 81.0714 28.4061 81.0751 28.399 81.0787C28.3918 81.0677 28.3846 81.0566 28.3775 81.0418C28.3667 81.0233 28.3559 81.0049 28.3452 80.9864C28.3022 80.9162 28.2591 80.8424 28.2197 80.7722C28.1803 80.7057 28.1444 80.6392 28.1121 80.5838C28.0727 80.5136 28.0368 80.4582 28.0081 80.4102C27.9974 80.3881 27.9866 80.3659 27.9759 80.3511C27.2516 78.9734 26.893 77.3815 26.6707 75.8192V75.8081C26.5919 74.556 26.6277 73.507 26.6349 73.278V73.2337C26.6528 72.9936 26.6385 72.7757 26.6923 72.543C26.7353 72.133 26.7747 70.9474 26.7747 70.8772C26.9899 69.9686 27.2695 69.1265 27.8038 68.1366C28.0476 67.217 28.4994 66.4265 29.0874 65.9132C29.0874 65.9132 30.6937 63.8965 31.0092 63.4976C31.0128 63.4976 31.0128 63.4939 31.0164 63.4902C32.1602 62.2492 33.6733 61.1522 34.9713 60.528C35.0143 60.4984 35.0645 60.4689 35.1111 60.443C35.1505 60.4209 35.1864 60.3987 35.2258 60.3803C35.6812 60.1476 36.1939 60.0478 36.7067 59.9481C36.7067 59.9481 36.7354 59.9444 36.7927 59.9296C36.8071 59.9296 36.825 59.9223 36.8465 59.9186C36.8644 59.9186 36.8752 59.9112 36.8967 59.9075C36.9469 59.8927 37.0079 59.8779 37.076 59.8632C37.3987 59.7893 37.8935 59.6674 38.3596 59.5492C38.3632 59.5492 38.3668 59.5492 38.3739 59.5492C38.5317 59.5086 38.7755 59.4827 39.0588 59.4643C39.4604 59.4347 39.948 59.4236 40.4177 59.4236C41.2962 59.4199 42.0957 59.4384 42.0957 59.4384H42.1244C42.3324 59.4384 43.5443 59.4384 44.5769 59.4384C44.6379 59.4384 44.6988 59.4384 44.7562 59.4384C45.1004 59.4384 45.4159 59.4347 45.6526 59.4273V59.4347C45.588 59.4532 49.4282 59.2648 49.6505 59.2796C52.2356 59.4532 54.473 60.0368 56.6566 61.3775C58.7685 62.7626 60.6186 64.3028 61.8772 66.6888C63.0568 68.6537 63.7954 71.2872 63.6018 73.7656C63.6879 74.9512 63.6556 76.4397 63.3329 77.4Z" fill="black"/>
</svg>
