<svg width="310" height="150" viewBox="0 0 310 150" fill="none" xmlns="http://www.w3.org/2000/svg">
<rect width="310" height="150" fill="white"/>
<path d="M271.343 41.4619H271.35C271.289 42.4068 271.212 43.2908 271.136 43.9004C271.136 43.9462 271.136 43.9995 271.12 44.0452C271.12 44.1443 271.09 44.2357 271.082 44.3196C271.067 44.4186 271.051 44.5024 271.036 44.5634C271.021 44.6244 271.005 44.6701 270.998 44.7006L270.652 44.7463L270.208 44.8149L269.962 44.853L269.633 44.8987H269.556C266.297 45.4093 222.209 45.3178 222.209 45.0816C221.404 45.9579 221.733 124.25 221.818 124.167C221.304 123.892 202.564 123.915 202.956 123.641C202.618 123.892 202.265 106.617 202.112 100.597V100.566C202.112 100.33 202.112 100.109 202.097 99.9107C202.12 99.7354 202.143 99.2553 202.166 98.5314C202.38 92.3665 202.618 68.3468 202.641 66.8151V66.7389C202.61 55.5368 202.664 45.4321 202.933 45.234C202.71 44.9902 175.314 44.9444 172.439 45.0587C171.948 45.0359 171.342 45.0054 170.813 44.9521C170.813 44.9521 170.775 44.9444 170.759 44.9444C170.522 44.9216 170.299 44.8835 170.115 44.853H170.1C168.198 44.8835 153.086 45.4321 152.764 45.3788C152.442 45.0664 152.986 26.1372 153.492 26C153.492 26.0991 157.51 26.1753 163.943 26.2439H164.365C191.048 26.5029 257.572 26.4801 257.273 26.3886C257.319 26.4039 257.365 26.4115 257.411 26.4115H257.48V26.4039C257.495 26.4039 257.518 26.4115 257.556 26.4115C257.725 26.4267 258.116 26.4496 258.637 26.4648C259.627 26.5029 261.091 26.5106 262.479 26.4039C262.494 26.3963 262.517 26.3963 262.533 26.3963C262.533 26.3886 262.556 26.3886 262.571 26.3886C262.602 26.3886 262.625 26.3886 262.655 26.381C262.709 26.381 262.755 26.3734 262.809 26.3658C262.885 26.3582 262.962 26.3505 263.046 26.3429C264.963 26.1753 271.067 25.7561 270.959 26.4344C271.067 26.1905 271.074 29.0025 271.044 31.3496C271.044 31.38 271.258 33.5214 271.396 35.3655C271.396 35.4265 271.396 35.4798 271.412 35.5332C271.412 35.6627 271.427 35.7923 271.435 35.9142C271.458 36.2876 271.481 36.6381 271.496 36.9353V37.1411C271.519 38.1241 271.45 39.8845 271.343 41.4619Z" fill="black"/>
<path d="M152.535 77.1964C152.535 77.0971 152.535 77.0055 152.535 76.9063C152.535 76.8147 152.535 76.7231 152.535 76.6391C152.535 76.5781 152.535 76.5246 152.535 76.4712C152.535 76.4101 152.535 76.3414 152.535 76.2804V76.1659C152.535 76.1125 152.535 76.0514 152.535 76.0056V75.9751C152.535 75.9751 152.535 75.914 152.535 75.8911C152.535 75.8682 152.535 75.8453 152.535 75.8148C152.535 75.7537 152.535 75.6926 152.527 75.6468C152.527 75.5323 152.52 75.4713 152.52 75.4713V75.4484C152.512 75.3033 152.49 75.1659 152.483 75.0285C153.298 68.296 151.238 61.5558 149.571 55.7698C149.571 55.7698 147.511 52.144 146.547 51.0219C146.51 50.9303 146.473 50.8463 146.436 50.7623C145.31 48.251 143.776 45.7931 141.894 43.5413H141.886C140.508 41.6864 138.781 39.7475 136.625 37.9919C136.595 37.969 136.558 37.9384 136.536 37.9155C133.357 35.3584 131.112 33.7478 129.652 32.7707C129.541 32.6715 129.437 32.5723 129.326 32.4654C128.844 32.183 128.363 31.9082 127.889 31.6563C127.622 31.5112 127.496 31.4425 127.496 31.4425H127.481C120.538 27.7251 113.691 26.2061 105.784 26.2443C105.354 26.4427 97.018 26.5114 91.6456 26.374C91.6456 26.374 91.6382 26.374 91.6308 26.374C91.1788 26.3435 87.5256 26.0916 87.1403 26.0382C86.8068 26.0076 86.503 26 86.2289 26H86.1622C85.6879 26.0076 85.2878 26.0382 84.9469 26.0916C84.7246 26.1221 84.5171 26.1603 84.3319 26.1985C84.3319 26.1985 84.2948 26.1985 84.2207 26.2137C84.1911 26.2137 84.1614 26.2214 84.1244 26.229C84.0947 26.229 84.0651 26.2366 84.0206 26.2443C83.9836 26.2443 83.9465 26.2595 83.9021 26.2672C83.5019 26.3359 82.9388 26.4351 82.7016 26.4885C82.635 26.5038 82.5534 26.5114 82.4571 26.5114C82.2867 26.5114 82.0792 26.4962 81.8939 26.4733C81.8421 26.4656 81.7976 26.458 81.7531 26.4504C81.5827 26.4275 81.4345 26.4046 81.3752 26.3969C81.1974 26.3817 79.9673 26.5954 79.5597 26.5649H79.5005C79.0707 26.5343 78.5297 26.603 78.0555 26.7252C78.0333 26.7252 78.0036 26.7328 77.974 26.7404C77.9592 26.7404 77.9369 26.7557 77.9147 26.7557C76.0622 27.1679 72.7202 28.1526 72.7202 28.1526C70.927 28.4961 69.4746 29.1907 68.4075 29.4808C64.9989 30.87 62.1015 32.6333 59.8414 34.7172C59.8414 34.7172 59.6784 34.8699 59.4339 35.0989C58.9967 35.4882 58.2927 36.0988 57.7444 36.4576C57.6258 36.5339 57.5147 36.6026 57.4183 36.6561C57.4035 36.6561 57.3813 36.6713 57.3665 36.6866C57.3146 36.7095 57.2553 36.7477 57.1886 36.8011C57.1442 36.8316 57.0997 36.8698 57.0478 36.9003C56.8255 37.0683 56.5513 37.2896 56.2624 37.5568C56.2179 37.5949 56.1734 37.6331 56.1216 37.6789C55.9141 37.8621 55.6992 38.0606 55.4843 38.2514C54.9804 38.717 54.4839 39.1903 54.0986 39.5567C53.9726 39.6712 53.8392 39.8086 53.7133 39.9384C53.5206 40.1216 53.4169 40.2361 53.4169 40.2361C53.4169 40.2361 53.402 40.2513 53.3872 40.2666C53.1872 40.4345 52.1794 41.32 50.9938 42.61C50.3046 43.3657 49.5414 44.2588 48.83 45.2435C47.0145 47.7625 47.2813 47.6632 46.1031 49.5639C46.066 49.625 46.0216 49.6861 45.9845 49.7548C45.8956 49.8922 45.7993 50.0448 45.6955 50.2051C45.6437 50.2891 45.5844 50.3807 45.5325 50.4646C45.4139 50.6478 45.2954 50.8387 45.1768 51.0295C45.0583 51.228 44.9323 51.4341 44.8063 51.6402C44.2061 52.663 43.5688 53.8386 42.9612 55.0828C41.8867 57.3117 40.9234 59.762 40.4862 61.9146C40.4566 62.0367 40.4343 62.1665 40.4121 62.281V62.2962C40.1972 63.5175 40.0638 65.5251 39.9897 67.7006C39.7452 70.1738 39.471 72.7233 39.3006 74.8835C39.3821 76.9979 38.8263 78.6543 39.0561 79.7917C39.0561 79.7917 39.0561 79.8451 39.0412 79.9367C39.0264 80.1581 39.0116 80.6237 39.0931 81.1581C39.9379 87.2952 42.4425 93.6232 45.1768 99.5848C45.1842 99.5848 45.1842 99.6 45.1842 99.6C45.2509 99.7603 46.3995 102.203 47.4295 103.691C47.5703 103.898 47.7185 104.081 47.8519 104.241C47.8593 104.256 47.8741 104.272 47.8889 104.279C47.9186 104.317 47.963 104.363 48.0001 104.409C49.5858 106.279 51.2087 108.027 52.8833 109.684C53.0241 109.829 53.1723 109.974 53.3057 110.111C53.3946 110.195 53.4761 110.279 53.5577 110.363C53.7355 110.531 53.9133 110.699 54.0912 110.882C54.1431 110.928 54.2023 110.974 54.2542 111.027C54.3135 111.08 54.3728 111.134 54.4395 111.195C56.8848 113.493 59.4783 115.607 62.3238 117.607C64.1689 118.622 64.6802 118.821 65.9029 119.569C65.94 119.592 65.9622 119.607 65.9622 119.607C65.9622 119.607 66.7032 120.294 68.4075 121.072C68.4075 121.072 68.4075 121.072 68.4149 121.072C69.6006 121.614 71.2604 122.202 73.4612 122.63C77.6702 123.569 81.8717 124.408 87.0958 124.103C86.4956 124.225 105.021 123.912 105.814 123.851C110.304 123.973 114.106 124.072 118.478 122.492C118.478 122.492 119.545 122.187 120.678 121.95C120.678 121.95 120.693 121.95 120.701 121.95C120.849 121.92 121.005 121.889 121.16 121.859C121.168 121.859 121.19 121.859 121.197 121.859C122.479 121.622 124.206 120.943 124.206 120.943C129.645 117.592 134.187 114.615 138.559 109.684C139.433 108.607 140.775 107.981 141.138 107.439C141.197 107.386 141.249 107.333 141.293 107.287H141.308L141.449 107.134L141.612 106.959L142.197 106.333L142.716 105.775C143.613 104.615 144.413 103.73 144.976 102.745H144.991C144.991 102.745 144.991 102.722 144.998 102.714C145.073 102.608 145.502 101.982 146.28 100.539C146.295 100.501 146.317 100.47 146.34 100.432C146.792 99.5771 147.37 98.4474 148.059 96.9895C150.015 92.8522 151.023 89.7531 151.897 85.4021C151.964 85.1045 152.016 84.8067 152.068 84.5167C152.112 84.2877 152.157 84.0587 152.186 83.8297C152.209 83.6847 152.223 83.5473 152.253 83.4175C152.268 83.2877 152.283 83.158 152.305 83.0282C152.32 82.8832 152.334 82.7458 152.357 82.6007C152.372 82.4862 152.386 82.3717 152.394 82.2572C152.401 82.1504 152.416 82.0435 152.423 81.929C152.616 80.2955 152.675 78.6391 152.616 76.9826V77.1811L152.535 77.1964ZM50.4825 43.2894C50.4825 43.2894 50.4825 43.2588 50.5047 43.2741C50.5047 43.2741 50.4899 43.2741 50.4825 43.2894ZM133.72 82.6236C133.72 82.6236 132.831 83.6465 132.668 84.3259C132.668 84.4175 132.668 84.5091 132.668 84.6007C132.653 85.5243 132.349 86.0739 131.757 86.9517C130.704 90.2722 128.83 93.7682 125.732 96.1345C123.139 99.3481 120.33 101.272 116.566 102.676C112.831 104.233 109.593 105.302 105.088 105.363C104.917 105.142 87.0884 104.974 86.5919 105.371C81.0195 105.027 76.3215 103.974 71.8977 101.417C67.9259 98.5543 64.1764 95.188 61.5606 90.2111C61.5532 90.2111 61.5384 90.2187 61.5235 90.2264C61.5087 90.2035 61.4939 90.1806 61.4791 90.15C61.4568 90.1119 61.4346 90.0737 61.4124 90.0355C61.3235 89.8905 61.2345 89.7378 61.153 89.5928C61.0715 89.4554 60.9974 89.318 60.9307 89.2035C60.8492 89.0585 60.7751 88.944 60.7158 88.8448C60.6936 88.799 60.6714 88.7532 60.6491 88.7226C59.1523 85.8754 58.4113 82.5855 57.9519 79.3566V79.3337C57.7888 76.746 57.8629 74.5782 57.8778 74.1049V74.0133C57.9148 73.5171 57.8852 73.0668 57.9963 72.5859C58.0852 71.7386 58.1667 69.2883 58.1667 69.1433C58.6114 67.2655 59.1893 65.5251 60.2935 63.4794C60.7973 61.5787 61.731 59.9452 62.9463 58.8841C62.9463 58.8841 66.266 54.7164 66.9181 53.892C66.9255 53.892 66.9255 53.8844 66.9329 53.8767C69.2967 51.3119 72.4238 49.0449 75.1063 47.7548C75.1952 47.6938 75.2989 47.6327 75.3953 47.5793C75.4768 47.5335 75.5509 47.4877 75.6324 47.4495C76.5735 46.9686 77.6331 46.7625 78.6928 46.5564C78.6928 46.5564 78.752 46.5488 78.8706 46.5182C78.9002 46.5182 78.9373 46.503 78.9818 46.4953C79.0188 46.4953 79.041 46.4801 79.0855 46.4724C79.1892 46.4419 79.3152 46.4114 79.456 46.3808C80.1229 46.2282 81.1455 45.9763 82.1088 45.732C82.1162 45.732 82.1236 45.732 82.1385 45.732C82.4645 45.6481 82.9684 45.5946 83.5538 45.5565C84.3837 45.4954 85.3915 45.4725 86.3622 45.4725C88.1777 45.4649 89.8302 45.503 89.8302 45.503H89.8895C90.3192 45.503 92.8239 45.503 94.958 45.503C95.0839 45.503 95.2099 45.503 95.3285 45.503C96.0398 45.503 96.6919 45.4954 97.181 45.4801V45.4954C97.0476 45.5336 104.984 45.1443 105.443 45.1748C110.786 45.5336 115.41 46.7396 119.923 49.5105C124.287 52.373 128.111 55.556 130.712 60.4871C133.15 64.548 134.676 69.9906 134.276 75.1125C134.454 77.5628 134.387 80.639 133.72 82.6236Z" fill="black"/>
</svg>
